<svg width="16" height="16" viewBox="0 0 16 16" fill="none" xmlns="http://www.w3.org/2000/svg">
<path fill-rule="evenodd" clip-rule="evenodd" d="M3.513 1.75C3.22687 1.75 2.91793 1.86293 2.58314 2.19249L2.57746 2.19808L2.57167 2.20355C2.27591 2.48256 2.07506 2.78355 1.94992 3.10159L1.94837 3.10555C1.81815 3.43109 1.75 3.79088 1.75 4.178C1.75 4.7887 1.89067 5.45232 2.19479 6.17492C2.50511 6.90519 2.93687 7.654 3.48361 8.41432C4.04052 9.17905 4.66553 9.91188 5.35938 10.6127C6.06049 11.3068 6.79405 11.9325 7.56706 12.4971C8.32395 13.0481 9.07967 13.4806 9.82699 13.799C10.5567 14.1099 11.2196 14.25 11.815 14.25C12.2098 14.25 12.5664 14.1772 12.8915 14.0417L12.8956 14.04C13.2075 13.9122 13.4956 13.7092 13.7726 13.404C13.923 13.2379 14.0366 13.0626 14.1258 12.8737C14.1983 12.7203 14.229 12.5705 14.229 12.431C14.229 12.3537 14.2147 12.2775 14.1764 12.1783C14.1618 12.1487 14.1327 12.1073 14.0551 12.0536L14.0478 12.0486L11.7373 10.4081C11.593 10.3105 11.4808 10.2499 11.391 10.2132C11.3148 10.182 11.2711 10.178 11.248 10.178C11.2268 10.178 11.1992 10.1802 11.141 10.2156L11.1198 10.2285L11.0979 10.2399C11.0289 10.276 10.922 10.3527 10.7773 10.4973L10.7738 10.5008L10.2432 11.0244C10.0335 11.2331 9.75547 11.361 9.428 11.361C9.30691 11.361 9.15526 11.3473 8.98966 11.2852L8.97346 11.2792L8.95756 11.2724C8.92589 11.2588 8.89653 11.2453 8.87767 11.2367L8.87226 11.2342C8.85344 11.2255 8.84796 11.2232 8.84777 11.2231L8.81138 11.2085L8.77608 11.1898C8.47263 11.0292 8.12574 10.7823 7.73954 10.4555L7.73858 10.4547C7.34808 10.1232 6.96968 9.76618 6.58565 9.38926L6.5806 9.38431L6.57564 9.37926C6.19823 8.99459 5.8515 8.6116 5.52887 8.23878L5.52343 8.23249C5.20216 7.85281 4.94802 7.50711 4.78658 7.21114L4.7546 7.15252L4.73563 7.0956C4.73459 7.09306 4.7325 7.08799 4.7289 7.07948C4.72817 7.07776 4.72737 7.07586 4.72649 7.07379C4.71783 7.05338 4.70225 7.01666 4.68675 6.97534L4.67175 6.93534L4.66139 6.8939C4.63508 6.78865 4.618 6.67805 4.618 6.551C4.618 6.25985 4.71852 5.97525 4.94333 5.74706L5.47654 5.1928L5.48167 5.18767C5.61569 5.05365 5.70197 4.93885 5.75108 4.85196L5.75705 4.8414L5.76335 4.83104C5.79714 4.77553 5.801 4.74103 5.801 4.724C5.801 4.71675 5.79741 4.67122 5.76364 4.59244L5.75874 4.58101C5.72236 4.49208 5.66318 4.38249 5.56435 4.24523L5.5613 4.24099L3.93232 1.94494C3.88877 1.88204 3.83629 1.83955 3.76571 1.80697L3.75541 1.80222C3.6881 1.76991 3.60398 1.75 3.513 1.75ZM1.5366 1.11788C2.09664 0.568892 2.76568 0.25 3.513 0.25C3.8122 0.25 4.11814 0.313394 4.39942 0.447406C4.68957 0.582304 4.95605 0.789907 5.16291 1.08715L6.78324 3.37098C6.93435 3.58115 7.05573 3.79105 7.14483 4.00735C7.23578 4.22123 7.301 4.46756 7.301 4.724C7.301 5.03873 7.20935 5.33645 7.05109 5.60031C6.91999 5.8295 6.74457 6.04536 6.54772 6.24293L6.18154 6.62357C6.28357 6.78264 6.4412 6.99467 6.66588 7.2604C6.971 7.61288 7.29377 7.96912 7.64143 8.32373C8.01134 8.68666 8.35921 9.0139 8.70895 9.31088C8.977 9.53765 9.19169 9.69301 9.35505 9.79351L9.71854 9.4348C9.91745 9.23612 10.1387 9.05257 10.3822 8.92164C10.6406 8.76874 10.928 8.678 11.248 8.678C11.4909 8.678 11.7272 8.73003 11.959 8.82484C12.1759 8.9136 12.3839 9.03386 12.5867 9.17181L12.593 9.17607L14.9129 10.8231C15.1896 11.0156 15.4134 11.2646 15.5535 11.5829L15.5586 11.5946L15.5634 11.6065C15.6608 11.85 15.729 12.1201 15.729 12.431C15.729 12.7955 15.6477 13.1637 15.4822 13.5143C15.3334 13.8293 15.1391 14.1298 14.8837 14.4116C14.4752 14.8619 14.0076 15.205 13.4663 15.4272C12.9521 15.6411 12.3994 15.75 11.815 15.75C10.9824 15.75 10.1193 15.5541 9.23901 15.179C8.37653 14.8115 7.52246 14.3201 6.68356 13.7093L6.68262 13.7086C5.84671 13.0981 5.05524 12.4226 4.30124 11.6759L4.29609 11.6708C3.54947 10.9169 2.87377 10.1252 2.26968 9.29545L2.26714 9.29195C1.66674 8.45726 1.1751 7.61104 0.813697 6.76023L0.81277 6.75804C0.445192 5.88505 0.25 5.02301 0.25 4.178C0.25 3.61384 0.349604 3.06432 0.554854 2.55043C0.764851 2.01756 1.0938 1.53706 1.5366 1.11788Z" fill="#0B0B0B"/>
<circle cx="12.5" cy="3.5" r="2.5" fill="#50AC58"/>
</svg>
