<svg width="260" height="260" viewBox="0 0 260 260" fill="none" xmlns="http://www.w3.org/2000/svg">
<circle cx="130" cy="130" r="130" fill="#FAFAFA"/>
<g opacity="0.3">
<path d="M86.9496 170V157.4H63.6846V148.355L87.9846 102.5H97.2996V147.095H102.835V157.4H97.2996V170H86.9496ZM72.3696 151.28L69.8046 147.095H86.9496V122.66L72.3696 151.28Z" fill="#0B0B0B"/>
<path d="M127.492 171.44C122.542 171.44 118.567 169.91 115.567 166.85C112.597 163.79 111.112 159.77 111.112 154.79V117.71C111.112 112.7 112.597 108.68 115.567 105.65C118.567 102.59 122.542 101.06 127.492 101.06C132.532 101.06 136.537 102.59 139.507 105.65C142.477 108.68 143.962 112.7 143.962 117.71V154.79C143.962 159.77 142.477 163.79 139.507 166.85C136.537 169.91 132.532 171.44 127.492 171.44ZM127.492 161.09C129.412 161.09 130.912 160.52 131.992 159.38C133.072 158.21 133.612 156.68 133.612 154.79V117.71C133.612 115.82 133.072 114.305 131.992 113.165C130.912 111.995 129.412 111.41 127.492 111.41C125.632 111.41 124.162 111.995 123.082 113.165C122.002 114.305 121.462 115.82 121.462 117.71V154.79C121.462 156.68 122.002 158.21 123.082 159.38C124.162 160.52 125.632 161.09 127.492 161.09ZM131.317 111.41H137.347L123.757 161.09H117.772L131.317 111.41Z" fill="#0B0B0B"/>
<path d="M174.489 170V157.4H151.224V148.355L175.524 102.5H184.839V147.095H190.374V157.4H184.839V170H174.489ZM159.909 151.28L157.344 147.095H174.489V122.66L159.909 151.28Z" fill="#0B0B0B"/>
</g>
</svg>
