<svg width="66" height="66" viewBox="0 0 66 66" fill="none" xmlns="http://www.w3.org/2000/svg">
<rect width="66" height="66" rx="33" fill="#FAFAFA"/>
<path d="M21.45 21.4527V28.6706H22.2902M22.2902 28.6706C23.2486 26.3005 24.9665 24.3152 27.1745 23.026C29.3825 21.7368 31.9558 21.2166 34.4913 21.5468C37.0268 21.8769 39.381 23.0389 41.1851 24.8506C42.9892 26.6623 44.1411 29.0212 44.4604 31.5578M22.2902 28.6706H28.6687M44.55 44.55V37.3321H43.7111M43.7111 37.3321C42.7513 39.7009 41.033 41.6846 38.8252 42.9726C36.6175 44.2606 34.0448 44.7803 31.5101 44.4502C28.9754 44.1202 26.6217 42.959 24.8175 41.1485C23.0133 39.3381 21.8605 36.9805 21.5395 34.445M43.7111 37.3321H37.3312" stroke="#0C0C0C" stroke-width="2" stroke-linecap="round" stroke-linejoin="round"/>
</svg>
