<svg width="66" height="66" viewBox="0 0 66 66" fill="none" xmlns="http://www.w3.org/2000/svg">
<rect width="66" height="66" rx="33" fill="#FAFAFA"/>
<path d="M27.0834 43.5835C27.7023 42.9646 28.05 42.1252 28.05 41.25C28.05 40.3748 27.7023 39.5354 27.0834 38.9166C26.4645 38.2977 25.6252 37.95 24.75 37.95C23.8747 37.95 23.0354 38.2977 22.4165 38.9166C21.7976 39.5354 21.45 40.3748 21.45 41.25C21.45 42.1252 21.7976 42.9646 22.4165 43.5835C23.0354 44.2023 23.8747 44.55 24.75 44.55C25.6252 44.55 26.4645 44.2023 27.0834 43.5835Z" stroke="#666666"/>
<path d="M43.5834 43.5835C44.2023 42.9646 44.55 42.1252 44.55 41.25C44.55 40.3748 44.2023 39.5354 43.5834 38.9166C42.9645 38.2977 42.1252 37.95 41.25 37.95C40.3747 37.95 39.5354 38.2977 38.9165 38.9166C38.2976 39.5354 37.95 40.3748 37.95 41.25C37.95 42.1252 38.2976 42.9646 38.9165 43.5835C39.5354 44.2023 40.3747 44.55 41.25 44.55C42.1252 44.55 42.9645 44.2023 43.5834 43.5835Z" stroke="#666666"/>
<path d="M34.6499 39.6V23.1C34.6499 22.6624 34.4761 22.2427 34.1666 21.9333C33.8572 21.6239 33.4375 21.45 32.9999 21.45H19.7999C19.3623 21.45 18.9426 21.6239 18.6332 21.9333C18.3237 22.2427 18.1499 22.6624 18.1499 23.1V39.6C18.1499 40.0376 18.3237 40.4573 18.6332 40.7667C18.9426 41.0762 19.3623 41.25 19.7999 41.25H21.4499M34.6499 39.6C34.6499 40.0376 34.4761 40.4573 34.1666 40.7667C33.8572 41.0762 33.4375 41.25 32.9999 41.25H28.0499M34.6499 39.6V26.4C34.6499 25.9624 34.8237 25.5427 35.1332 25.2333C35.4426 24.9239 35.8623 24.75 36.2999 24.75H40.5668C41.0044 24.7501 41.424 24.924 41.7334 25.2335L47.3665 30.8666C47.6759 31.1759 47.8498 31.5955 47.8499 32.0331V39.6C47.8499 40.0376 47.6761 40.4573 47.3666 40.7667C47.0572 41.0762 46.6375 41.25 46.1999 41.25H44.5499M34.6499 39.6C34.6499 40.0376 34.8237 40.4573 35.1332 40.7667C35.4426 41.0762 35.8623 41.25 36.2999 41.25H37.9499M21.4499 41.25C21.4499 42.1252 21.7976 42.9646 22.4165 43.5835C23.0353 44.2023 23.8747 44.55 24.7499 44.55C25.6251 44.55 26.4645 44.2023 27.0834 43.5835C27.7022 42.9646 28.0499 42.1252 28.0499 41.25M21.4499 41.25C21.4499 40.3748 21.7976 39.5354 22.4165 38.9166C23.0353 38.2977 23.8747 37.95 24.7499 37.95C25.6251 37.95 26.4645 38.2977 27.0834 38.9166C27.7022 39.5354 28.0499 40.3748 28.0499 41.25M44.5499 41.25C44.5499 42.1252 44.2022 42.9646 43.5834 43.5835C42.9645 44.2023 42.1251 44.55 41.2499 44.55C40.3747 44.55 39.5353 44.2023 38.9165 43.5835C38.2976 42.9646 37.9499 42.1252 37.9499 41.25M44.5499 41.25C44.5499 40.3748 44.2022 39.5354 43.5834 38.9166C42.9645 38.2977 42.1251 37.95 41.2499 37.95C40.3747 37.95 39.5353 38.2977 38.9165 38.9166C38.2976 39.5354 37.9499 40.3748 37.9499 41.25" stroke="#0C0C0C" stroke-width="2" stroke-linecap="round" stroke-linejoin="round"/>
</svg>
