<svg width="66" height="66" viewBox="0 0 66 66" fill="none" xmlns="http://www.w3.org/2000/svg">
<rect width="66" height="66" rx="33" fill="#FAFAFA"/>
<path d="M21.45 33L24.0166 30.4333M24.0166 30.4333L33 21.45L41.9833 30.4333M24.0166 30.4333V43.2667C24.0166 43.607 24.1518 43.9335 24.3925 44.1741C24.6332 44.4148 24.9596 44.55 25.3 44.55H29.15M41.9833 30.4333L44.55 33M41.9833 30.4333V43.2667C41.9833 43.607 41.8481 43.9335 41.6074 44.1741C41.3667 44.4148 41.0403 44.55 40.7 44.55H36.85M29.15 44.55C29.4903 44.55 29.8167 44.4148 30.0574 44.1741C30.2981 43.9335 30.4333 43.607 30.4333 43.2667V38.1333C30.4333 37.793 30.5685 37.4666 30.8092 37.2259C31.0498 36.9852 31.3763 36.85 31.7166 36.85H34.2833C34.6236 36.85 34.9501 36.9852 35.1907 37.2259C35.4314 37.4666 35.5666 37.793 35.5666 38.1333V43.2667C35.5666 43.607 35.7018 43.9335 35.9425 44.1741C36.1832 44.4148 36.5096 44.55 36.85 44.55M29.15 44.55H36.85" stroke="#0C0C0C" stroke-width="2" stroke-linecap="round" stroke-linejoin="round"/>
</svg>
