<svg width="153" height="141" viewBox="0 0 153 141" fill="none" xmlns="http://www.w3.org/2000/svg">
<path d="M115.1 16.3C122.4 22.1 125.6 33.4 128.9 43.3C132.1 53.1 135.5 61.6 141.1 73.2C146.7 84.9 154.6 99.8 151.8 110.6C149.1 121.3 135.7 127.9 122.7 130.7C109.8 133.5 97.4001 132.5 83.7001 134.8C70.0001 137 55.0001 142.4 42.6001 139.3C30.2001 136.2 20.5001 124.6 12.5001 111.6C4.50008 98.6 -1.69992 84.3 0.600081 71.3C2.90008 58.4 13.8001 46.7 21.6001 33.6C29.5001 20.4 34.4001 5.60004 44.5001 1.40004C54.6001 -2.79996 69.8001 3.50004 83.1001 6.80004C96.4001 10.2 107.8 10.5 115.1 16.3Z" fill="#E0EDD8"/>
</svg>
