<svg width="139" height="128" viewBox="0 0 139 128" fill="none" xmlns="http://www.w3.org/2000/svg">
<path d="M95.2007 17.8C106.201 18.3 120.301 19.5 128.401 26.5C136.401 33.5 138.601 46.2 138.101 58.7C137.601 71.2 134.401 83.4 127.601 92.6C120.801 101.8 110.401 108.1 99.8007 115.2C89.3007 122.4 78.6007 130.5 70.0007 127C61.4007 123.5 54.7007 108.5 41.6007 102.9C28.4007 97.2 8.80074 100.9 3.00074 95.1C-2.79926 89.4 5.30074 74.2 7.40074 60.2C9.40074 46.2 5.50074 33.4 8.00074 22.1C10.6007 10.7 19.7007 0.899975 30.7007 0.399975C41.8007 -2.46894e-05 54.9007 9.09998 65.5007 13.4C76.1007 17.8 84.1007 17.4 95.2007 17.8Z" fill="#E0EDD8"/>
</svg>
