<svg width="280" height="280" viewBox="0 0 280 280" fill="none" xmlns="http://www.w3.org/2000/svg">
<circle cx="140" cy="140" r="140" fill="#F7F7F7"/>
<path d="M122.724 85.8335L103.115 105.496" stroke="#333333" stroke-width="5" stroke-miterlimit="10" stroke-linecap="round" stroke-linejoin="round"/>
<path d="M157.282 85.8335L176.891 105.496" stroke="#333333" stroke-width="5" stroke-miterlimit="10" stroke-linecap="round" stroke-linejoin="round"/>
<path d="M85.833 117.521C85.833 107.5 91.1955 106.688 97.858 106.688H182.141C188.804 106.688 194.166 107.5 194.166 117.521C194.166 129.167 188.804 128.355 182.141 128.355H97.858C91.1955 128.355 85.833 129.167 85.833 117.521Z" stroke="#333333" stroke-width="5"/>
<path d="M127.865 150.833V170.063" stroke="#333333" stroke-width="5" stroke-linecap="round"/>
<path d="M152.785 150.833V170.063" stroke="#333333" stroke-width="5" stroke-linecap="round"/>
<path d="M93.958 129.167L101.596 175.966C103.329 186.475 107.5 194.167 122.991 194.167H155.654C172.5 194.167 174.991 186.8 176.941 176.617L186.041 129.167" stroke="#333333" stroke-width="5" stroke-linecap="round"/>
<circle cx="181.5" cy="179.5" r="23.5" fill="#333333"/>
<path d="M187.152 171.45C187.482 171.203 187.89 171.083 188.301 171.112C188.712 171.141 189.099 171.317 189.391 171.609C189.682 171.9 189.859 172.286 189.888 172.697C189.917 173.108 189.797 173.516 189.55 173.845L182.699 180.69C182.379 181.003 181.948 181.179 181.5 181.179C181.051 181.179 180.621 181.003 180.301 180.69L173.449 173.845C173.202 173.516 173.082 173.108 173.111 172.697C173.14 172.286 173.317 171.9 173.609 171.609C173.9 171.317 174.287 171.141 174.698 171.112C175.11 171.083 175.518 171.203 175.847 171.45L181.5 177.079L187.152 171.433L187.152 171.45Z" fill="white"/>
<path d="M175.847 187.551C175.517 187.798 175.109 187.918 174.698 187.889C174.287 187.86 173.9 187.683 173.608 187.392C173.317 187.101 173.14 186.714 173.111 186.303C173.082 185.892 173.202 185.485 173.449 185.155L180.3 178.311C180.621 177.997 181.051 177.822 181.499 177.822C181.948 177.822 182.378 177.997 182.698 178.311L189.55 185.155C189.797 185.485 189.917 185.892 189.888 186.303C189.859 186.714 189.682 187.101 189.39 187.392C189.099 187.683 188.712 187.86 188.301 187.889C187.889 187.918 187.481 187.798 187.152 187.551L181.499 181.921L175.847 187.568L175.847 187.551Z" fill="white"/>
</svg>
