<svg width="31" height="31" viewBox="0 0 31 31" fill="none" xmlns="http://www.w3.org/2000/svg">
<path d="M30.9068 9.10947C30.8314 7.45956 30.5693 6.33282 30.1862 5.34705C29.7971 4.31278 29.1869 3.37596 28.3984 2.60162C27.6243 1.8131 26.6872 1.20266 25.653 0.813362C24.6669 0.43045 23.5404 0.168632 21.8905 0.0936584C20.2376 0.0179749 19.7094 0 15.5 0C11.2906 0 10.7624 0.0179749 9.10947 0.0931854C7.45956 0.168632 6.33306 0.430687 5.34705 0.813835C4.31278 1.2029 3.37596 1.8131 2.60162 2.60162C1.8131 3.37572 1.20266 4.31255 0.813362 5.34681C0.43045 6.33282 0.168632 7.45956 0.0936584 9.10923C0.0179749 10.7624 0 11.2903 0 15.4998C0 19.7094 0.0179749 20.2376 0.0936584 21.8905C0.168869 23.5402 0.430923 24.6669 0.814072 25.653C1.20313 26.687 1.81333 27.624 2.60186 28.3981C3.37596 29.1867 4.31302 29.7969 5.34728 30.1859C6.33306 30.5693 7.4598 30.8311 9.1097 30.9066C10.7629 30.982 11.2908 30.9998 15.5002 30.9998C19.7097 30.9998 20.2378 30.982 21.8908 30.9066C23.5407 30.8311 24.6672 30.5693 25.6532 30.1859C27.7352 29.3808 29.3811 27.735 30.1862 25.653C30.5695 24.6669 30.8314 23.5402 30.9068 21.8905C30.982 20.2373 31 19.7094 31 15.5C31 11.2903 30.982 10.7624 30.9068 9.10947V9.10947ZM28.1167 21.7635C28.0479 23.2748 27.7953 24.0955 27.5831 24.6416C27.0616 25.9935 25.9933 27.0619 24.6414 27.5834C24.0953 27.7955 23.2746 28.0481 21.7633 28.1169C20.1292 28.1917 19.6389 28.2073 15.5 28.2073C11.3608 28.2073 10.8708 28.1917 9.23647 28.1169C7.7254 28.0481 6.90471 27.7955 6.35837 27.5834C5.68526 27.3348 5.07624 26.9386 4.57626 26.4237C4.06137 25.9238 3.66521 25.315 3.41664 24.6416C3.20449 24.0955 2.9519 23.2748 2.88307 21.7635C2.80857 20.1292 2.79272 19.6389 2.79272 15.5002C2.79272 11.3613 2.80857 10.8712 2.88307 9.23671C2.95213 7.7254 3.20449 6.90471 3.41664 6.3586C3.66521 5.68526 4.06161 5.07624 4.57626 4.57626C5.07624 4.06137 5.68526 3.66521 6.3586 3.41688C6.90471 3.20449 7.7254 2.95213 9.23671 2.88307C10.871 2.80857 11.3613 2.79272 15.5 2.79272H15.4998C19.6385 2.79272 20.1288 2.80857 21.7633 2.88331C23.2746 2.95213 24.0951 3.20473 24.6414 3.41688C25.3145 3.66545 25.9235 4.06161 26.4235 4.57626C26.9384 5.07624 27.3345 5.68526 27.5829 6.3586C27.7953 6.90471 28.0479 7.7254 28.1167 9.23671C28.1912 10.871 28.207 11.3613 28.207 15.5C28.207 19.6389 28.1914 20.129 28.1167 21.7635Z" fill="#6F6F6F"/>
<path d="M15.4998 7.54034C11.104 7.54034 7.54053 11.1041 7.54053 15.4999C7.54053 19.8957 11.104 23.4592 15.4998 23.4592C19.8959 23.4592 23.4594 19.8957 23.4594 15.4999C23.4594 11.1041 19.8959 7.54034 15.4998 7.54034V7.54034ZM15.4998 20.6665C12.6466 20.6662 10.3333 18.3532 10.3335 15.4997C10.3335 12.6464 12.6466 10.3331 15.5001 10.3331C18.3536 10.3333 20.6667 12.6464 20.6667 15.4997C20.6667 18.3532 18.3533 20.6665 15.4998 20.6665V20.6665Z" fill="#6F6F6F"/>
<path d="M25.6337 7.22613C25.6337 8.2533 24.8009 9.08605 23.7737 9.08605C22.7463 9.08605 21.9136 8.2533 21.9136 7.22613C21.9136 6.19872 22.7463 5.36597 23.7737 5.36597C24.8009 5.36597 25.6337 6.19872 25.6337 7.22613V7.22613Z" fill="#6F6F6F"/>
</svg>
