<svg width="160" height="34" viewBox="0 0 160 34" fill="none" xmlns="http://www.w3.org/2000/svg">
<circle cx="17" cy="17" r="17" fill="#6551CC"/>
<circle cx="21" cy="17" r="10" fill="white"/>
<path d="M56.4274 12.5559C55.7861 12.2265 55.0841 11.9405 54.3214 11.6979C53.5588 11.4552 52.8134 11.3339 52.0854 11.3339C51.0801 11.3339 50.2741 11.5679 49.6674 12.0359C49.0781 12.5039 48.7834 13.1279 48.7834 13.9079C48.7834 14.4972 48.9741 14.9999 49.3554 15.4159C49.7368 15.8145 50.2394 16.1612 50.8634 16.4559C51.4874 16.7505 52.1374 17.0279 52.8134 17.2879C53.4028 17.5132 53.9834 17.7645 54.5554 18.0419C55.1274 18.3192 55.6388 18.6659 56.0894 19.0819C56.5574 19.4979 56.9214 20.0092 57.1814 20.6159C57.4588 21.2225 57.5974 21.9765 57.5974 22.8779C57.5974 23.8659 57.3461 24.7672 56.8434 25.5819C56.3581 26.3965 55.6561 27.0379 54.7374 27.5059C53.8188 27.9739 52.7268 28.2079 51.4614 28.2079C50.6294 28.2079 49.8321 28.1125 49.0694 27.9219C48.3241 27.7312 47.6308 27.4885 46.9894 27.1939C46.3481 26.8819 45.7761 26.5612 45.2734 26.2319L46.3914 24.2559C46.8074 24.5505 47.2841 24.8365 47.8214 25.1139C48.3588 25.3739 48.9221 25.5905 49.5114 25.7639C50.1008 25.9199 50.6728 25.9979 51.2274 25.9979C51.8168 25.9979 52.3974 25.8939 52.9694 25.6859C53.5588 25.4605 54.0441 25.1225 54.4254 24.6719C54.8068 24.2212 54.9974 23.6232 54.9974 22.8779C54.9974 22.2365 54.8241 21.7079 54.4774 21.2919C54.1481 20.8585 53.7061 20.4945 53.1514 20.1999C52.5968 19.8879 52.0074 19.6105 51.3834 19.3679C50.7941 19.1425 50.1961 18.8999 49.5894 18.6399C48.9828 18.3625 48.4194 18.0332 47.8994 17.6519C47.3794 17.2532 46.9634 16.7679 46.6514 16.1959C46.3394 15.6239 46.1834 14.9305 46.1834 14.1159C46.1834 13.1279 46.4174 12.2699 46.8854 11.5419C47.3708 10.7965 48.0294 10.2159 48.8614 9.79987C49.6934 9.36654 50.6468 9.13254 51.7214 9.09787C52.9348 9.09787 54.0008 9.24521 54.9194 9.53987C55.8554 9.83454 56.6788 10.1985 57.3894 10.6319L56.4274 12.5559Z" fill="black"/>
<path d="M61.9143 27.9999L70.1303 8.42188H70.2863L78.4763 27.9999H75.5903L69.4543 12.3739L71.2483 11.2039L64.3843 27.9999H61.9143ZM66.7243 20.8759H73.7183L74.5503 23.0599H65.9963L66.7243 20.8759Z" fill="black"/>
<path d="M93.6907 12.5559C93.0494 12.2265 92.3474 11.9405 91.5847 11.6979C90.8221 11.4552 90.0767 11.3339 89.3487 11.3339C88.3434 11.3339 87.5374 11.5679 86.9307 12.0359C86.3414 12.5039 86.0467 13.1279 86.0467 13.9079C86.0467 14.4972 86.2374 14.9999 86.6187 15.4159C87.0001 15.8145 87.5027 16.1612 88.1267 16.4559C88.7507 16.7505 89.4007 17.0279 90.0767 17.2879C90.6661 17.5132 91.2467 17.7645 91.8187 18.0419C92.3907 18.3192 92.9021 18.6659 93.3527 19.0819C93.8207 19.4979 94.1847 20.0092 94.4447 20.6159C94.7221 21.2225 94.8607 21.9765 94.8607 22.8779C94.8607 23.8659 94.6094 24.7672 94.1067 25.5819C93.6214 26.3965 92.9194 27.0379 92.0007 27.5059C91.0821 27.9739 89.9901 28.2079 88.7247 28.2079C87.8927 28.2079 87.0954 28.1125 86.3327 27.9219C85.5874 27.7312 84.8941 27.4885 84.2527 27.1939C83.6114 26.8819 83.0394 26.5612 82.5367 26.2319L83.6547 24.2559C84.0707 24.5505 84.5474 24.8365 85.0847 25.1139C85.6221 25.3739 86.1854 25.5905 86.7747 25.7639C87.3641 25.9199 87.9361 25.9979 88.4907 25.9979C89.0801 25.9979 89.6607 25.8939 90.2327 25.6859C90.8221 25.4605 91.3074 25.1225 91.6887 24.6719C92.0701 24.2212 92.2607 23.6232 92.2607 22.8779C92.2607 22.2365 92.0874 21.7079 91.7407 21.2919C91.4114 20.8585 90.9694 20.4945 90.4147 20.1999C89.8601 19.8879 89.2707 19.6105 88.6467 19.3679C88.0574 19.1425 87.4594 18.8999 86.8527 18.6399C86.2461 18.3625 85.6827 18.0332 85.1627 17.6519C84.6427 17.2532 84.2267 16.7679 83.9147 16.1959C83.6027 15.6239 83.4467 14.9305 83.4467 14.1159C83.4467 13.1279 83.6807 12.2699 84.1487 11.5419C84.6341 10.7965 85.2927 10.2159 86.1247 9.79987C86.9567 9.36654 87.9101 9.13254 88.9847 9.09787C90.1981 9.09787 91.2641 9.24521 92.1827 9.53987C93.1187 9.83454 93.9421 10.1985 94.6527 10.6319L93.6907 12.5559Z" fill="black"/>
<path d="M99.5446 9.20187H112.025V11.6199H106.981V27.9999H104.459V11.6199H99.5446V9.20187Z" fill="black"/>
<path d="M122.972 9.20187C123.925 9.20187 124.801 9.33187 125.598 9.59188C126.413 9.83454 127.115 10.2072 127.704 10.7099C128.311 11.1952 128.779 11.8019 129.108 12.5299C129.455 13.2405 129.628 14.0725 129.628 15.0259C129.628 15.7712 129.515 16.4992 129.29 17.2099C129.082 17.9205 128.727 18.5705 128.224 19.1599C127.721 19.7319 127.063 20.1999 126.248 20.5639C125.451 20.9105 124.463 21.0839 123.284 21.0839H120.502V27.9999H117.98V9.20187H122.972ZM123.232 18.6659C123.977 18.6659 124.593 18.5532 125.078 18.3279C125.581 18.1025 125.971 17.8165 126.248 17.4699C126.525 17.1059 126.725 16.7159 126.846 16.2999C126.967 15.8839 127.028 15.4939 127.028 15.1299C127.028 14.7485 126.959 14.3585 126.82 13.9599C126.699 13.5439 126.491 13.1625 126.196 12.8159C125.919 12.4692 125.546 12.1832 125.078 11.9579C124.627 11.7325 124.073 11.6199 123.414 11.6199H120.502V18.6659H123.232ZM126.326 20.0959L131.24 27.9999H128.328L123.336 20.1739L126.326 20.0959Z" fill="black"/>
<path d="M135.197 27.9999L143.413 8.42188H143.569L151.759 27.9999H148.873L142.737 12.3739L144.531 11.2039L137.667 27.9999H135.197ZM140.007 20.8759H147.001L147.833 23.0599H139.279L140.007 20.8759Z" fill="black"/>
<path d="M157.249 9.20187H159.771V27.9999H157.249V9.20187Z" fill="black"/>
</svg>
