<?xml version="1.0" encoding="UTF-8" standalone="no"?>
<!DOCTYPE svg PUBLIC "-//W3C//DTD SVG 1.1//EN" "http://www.w3.org/Graphics/SVG/1.1/DTD/svg11.dtd">
<svg width="100%" height="100%" viewBox="0 0 292 50" version="1.1" xmlns="http://www.w3.org/2000/svg" xmlns:xlink="http://www.w3.org/1999/xlink" xml:space="preserve" xmlns:serif="http://www.serif.com/" style="fill-rule:evenodd;clip-rule:evenodd;stroke-linejoin:round;stroke-miterlimit:1.41421;">
    <rect id="Artboard1" x="0" y="0" width="291.064" height="50" style="fill:none;"/>
    <clipPath id="_clip1">
        <rect id="Artboard11" serif:id="Artboard1" x="0" y="0" width="291.064" height="50"/>
    </clipPath>
    <g clip-path="url(#_clip1)">
        <g transform="matrix(5.6844,0,0,5.6844,-167.673,-92.5454)">
            <g transform="matrix(12,0,0,12,29.461,24.8606)">
                <path d="M0.283,0.015C0.235,0.015 0.191,0.006 0.151,-0.013C0.111,-0.031 0.078,-0.057 0.052,-0.09C0.026,-0.123 0.01,-0.161 0.003,-0.205L0.159,-0.244C0.162,-0.204 0.175,-0.174 0.198,-0.154C0.221,-0.134 0.25,-0.124 0.286,-0.124C0.313,-0.124 0.336,-0.131 0.353,-0.144C0.37,-0.157 0.379,-0.177 0.379,-0.202C0.379,-0.218 0.37,-0.233 0.352,-0.247C0.333,-0.26 0.301,-0.276 0.256,-0.295C0.205,-0.316 0.165,-0.336 0.136,-0.357C0.107,-0.377 0.086,-0.4 0.073,-0.425C0.059,-0.45 0.053,-0.481 0.053,-0.517C0.053,-0.556 0.063,-0.59 0.082,-0.62C0.101,-0.65 0.127,-0.673 0.162,-0.69C0.196,-0.707 0.236,-0.715 0.281,-0.715C0.33,-0.715 0.374,-0.704 0.411,-0.681C0.449,-0.658 0.479,-0.625 0.501,-0.58L0.371,-0.499C0.36,-0.524 0.347,-0.544 0.331,-0.557C0.314,-0.57 0.296,-0.576 0.276,-0.576C0.257,-0.576 0.242,-0.571 0.229,-0.56C0.216,-0.549 0.21,-0.536 0.21,-0.52C0.21,-0.503 0.219,-0.487 0.237,-0.473C0.255,-0.459 0.288,-0.442 0.337,-0.423C0.388,-0.403 0.427,-0.384 0.456,-0.365C0.484,-0.346 0.504,-0.325 0.517,-0.302C0.529,-0.278 0.535,-0.249 0.535,-0.216C0.535,-0.171 0.524,-0.131 0.502,-0.096C0.48,-0.061 0.45,-0.033 0.411,-0.014C0.373,0.005 0.33,0.015 0.283,0.015Z" style="fill:white;fill-rule:nonzero;"/>
            </g>
            <g transform="matrix(12,0,0,12,36.013,24.8606)">
                <path d="M0.071,-0.697L0.228,-0.697L0.228,-0.432L0.499,-0.432L0.499,-0.697L0.656,-0.697L0.656,0L0.499,0L0.499,-0.288L0.228,-0.288L0.228,0L0.071,0L0.071,-0.697Z" style="fill:white;fill-rule:nonzero;"/>
            </g>
            <g transform="matrix(12,0,0,12,44.737,24.8606)">
                <path d="M0.362,0.018C0.295,0.018 0.236,0.003 0.185,-0.028C0.133,-0.059 0.093,-0.102 0.064,-0.157C0.035,-0.212 0.021,-0.276 0.021,-0.348C0.021,-0.421 0.035,-0.485 0.064,-0.54C0.093,-0.595 0.133,-0.638 0.185,-0.669C0.236,-0.7 0.295,-0.715 0.362,-0.715C0.429,-0.715 0.489,-0.7 0.541,-0.67C0.592,-0.639 0.632,-0.596 0.661,-0.541C0.69,-0.485 0.704,-0.421 0.704,-0.348C0.704,-0.275 0.69,-0.211 0.661,-0.156C0.632,-0.101 0.592,-0.058 0.54,-0.028C0.488,0.003 0.429,0.018 0.362,0.018ZM0.362,-0.132C0.419,-0.132 0.464,-0.151 0.497,-0.19C0.53,-0.229 0.546,-0.281 0.546,-0.348C0.546,-0.415 0.53,-0.468 0.497,-0.506C0.464,-0.546 0.419,-0.565 0.362,-0.565C0.305,-0.565 0.261,-0.546 0.228,-0.507C0.195,-0.468 0.178,-0.415 0.178,-0.348C0.178,-0.281 0.195,-0.228 0.228,-0.19C0.261,-0.151 0.305,-0.132 0.362,-0.132Z" style="fill:white;fill-rule:nonzero;"/>
            </g>
            <g transform="matrix(12,0,0,12,53.437,24.8606)">
                <path d="M0.071,-0.697L0.316,-0.697C0.477,-0.697 0.558,-0.629 0.558,-0.492C0.558,-0.423 0.538,-0.37 0.497,-0.334C0.456,-0.298 0.395,-0.28 0.316,-0.28L0.227,-0.28L0.227,0L0.071,0L0.071,-0.697ZM0.3,-0.424C0.335,-0.424 0.361,-0.429 0.377,-0.438C0.393,-0.447 0.401,-0.464 0.401,-0.49C0.401,-0.515 0.393,-0.532 0.378,-0.541C0.363,-0.549 0.337,-0.553 0.3,-0.553L0.227,-0.553L0.227,-0.424L0.3,-0.424Z" style="fill:white;fill-rule:nonzero;"/>
            </g>
            <g transform="matrix(12,0,0,12,60.193,24.8606)">
                <path d="M0.199,-0.553L-0.005,-0.553L-0.005,-0.697L0.561,-0.697L0.561,-0.553L0.358,-0.553L0.358,0L0.199,0L0.199,-0.553Z" style="fill:white;fill-rule:nonzero;"/>
            </g>
            <g transform="matrix(12,0,0,12,66.865,24.8606)">
                <path d="M0.071,-0.697L0.539,-0.697L0.539,-0.553L0.228,-0.553L0.228,-0.433L0.524,-0.433L0.524,-0.288L0.228,-0.288L0.228,-0.144L0.539,-0.144L0.539,0L0.071,0L0.071,-0.697Z" style="fill:white;fill-rule:nonzero;"/>
            </g>
            <g transform="matrix(12,0,0,12,73.969,24.8606)">
                <path d="M0.199,-0.553L-0.005,-0.553L-0.005,-0.697L0.561,-0.697L0.561,-0.553L0.358,-0.553L0.358,0L0.199,0L0.199,-0.553Z" style="fill:white;fill-rule:nonzero;"/>
            </g>
        </g>
    </g>
</svg>
