<?xml version="1.0" encoding="UTF-8" standalone="no"?>
<!DOCTYPE svg PUBLIC "-//W3C//DTD SVG 1.1//EN" "http://www.w3.org/Graphics/SVG/1.1/DTD/svg11.dtd">
<svg width="100%" height="100%" viewBox="0 0 489 386" version="1.1" xmlns="http://www.w3.org/2000/svg" xmlns:xlink="http://www.w3.org/1999/xlink" xml:space="preserve" xmlns:serif="http://www.serif.com/" style="fill-rule:evenodd;clip-rule:evenodd;stroke-linejoin:round;stroke-miterlimit:2;">
    <rect id="Artboard1" x="0" y="0" width="488.44" height="385.573" style="fill:none;"/>
    <g id="Artboard11" serif:id="Artboard1">
        <g transform="matrix(4.16667,0,0,4.16667,-61.6175,-61.0157)">
            <path d="M73.401,23.452C72.937,23.817 72.483,24.193 72.039,24.579C64.452,31.18 59.651,40.897 59.651,51.741C59.651,62.586 64.452,72.303 72.039,78.903C72.483,79.29 72.937,79.666 73.401,80.031C73.865,79.666 74.319,79.29 74.763,78.903C82.349,72.303 87.151,62.586 87.151,51.741C87.151,40.897 82.349,31.18 74.763,24.579C74.319,24.193 73.865,23.817 73.401,23.452ZM95.65,15.742C88.279,15.742 81.427,17.958 75.721,21.758C76.012,21.998 76.308,22.233 76.591,22.479C85.072,29.857 89.936,40.523 89.936,51.741C89.936,62.959 85.072,73.625 76.592,81.004C76.31,81.249 76.013,81.485 75.721,81.725C81.427,85.525 88.279,87.741 95.65,87.741C115.532,87.741 131.65,71.624 131.65,51.742C131.65,31.859 115.532,15.742 95.65,15.742ZM70.211,81.004C70.492,81.249 70.789,81.485 71.081,81.725C65.374,85.525 58.522,87.741 51.152,87.741C31.269,87.741 15.152,71.623 15.152,51.741C15.152,31.859 31.269,15.741 51.152,15.741C58.522,15.741 65.374,17.958 71.081,21.758C70.789,21.997 70.493,22.232 70.211,22.478C61.729,29.857 56.866,40.523 56.866,51.741C56.866,62.96 61.729,73.626 70.211,81.004ZM40.324,101.064C40.324,99.385 41.424,98.005 43.224,98.005C44.944,98.005 46.103,99.325 46.103,101.064C46.103,102.804 44.944,104.124 43.224,104.124C41.424,104.124 40.324,102.744 40.324,101.064ZM48.063,105.844L48.063,96.285L45.983,96.285L45.983,97.445C45.324,96.585 44.324,96.045 42.964,96.045C40.284,96.045 38.185,98.145 38.185,101.064C38.185,103.984 40.284,106.084 42.964,106.084C44.324,106.084 45.324,105.544 45.983,104.684L45.983,105.844L48.063,105.844ZM118.294,101.064C118.294,99.385 119.394,98.005 121.194,98.005C122.913,98.005 124.073,99.325 124.073,101.064C124.073,102.804 122.913,104.124 121.194,104.124C119.394,104.124 118.294,102.744 118.294,101.064ZM126.033,105.844L126.033,92.446L123.953,92.446L123.953,97.445C123.293,96.585 122.293,96.045 120.934,96.045C118.254,96.045 116.154,98.145 116.154,101.064C116.154,103.984 118.254,106.084 120.934,106.084C122.293,106.084 123.293,105.544 123.953,104.684L123.953,105.844L126.033,105.844ZM73.86,97.905C75.2,97.905 76.059,98.745 76.279,100.225L71.32,100.225C71.54,98.845 72.38,97.905 73.86,97.905ZM73.9,96.045C71.1,96.045 69.14,98.085 69.14,101.064C69.14,104.104 71.18,106.084 74.04,106.084C75.48,106.084 76.799,105.724 77.959,104.744L76.939,103.204C76.139,103.844 75.12,104.204 74.16,104.204C72.82,104.204 71.6,103.584 71.3,101.864L78.399,101.864C78.419,101.604 78.439,101.344 78.439,101.064C78.419,98.085 76.579,96.045 73.9,96.045ZM98.996,101.064C98.996,99.385 100.097,98.005 101.896,98.005C103.616,98.005 104.776,99.325 104.776,101.064C104.776,102.804 103.616,104.124 101.896,104.124C100.097,104.124 98.996,102.744 98.996,101.064ZM106.736,105.844L106.736,96.285L104.656,96.285L104.656,97.445C103.996,96.585 102.996,96.045 101.636,96.045C98.956,96.045 96.857,98.145 96.857,101.064C96.857,103.984 98.956,106.084 101.636,106.084C102.996,106.084 103.996,105.544 104.656,104.684L104.656,105.844L106.736,105.844ZM87.258,101.064C87.258,103.964 89.278,106.084 92.357,106.084C93.797,106.084 94.757,105.764 95.797,104.944L94.797,103.264C94.017,103.824 93.197,104.124 92.297,104.124C90.637,104.104 89.418,102.904 89.418,101.064C89.418,99.225 90.637,98.025 92.297,98.005C93.197,98.005 94.017,98.305 94.797,98.865L95.797,97.185C94.757,96.365 93.797,96.045 92.357,96.045C89.278,96.045 87.258,98.165 87.258,101.064ZM114.055,96.045C112.855,96.045 112.075,96.605 111.535,97.445L111.535,96.285L109.475,96.285L109.475,105.844L111.555,105.844L111.555,100.485C111.555,98.905 112.235,98.025 113.595,98.025C114.015,98.025 114.455,98.085 114.895,98.265L115.535,96.305C115.074,96.125 114.474,96.045 114.055,96.045ZM58.342,97.045C57.342,96.385 55.962,96.045 54.442,96.045C52.023,96.045 50.463,97.205 50.463,99.105C50.463,100.664 51.623,101.624 53.762,101.924L54.742,102.064C55.882,102.224 56.422,102.524 56.422,103.064C56.422,103.804 55.662,104.224 54.242,104.224C52.803,104.224 51.763,103.764 51.063,103.224L50.083,104.844C51.223,105.683 52.663,106.084 54.222,106.084C56.982,106.084 58.582,104.784 58.582,102.964C58.582,101.284 57.322,100.405 55.242,100.105L54.262,99.965C53.362,99.845 52.643,99.665 52.643,99.025C52.643,98.325 53.322,97.905 54.462,97.905C55.682,97.905 56.862,98.365 57.442,98.725L58.342,97.045ZM85.158,96.045C83.958,96.045 83.178,96.605 82.639,97.445L82.639,96.285L80.579,96.285L80.579,105.844L82.658,105.844L82.658,100.485C82.658,98.905 83.338,98.025 84.698,98.025C85.118,98.025 85.558,98.085 85.998,98.265L86.638,96.305C86.178,96.125 85.578,96.045 85.158,96.045ZM67.421,96.285L64.021,96.285L64.021,93.386L61.921,93.386L61.921,96.285L59.982,96.285L59.982,98.185L61.921,98.185L61.921,102.544C61.921,104.764 62.781,106.084 65.241,106.084C66.141,106.084 67.181,105.804 67.84,105.344L67.241,103.564C66.621,103.924 65.941,104.104 65.401,104.104C64.361,104.104 64.021,103.464 64.021,102.504L64.021,98.185L67.421,98.185L67.421,96.285ZM36.345,105.844L36.345,99.845C36.345,97.585 34.905,96.065 32.585,96.045C31.366,96.025 30.106,96.405 29.226,97.745C28.566,96.685 27.526,96.045 26.066,96.045C25.046,96.045 24.047,96.345 23.267,97.465L23.267,96.285L21.187,96.285L21.187,105.844L23.287,105.844L23.287,100.545C23.287,98.885 24.207,98.005 25.626,98.005C27.006,98.005 27.706,98.905 27.706,100.525L27.706,105.844L29.806,105.844L29.806,100.545C29.806,98.885 30.766,98.005 32.145,98.005C33.565,98.005 34.245,98.905 34.245,100.525L34.245,105.844L36.345,105.844Z" style="fill:white;fill-rule:nonzero;"/>
        </g>
    </g>
</svg>
