<svg width="32" height="24" viewBox="0 0 32 24" fill="none" xmlns="http://www.w3.org/2000/svg">
<path d="M31.3407 4.31834C30.9718 2.9475 29.891 1.86694 28.5204 1.4978C26.0162 0.8125 15.9997 0.8125 15.9997 0.8125C15.9997 0.8125 5.98337 0.8125 3.47923 1.47168C2.135 1.84057 1.02783 2.94774 0.658933 4.31834C0 6.82224 0 12.0151 0 12.0151C0 12.0151 0 17.2341 0.658933 19.7118C1.02807 21.0824 2.10863 22.1632 3.47948 22.5324C6.00974 23.2177 15.9999 23.2177 15.9999 23.2177C15.9999 23.2177 26.0162 23.2177 28.5204 22.5585C29.8912 22.1896 30.9718 21.1088 31.3409 19.7382C31.9999 17.2341 31.9999 12.0415 31.9999 12.0415C31.9999 12.0415 32.0262 6.82224 31.3407 4.31834Z" fill="#6F6F6F"/>
<path d="M12.8105 16.8125L21.1399 12.0151L12.8105 7.21777V16.8125Z" fill="white"/>
</svg>
