<svg width="260" height="260" viewBox="0 0 260 260" fill="none" xmlns="http://www.w3.org/2000/svg">
<circle cx="130" cy="130" r="130" fill="#FAFAFA"/>
<g opacity="0.2">
<path d="M157.475 155.025L81.6418 79.1916C80.5433 78.0932 79.0535 77.4761 77.5001 77.4761C75.9467 77.4761 74.4569 78.0932 73.3584 79.1916C72.26 80.29 71.6429 81.7798 71.6429 83.3333C71.6429 84.8867 72.26 86.3765 73.3584 87.4749L92.9585 107.017C91.2352 110.712 90.0751 114.644 89.5168 118.683C83.534 119.597 78.1404 122.8 74.4744 127.615C70.8084 132.431 69.1569 138.482 69.8684 144.492C70.58 150.502 73.5989 156.001 78.288 159.827C82.977 163.654 88.9694 165.508 95.0001 165H150.942L166.692 180.808C167.234 181.355 167.879 181.789 168.59 182.085C169.301 182.381 170.063 182.534 170.833 182.534C171.604 182.534 172.366 182.381 173.077 182.085C173.788 181.789 174.433 181.355 174.975 180.808C175.522 180.266 175.956 179.621 176.252 178.91C176.548 178.199 176.701 177.437 176.701 176.667C176.701 175.897 176.548 175.134 176.252 174.423C175.956 173.712 175.522 173.067 174.975 172.525L157.475 155.025ZM95.0001 153.333C91.9059 153.333 88.9385 152.104 86.7505 149.916C84.5626 147.728 83.3335 144.761 83.3335 141.667C83.3335 138.572 84.5626 135.605 86.7505 133.417C88.9385 131.229 91.9059 130 95.0001 130C96.5472 130 98.0309 129.385 99.1249 128.291C100.219 127.197 100.833 125.714 100.833 124.167C100.839 121.422 101.232 118.693 102 116.058L139.275 153.333H95.0001ZM167.45 107.95C164.288 100.642 159.058 94.4185 152.404 90.0447C145.75 85.671 137.963 83.3382 130 83.3333C125.387 83.3111 120.806 84.1009 116.467 85.6666C115.137 86.2676 114.08 87.3454 113.506 88.6873C112.931 90.0292 112.881 91.5376 113.364 92.9149C113.848 94.2921 114.83 95.438 116.117 96.1264C117.404 96.8148 118.903 96.9957 120.317 96.6333C123.426 95.5354 126.702 94.9829 130 94.9999C136.088 95.0044 142.021 96.9136 146.969 100.46C151.917 104.006 155.632 109.012 157.592 114.775C157.925 115.777 158.525 116.67 159.326 117.359C160.127 118.047 161.101 118.505 162.142 118.683C165.108 119.208 167.889 120.49 170.214 122.404C172.54 124.318 174.332 126.801 175.418 129.611C176.503 132.421 176.845 135.463 176.409 138.444C175.974 141.425 174.777 144.243 172.933 146.625C171.98 147.834 171.543 149.371 171.717 150.901C171.892 152.43 172.665 153.829 173.867 154.792C174.893 155.615 176.168 156.067 177.483 156.075C178.36 156.071 179.224 155.87 180.011 155.486C180.799 155.102 181.49 154.546 182.033 153.858C184.958 150.12 186.927 145.725 187.768 141.054C188.609 136.383 188.298 131.578 186.861 127.054C185.424 122.531 182.905 118.427 179.522 115.097C176.14 111.768 171.996 109.315 167.45 107.95Z" fill="black"/>
</g>
</svg>
