<svg clip-rule="evenodd" fill-rule="evenodd" stroke-linejoin="round" stroke-miterlimit="1.41421" viewBox="0 0 50 50" xmlns="http://www.w3.org/2000/svg"><g fill-rule="nonzero" transform="scale(.0976562)"><path d="m341.476 338.285c54.483-85.493 47.634-74.827 49.204-77.056 19.836-27.978 30.32-60.907 30.32-95.229 0-91.02-73.861-166-165-166-90.842 0-165 74.832-165 166 0 34.3 10.704 68.091 31.19 96.446l48.332 75.84c-51.675 7.941-139.522 31.606-139.522 83.714 0 18.995 12.398 46.065 71.462 67.159 41.242 14.729 95.769 22.841 153.538 22.841 108.025 0 225-30.472 225-90 0-52.117-87.744-75.757-139.524-83.715zm-194.227-92.34c-.165-.258-.337-.51-.517-.758-17.047-23.452-25.732-51.246-25.732-79.187 0-75.018 60.406-136 135-136 74.439 0 135 61.009 135 136 0 27.986-8.521 54.837-24.646 77.671-1.445 1.906 6.094-9.806-110.354 172.918zm108.751 236.055c-117.994 0-195-34.683-195-60 0-17.016 39.568-44.995 127.248-55.901l55.102 86.463c2.754 4.322 7.524 6.938 12.649 6.938s9.896-2.617 12.649-6.938l55.101-86.463c87.682 10.906 127.251 38.885 127.251 55.901 0 25.102-76.313 60-195 60z"/><path d="m256 91c-41.355 0-75 33.645-75 75s33.645 75 75 75 75-33.645 75-75-33.645-75-75-75zm0 120c-24.813 0-45-20.187-45-45s20.187-45 45-45 45 20.187 45 45-20.187 45-45 45z"/></g></svg>