<svg width="48" height="30" viewBox="0 0 48 30" fill="none" xmlns="http://www.w3.org/2000/svg">
<path d="M43.0394 0.00565407H4.12368H3.7192C3.42447 0.00901878 3.13041 0.034545 2.83951 0.0820229C2.544 0.132972 2.25791 0.228338 1.99093 0.364882C1.461 0.634596 1.03021 1.06538 0.760496 1.59532C0.623751 1.86221 0.528375 2.14834 0.477638 2.4439C0.429073 2.73471 0.402598 3.02878 0.398438 3.32359C0.398438 3.45936 0.398438 3.60645 0.398438 3.72808C0.398438 3.84971 0.398438 4.0477 0.398438 4.20893V25.7967C0.398438 25.958 0.398438 26.1164 0.398438 26.2776C0.398438 26.4388 0.398438 26.5604 0.398438 26.6821C0.402587 26.9769 0.429062 27.2709 0.477638 27.5618C0.528375 27.8573 0.623751 28.1434 0.760496 28.4103C1.03021 28.9403 1.461 29.3711 1.99093 29.6408C2.25784 29.7775 2.54396 29.8729 2.83951 29.9236C3.13043 29.9709 3.42448 29.9965 3.7192 30H4.12368H43.5174H43.9219C44.2166 29.9964 44.5107 29.9709 44.8016 29.9236C45.0972 29.8728 45.3833 29.7774 45.6502 29.6408C46.1801 29.3711 46.6109 28.9403 46.8806 28.4103C47.0176 28.1435 47.113 27.8574 47.1635 27.5618C47.2111 27.2709 47.2367 26.9768 47.2399 26.6821C47.2399 26.5482 47.2399 26.4134 47.2399 26.2776C47.2399 26.1164 47.2399 25.958 47.2399 25.7967V4.20328C47.2399 4.04205 47.2399 3.88365 47.2399 3.72242C47.2399 3.56119 47.2399 3.43956 47.2399 3.31793C47.2366 3.02319 47.2111 2.72912 47.1635 2.43824C47.113 2.14262 47.0176 1.85645 46.8806 1.58967C46.6109 1.05973 46.1801 0.628942 45.6502 0.359228C45.3832 0.222724 45.0971 0.12736 44.8016 0.0763688C44.5107 0.0289544 44.2167 0.0034286 43.9219 0H43.5174L43.0394 0.00565407Z" fill="black"/>
<path d="M43.0396 1.00977H43.5119H43.8966C44.1411 1.01262 44.385 1.03342 44.6264 1.07199C44.8232 1.10444 45.0139 1.16644 45.1921 1.25586C45.5335 1.43039 45.8108 1.70867 45.9841 2.05069C46.0731 2.22889 46.1341 2.41969 46.1652 2.61641C46.2038 2.85781 46.2246 3.10172 46.2274 3.34618C46.2274 3.47347 46.2274 3.60076 46.2274 3.73087C46.2274 3.86099 46.2274 4.04484 46.2274 4.20324V25.791C46.2274 25.9494 46.2274 26.105 46.2274 26.2662C46.2274 26.4275 46.2274 26.5208 46.2274 26.6481C46.2248 26.8935 46.204 27.1384 46.1652 27.3807C46.1342 27.5775 46.0731 27.7683 45.9841 27.9464C45.8101 28.2889 45.5317 28.5672 45.1893 28.7413C45.0112 28.831 44.8204 28.893 44.6236 28.9251C44.3831 28.9632 44.1401 28.984 43.8966 28.9873H43.5063H4.12951H3.74765C3.50321 28.9841 3.25933 28.9633 3.01788 28.9251C2.82106 28.8929 2.6303 28.8309 2.45216 28.7413C2.11119 28.5675 1.83395 28.2902 1.66015 27.9492C1.57044 27.7711 1.50844 27.5803 1.47629 27.3835C1.43752 27.1421 1.41672 26.8982 1.41406 26.6538C1.41406 26.5265 1.41406 26.3992 1.41406 26.2719V3.73087C1.41406 3.60359 1.41406 3.4763 1.41406 3.34618C1.41661 3.10078 1.43741 2.8559 1.47629 2.61358C1.5084 2.41674 1.5704 2.22597 1.66015 2.04786C1.83395 1.70689 2.11119 1.42966 2.45216 1.25586C2.6304 1.16644 2.82112 1.10444 3.01788 1.07199C3.25928 1.03339 3.50319 1.01259 3.74765 1.00977H4.12951H43.0396Z" fill="white"/>
<path d="M13.1973 10.0926C13.6322 9.57282 13.8482 8.90447 13.7998 8.22852C13.1343 8.292 12.5192 8.61022 12.0828 9.11669C11.8662 9.35919 11.7002 9.64244 11.5943 9.94986C11.4884 10.2573 11.4449 10.5827 11.4662 10.9072C11.7982 10.9131 12.127 10.8424 12.4272 10.7006C12.7274 10.5588 12.9909 10.3498 13.1973 10.0897" fill="black"/>
<path d="M13.7871 11.037C12.831 10.9804 12.0164 11.5801 11.561 11.5801C11.1056 11.5801 10.4041 11.0653 9.64885 11.0794C9.15685 11.0925 8.67679 11.2338 8.25612 11.4893C7.83545 11.7448 7.48873 12.1056 7.2502 12.5361C6.22342 14.3068 6.96734 16.9346 7.97715 18.38C8.46367 19.0928 9.04635 19.8791 9.81855 19.8508C10.5455 19.8226 10.8312 19.3785 11.7165 19.3785C12.6019 19.3785 12.848 19.8508 13.6287 19.8367C14.4094 19.8226 14.927 19.1211 15.4135 18.4083C15.7583 17.902 16.0279 17.3484 16.214 16.7649C15.7548 16.5643 15.3635 16.2351 15.0874 15.817C14.8114 15.3988 14.6623 14.9097 14.6583 14.4086C14.6643 13.9636 14.7826 13.5273 15.0022 13.1402C15.2217 12.753 15.5354 12.4275 15.9142 12.1939C15.6722 11.8507 15.3545 11.5678 14.9856 11.3672C14.6167 11.1666 14.2066 11.0536 13.7871 11.037Z" fill="black"/>
<path d="M22.126 9.05713C24.205 9.05713 25.6532 10.4912 25.6532 12.5759C25.6532 14.6606 24.1767 16.1116 22.0751 16.1116H19.7726V19.7718H18.1094V9.05713H22.126ZM19.7726 14.7143H21.6819C23.1301 14.7143 23.9448 13.9336 23.9448 12.5844C23.9448 11.2351 23.1216 10.4601 21.6819 10.4601H19.7669L19.7726 14.7143Z" fill="black"/>
<path d="M26.0859 17.5426C26.0859 16.1764 27.1325 15.3363 28.9909 15.2317L31.1293 15.1044V14.5019C31.1293 13.6335 30.5438 13.113 29.5623 13.113C28.6345 13.113 28.0546 13.5571 27.9132 14.2445H26.3971C26.4848 12.8302 27.6897 11.7949 29.6188 11.7949C31.5479 11.7949 32.7303 12.7962 32.7303 14.3633V19.7376H31.1774V18.476H31.1406C30.8939 18.9111 30.5348 19.2719 30.1009 19.5207C29.667 19.7695 29.1742 19.8972 28.6741 19.8903C27.1495 19.896 26.0859 18.9569 26.0859 17.5426ZM31.1293 16.8383V16.2217L29.2059 16.3405C28.247 16.4084 27.7067 16.8298 27.7067 17.5002C27.7067 18.1706 28.2724 18.6316 29.121 18.6316C30.2468 18.626 31.1237 17.8538 31.1237 16.8355L31.1293 16.8383Z" fill="black"/>
<path d="M34.1685 22.6346V21.3362C34.3408 21.3609 34.515 21.3704 34.6889 21.3645C35.4329 21.3645 35.8204 21.0534 36.0778 20.2501C36.0778 20.2359 36.2192 19.7748 36.2192 19.7664L33.3906 11.9453H35.1359L37.1159 18.3012H37.1441L39.1242 11.9453H40.8213L37.8966 20.1652C37.229 22.0604 36.4568 22.6685 34.836 22.6685C34.6131 22.6692 34.3902 22.6579 34.1685 22.6346Z" fill="black"/>
</svg>
