<svg width="103" height="16" viewBox="0 0 103 16" fill="none" xmlns="http://www.w3.org/2000/svg">
<path d="M21.209 7.97797V15.4559L24.3151 15.3775C27.892 15.2979 28.567 15.1236 29.6019 14.0933C30.3404 13.3491 30.6219 12.5414 30.6219 11.2098C30.6058 9.53103 29.8373 8.4372 28.2681 7.8672C27.8297 7.70913 27.4835 7.5499 27.4835 7.50259C27.4997 7.45529 27.8447 7.2649 28.2681 7.05952C30.7165 5.90223 30.465 2.0519 27.8758 0.895764C27.3739 0.674228 26.6839 0.610768 24.2366 0.563461L21.209 0.5V7.97797ZM27.4212 1.81537C29.3827 2.79728 29.3827 5.6807 27.4062 6.71107C26.6839 7.07452 26.4797 7.10683 24.4247 7.10683H22.229L22.1817 4.41379C22.1655 2.94035 22.1817 1.62498 22.2278 1.51422C22.2913 1.32383 22.7147 1.29268 24.4882 1.35499C26.3862 1.41845 26.7474 1.46691 27.4212 1.81537ZM27.9081 8.54796C28.6454 8.91257 28.8808 9.15026 29.1785 9.72141C29.8223 11.0045 29.5869 12.6521 28.6454 13.5556C27.8608 14.2998 27.0601 14.474 24.4882 14.474H22.1505V11.3368C22.1505 9.60949 22.1967 8.13605 22.2751 8.07374C22.3386 7.99297 23.4209 7.97797 24.6912 8.01028C26.8408 8.08874 27.0451 8.12105 27.9081 8.54796ZM44.1137 7.96182V15.4248H45.0552L45.024 8.01028L44.9779 0.610769L44.5533 0.563461L44.1148 0.516154L44.1137 7.96182ZM49.3232 1.75191C48.5536 2.94035 48.4601 3.22535 48.8836 3.22535C49.134 3.22535 51.174 0.975379 51.174 0.706537C51.174 0.610769 50.9386 0.531153 50.6409 0.531153C50.154 0.531153 50.0605 0.62692 49.3232 1.75191ZM52.7432 7.99413V15.4409L53.2289 15.3925L53.7308 15.3463L53.6997 13.6502L53.6685 11.9702L54.6412 10.8775C55.1743 10.2914 55.6612 9.78487 55.7235 9.75256C55.787 9.72141 56.7123 10.9883 57.7785 12.5725C59.5046 15.1225 59.7561 15.4248 60.1484 15.4248C60.3988 15.4248 60.5869 15.3452 60.5869 15.2183C60.5869 15.1075 59.6615 13.6664 58.5481 12.0187C57.4173 10.371 56.5243 8.97603 56.5404 8.91257C56.5704 8.84911 57.4173 7.8672 58.4385 6.72607C59.4423 5.60108 60.2731 4.60302 60.2731 4.50841C60.2731 4.41379 60.085 4.33418 59.8496 4.35033C59.4896 4.35033 58.9242 4.90417 56.665 7.43913C55.1593 9.11911 53.8728 10.5129 53.7943 10.5129C53.7308 10.5129 53.6847 8.34258 53.6847 5.6807C53.6997 3.01881 53.6524 0.768844 53.6062 0.690383C53.5589 0.594615 53.3385 0.531153 53.1193 0.531153H52.7432V7.99413ZM35.5638 4.33418C33.7915 4.71494 33.1004 5.18916 33.3519 5.85492C33.4304 6.04531 33.5711 6.013 34.215 5.68185C35.7046 4.88917 37.823 4.77725 38.9053 5.45916C39.6114 5.88608 39.878 6.6153 39.878 8.13605V9.40411L39.2203 9.29334C38.843 9.21372 37.8068 9.16642 36.8976 9.16642C35.4542 9.16642 35.1403 9.21372 34.3707 9.57833C33.383 10.0537 32.8973 10.6399 32.6769 11.6379C32.3481 13.0952 33.0542 14.5686 34.3719 15.1548C35.8303 15.8044 38.3099 15.4086 39.2664 14.3794C39.7372 13.8717 39.878 13.904 39.878 14.5213C39.878 15.1075 40.1133 15.4248 40.5368 15.4248C40.8033 15.4248 40.8195 15.1548 40.8195 10.941C40.8195 6.6153 40.8033 6.44107 40.4733 5.76031C39.9564 4.72994 39.1257 4.31802 37.478 4.23956C36.7718 4.20726 35.9088 4.25456 35.5638 4.33418ZM39.2503 10.0226L39.7995 10.1333L39.8468 11.5756L39.893 13.0006L39.2976 13.5233C38.3884 14.331 37.4468 14.6956 36.2699 14.6956C35.0307 14.6956 34.3396 14.331 33.9011 13.4921C33.3207 12.351 33.6496 10.9572 34.6534 10.3387C35.4853 9.81602 37.5091 9.6741 39.2503 10.0226ZM64.9022 4.38148C62.2657 5.26993 60.933 7.72413 61.3877 10.9087C61.6703 12.9856 62.8461 14.6171 64.4626 15.1709C65.4976 15.5356 67.286 15.5033 68.306 15.1075C70.3771 14.331 71.5541 12.1295 71.3648 9.40411C71.1456 6.26684 69.4668 4.41379 66.6745 4.23956C65.9684 4.20726 65.2934 4.25456 64.9022 4.38148ZM67.6945 5.18917C68.6091 5.52809 69.3606 6.20208 69.7968 7.07452C70.1418 7.75528 70.2352 8.16835 70.2825 9.45141C70.3921 12.0337 69.7806 13.4598 68.1964 14.2363C66.0468 15.2979 63.7092 14.5052 62.7676 12.3671C62.4388 11.6541 62.3915 11.3056 62.3915 9.79987C62.3915 7.77259 62.658 6.99606 63.6469 6.02915C64.6195 5.0784 66.3607 4.71379 67.6945 5.18917ZM87.6188 4.41379C86.6611 4.68263 85.6573 5.15801 84.9523 5.69685C84.6846 5.90223 84.4181 6.07761 84.3708 6.07761C84.3246 6.07761 84.2773 5.69685 84.2462 5.23763C84.1989 4.4761 84.1677 4.41379 83.7754 4.36533L83.3358 4.31918V15.4248H84.2773V7.05952L84.7481 6.64761C85.0135 6.44107 85.6896 6.013 86.27 5.728C87.5715 5.0784 89.4857 4.90417 90.1757 5.36339C90.9603 5.87108 91.0238 6.3303 91.0238 11.0679V15.4248H91.9803L91.9342 10.6087C91.8857 6.013 91.8707 5.76031 91.5569 5.34724C90.9765 4.55571 90.4896 4.30302 89.4384 4.23956C88.843 4.20726 88.1057 4.27187 87.6188 4.41379ZM97.0168 4.41379C95.6668 4.72994 94.9456 5.12686 94.9456 5.52147C94.9456 5.713 94.9918 5.90223 95.0391 5.95069C95.0864 6.013 95.5883 5.82377 96.1699 5.55378C97.0629 5.12686 97.3929 5.0634 98.5537 5.0634C100.092 5.04724 100.641 5.25263 101.173 6.06146C101.488 6.52068 101.535 6.80568 101.535 8.01028V9.40411L100.876 9.29334C100.499 9.21372 99.4479 9.16642 98.5387 9.16642C97.0006 9.16642 96.8125 9.19757 95.9656 9.6418C94.8349 10.2279 94.318 11.0679 94.318 12.3187C94.3341 14.5225 96.1525 15.8367 98.6333 15.4248C99.6833 15.2506 99.9187 15.1548 100.798 14.5213L101.535 13.9675V14.5213C101.535 15.1075 101.833 15.4883 102.24 15.3925C102.459 15.3463 102.492 14.8386 102.492 10.8775C102.476 5.91839 102.446 5.63339 101.503 4.92032C100.577 4.1911 98.7268 3.98687 97.0168 4.41379ZM100.986 10.0214L101.457 10.1333L101.503 11.5433C101.55 12.8898 101.535 12.9533 101.111 13.3964C100.358 14.204 99.2437 14.6794 98.0829 14.6956C96.7029 14.7117 96.0118 14.3471 95.5572 13.4125C95.3068 12.8737 95.2433 12.5414 95.3218 12.0025C95.4314 11.1314 95.6679 10.7345 96.3256 10.3226C97.1264 9.81602 99.5264 9.67179 100.986 10.0214ZM48.5075 9.87948V15.4248H49.4478V10.0699C49.4478 4.5084 49.4328 4.33418 48.7901 4.33418C48.5224 4.33418 48.5075 4.65148 48.5075 9.87948ZM72.2602 4.68263C72.3063 4.88917 73.264 7.35952 74.3625 10.1968C76.3701 15.2817 76.4013 15.3452 76.8559 15.3925C77.2805 15.4409 77.359 15.3775 77.6094 14.759C79.1936 10.7506 81.4528 4.7784 81.4528 4.58802C81.4528 4.42879 81.312 4.33418 81.0766 4.33418C80.6693 4.33418 80.7478 4.15995 77.7974 11.8445C77.3267 13.0479 76.9032 13.9825 76.8559 13.904C76.8098 13.8244 75.994 11.7325 75.0213 9.24603C74.0486 6.75837 73.2329 4.63533 73.1856 4.52456C73.1383 4.42879 72.8867 4.33418 72.6363 4.33418C72.2279 4.33418 72.1817 4.38148 72.2602 4.68263Z" fill="#002677"/>
<path fill-rule="evenodd" clip-rule="evenodd" d="M0.954102 9.15332H6.72325V14.9225H0.954102V9.15332Z" fill="#002776"/>
<path fill-rule="evenodd" clip-rule="evenodd" d="M9.03125 9.15332H14.8004V14.9225H9.03125V9.15332Z" fill="#12A3D2"/>
<path fill-rule="evenodd" clip-rule="evenodd" d="M9.03125 1.07666H14.8004V6.84581H9.03125V1.07666Z" fill="#FAD90D"/>
</svg>
