<svg width="14" height="14" viewBox="0 0 14 14" fill="none" xmlns="http://www.w3.org/2000/svg">
<path d="M4.33333 3.66667V1M9.66667 3.66667V1M3.66667 6.33333H10.3333M2.33333 13H11.6667C12.0203 13 12.3594 12.8595 12.6095 12.6095C12.8595 12.3594 13 12.0203 13 11.6667V3.66667C13 3.31304 12.8595 2.97391 12.6095 2.72386C12.3594 2.47381 12.0203 2.33333 11.6667 2.33333H2.33333C1.97971 2.33333 1.64057 2.47381 1.39052 2.72386C1.14048 2.97391 1 3.31304 1 3.66667V11.6667C1 12.0203 1.14048 12.3594 1.39052 12.6095C1.64057 12.8595 1.97971 13 2.33333 13Z" stroke="#344251" stroke-linecap="round" stroke-linejoin="round"/>
</svg>
