<svg width="24" height="24" viewBox="0 0 24 24" fill="none" xmlns="http://www.w3.org/2000/svg">
<path d="M8.81006 2L5.18994 5.63" stroke="#333333" stroke-width="1.5" stroke-miterlimit="10" stroke-linecap="round" stroke-linejoin="round"/>
<path d="M15.1899 2L18.8101 5.63" stroke="#333333" stroke-width="1.5" stroke-miterlimit="10" stroke-linecap="round" stroke-linejoin="round"/>
<path d="M2 7.85C2 6 2.99 5.85 4.22 5.85H19.78C21.01 5.85 22 6 22 7.85C22 10 21.01 9.85 19.78 9.85H4.22C2.99 9.85 2 10 2 7.85Z" stroke="#333333" stroke-width="1.5"/>
<path d="M9.75977 14V17.55" stroke="#333333" stroke-width="1.5" stroke-linecap="round"/>
<path d="M14.3604 14V17.55" stroke="#333333" stroke-width="1.5" stroke-linecap="round"/>
<path d="M3.5 10L4.91 18.64C5.23 20.58 6 22 8.86 22H14.89C18 22 18.46 20.64 18.82 18.76L20.5 10" stroke="#333333" stroke-width="1.5" stroke-linecap="round"/>
</svg>
