<svg width="16" height="16" viewBox="0 0 16 16" fill="none" xmlns="http://www.w3.org/2000/svg">
<path d="M8 0C3.58214 0 0 3.58214 0 8C0 12.4179 3.58214 16 8 16C12.4179 16 16 12.4179 16 8C16 3.58214 12.4179 0 8 0ZM8 14.6429C4.33214 14.6429 1.35714 11.6679 1.35714 8C1.35714 4.33214 4.33214 1.35714 8 1.35714C11.6679 1.35714 14.6429 4.33214 14.6429 8C14.6429 11.6679 11.6679 14.6429 8 14.6429Z" fill="#50AC58"/>
<path d="M8.00028 1.35693C4.33242 1.35693 1.35742 4.33193 1.35742 7.99979C1.35742 11.6676 4.33242 14.6426 8.00028 14.6426C11.6681 14.6426 14.6431 11.6676 14.6431 7.99979C14.6431 4.33193 11.6681 1.35693 8.00028 1.35693ZM11.4539 5.38729L7.69314 10.6016C7.64057 10.6749 7.57128 10.7347 7.49101 10.776C7.41073 10.8172 7.32178 10.8387 7.23153 10.8387C7.14128 10.8387 7.05233 10.8172 6.97205 10.776C6.89178 10.7347 6.82248 10.6749 6.76992 10.6016L4.54492 7.51586C4.47706 7.42122 4.54492 7.28908 4.66099 7.28908H5.49849C5.68242 7.28908 5.85385 7.37836 5.96099 7.52658L7.23242 9.29086L10.0396 5.398C10.1467 5.248 10.3199 5.16051 10.5021 5.16051H11.3396C11.4556 5.16051 11.5235 5.29265 11.4539 5.38729V5.38729Z" fill="#E5F3E6"/>
<path d="M11.3393 5.16064H10.5018C10.3196 5.16064 10.1464 5.24814 10.0393 5.39814L7.2321 9.291L5.96067 7.52672C5.85352 7.3785 5.68209 7.28922 5.49816 7.28922H4.66066C4.54459 7.28922 4.47673 7.42136 4.54459 7.516L6.7696 10.6017C6.82216 10.6751 6.89145 10.7349 6.97173 10.7761C7.05201 10.8173 7.14096 10.8388 7.23121 10.8388C7.32146 10.8388 7.41041 10.8173 7.49068 10.7761C7.57096 10.7349 7.64025 10.6751 7.69281 10.6017L11.4535 5.38743C11.5232 5.29279 11.4553 5.16064 11.3393 5.16064Z" fill="#50AC58"/>
</svg>
