<svg width="16" height="16" viewBox="0 0 16 16" fill="none" xmlns="http://www.w3.org/2000/svg">
<circle cx="8" cy="8" r="8" fill="#14406D" fill-opacity="0.1"/>
<path d="M11.3393 5.16071H10.5018C10.3196 5.16071 10.1464 5.24821 10.0393 5.39821L7.2321 9.29106L5.96067 7.52678C5.85352 7.37856 5.68209 7.28928 5.49816 7.28928H4.66066C4.54459 7.28928 4.47673 7.42142 4.54459 7.51606L6.7696 10.6018C6.82216 10.6751 6.89145 10.7349 6.97173 10.7762C7.05201 10.8174 7.14096 10.8389 7.23121 10.8389C7.32146 10.8389 7.41041 10.8174 7.49068 10.7762C7.57096 10.7349 7.64025 10.6751 7.69281 10.6018L11.4535 5.38749C11.5232 5.29285 11.4553 5.16071 11.3393 5.16071V5.16071Z" fill="#14406D"/>
</svg>
