<svg width="18" height="18" viewBox="0 0 18 18" fill="none" xmlns="http://www.w3.org/2000/svg">
<rect width="18" height="18" rx="9" fill="#50AC58" fill-opacity="0.12"/>
<path d="M13.816 6H12.7336C12.4982 6 12.2744 6.10787 12.1359 6.29279L8.5081 11.0918L6.86497 8.91686C6.7265 8.73414 6.50496 8.62407 6.26726 8.62407H5.18491C5.03491 8.62407 4.94721 8.78697 5.03491 8.90365L7.91039 12.7077C7.97832 12.7981 8.06786 12.8718 8.17161 12.9226C8.27536 12.9735 8.39031 13 8.50694 13C8.62358 13 8.73853 12.9735 8.84228 12.9226C8.94602 12.8718 9.03557 12.7981 9.1035 12.7077L13.9637 6.27958C14.0537 6.1629 13.966 6 13.816 6V6Z" fill="#50AC58"/>
</svg>
