<svg width="126" height="30" viewBox="0 0 126 30" fill="none" xmlns="http://www.w3.org/2000/svg">
<path d="M9.26871 8.76771C10.626 8.58154 12.0084 8.69655 13.315 9.10438C13.2285 9.87421 13.1148 10.6384 12.9738 11.397C11.7592 11.2859 10.5003 10.9729 9.30624 11.3432C8.67166 11.5553 8.43285 12.2488 8.41579 12.8548C8.39191 13.9456 8.41579 15.0397 8.41579 16.1305C8.37554 16.6337 8.45256 17.1392 8.64096 17.6085C8.75674 17.7985 8.9138 17.9607 9.10082 18.0836C9.28784 18.2064 9.50016 18.2868 9.72246 18.3188C10.8167 18.4145 11.9193 18.3418 12.9908 18.1034C13.1586 18.8872 13.2726 19.6813 13.332 20.4802C11.6184 20.9876 9.79536 21.0132 8.0678 20.5543C7.66193 20.4474 7.28147 20.2624 6.94831 20.0099C6.61516 19.7574 6.33589 19.4424 6.12656 19.0831C5.76815 18.3927 5.58548 17.6266 5.59434 16.851C5.4948 15.2653 5.50619 13.6747 5.62845 12.0906C5.69065 11.2599 6.03158 10.4733 6.59736 9.85514C7.32697 9.18846 8.27497 8.80256 9.26871 8.76771Z" fill="white"/>
<path d="M15.0567 9.61293C16.0802 8.83524 17.4039 8.66018 18.6457 8.66691C19.3827 8.63998 20.0923 8.91267 20.8292 8.89247C21.8868 8.89247 22.9445 8.89247 24.0055 8.89247C24.0055 9.39073 24.0055 9.90246 24.0055 10.3873C23.5723 10.4668 23.1491 10.5921 22.7432 10.761C23.2515 11.5622 23.1799 12.5453 23.1799 13.4543C23.2009 14.229 23.0422 14.9982 22.7159 15.7032C22.1632 16.7131 21.01 17.2619 19.8978 17.4269C19.2155 17.5683 18.5059 17.4875 17.8133 17.5346C17.5191 17.6888 17.2921 17.9438 17.1753 18.2517C17.1472 18.319 17.1344 18.3915 17.138 18.4642C17.1415 18.5369 17.1612 18.6079 17.1958 18.6722C17.2303 18.7365 17.2788 18.7925 17.3378 18.8362C17.3967 18.8799 17.4647 18.9102 17.5369 18.925C18.4274 19.0563 19.3247 19.1136 20.2151 19.2415C21.1056 19.3189 22.0915 19.3458 22.8148 19.9316C23.5381 20.5174 23.6507 21.4668 23.6097 22.3085C23.6268 23.2579 23.388 24.3689 22.4873 24.8806C21.3683 25.5303 20.0104 25.5539 18.7344 25.5539C17.1339 25.6161 15.5335 25.4287 13.9922 24.9984C14.0277 24.2667 14.1316 23.5398 14.3027 22.8269C16.1074 23.369 18.0146 23.3387 19.8842 23.2781C20.3072 23.2276 20.8326 23.0727 20.9486 22.6047C20.9801 22.4674 20.9837 22.3253 20.9591 22.1866C20.9345 22.0479 20.8822 21.9154 20.8053 21.7968C20.5627 21.5855 20.252 21.4662 19.9285 21.4601C18.6526 21.3221 17.38 21.1908 16.1074 21.0224C15.4524 20.9147 14.7121 20.6386 14.4289 19.9922C14.2894 19.6692 14.2174 19.3216 14.2174 18.9705C14.2174 18.6193 14.2894 18.2718 14.4289 17.9487C14.6797 17.5413 14.998 17.1782 15.3705 16.8747C14.7809 16.5062 14.3395 15.9468 14.1219 15.2924C13.7807 14.3801 13.866 13.3937 13.8626 12.4409C13.8728 11.4006 14.214 10.2863 15.0567 9.61293ZM17.7314 11.0639C17.4101 11.1259 17.119 11.2921 16.9045 11.5361C16.69 11.7801 16.5643 12.088 16.5476 12.4106C16.5134 13.1311 16.4316 13.9458 16.8887 14.5652C17.4312 15.178 18.3353 15.0568 19.0722 15.0433C19.4005 15.0459 19.7196 14.9359 19.9747 14.732C20.2299 14.5281 20.4053 14.243 20.471 13.9256C20.5119 13.3903 20.4949 12.8516 20.471 12.3163C20.4634 12.0678 20.383 11.8268 20.2395 11.6225C20.096 11.4181 19.8955 11.2592 19.6624 11.1649C19.0483 10.9596 18.3694 11.0336 17.728 11.0707L17.7314 11.0639Z" fill="white"/>
<path d="M0 0.000976562C9.80743 0.000976562 19.6149 0.000976562 29.4223 0.000976562C29.4223 9.99761 29.4223 19.9942 29.4223 29.9909C19.6149 30.0021 9.80743 30.0021 0 29.9909C0.00682335 19.9965 0.00682335 9.99985 0 0.000976562ZM9.26952 8.7542C8.25518 8.77623 7.28419 9.16428 6.54018 9.84499C5.97439 10.4631 5.63347 11.2497 5.57127 12.0804C5.44901 13.6646 5.43761 15.2551 5.53715 16.8408C5.52829 17.6165 5.71096 18.3826 6.06937 19.0729C6.2787 19.4323 6.55798 19.7473 6.89113 19.9998C7.22428 20.2523 7.60474 20.4373 8.01062 20.5441C9.73818 21.0031 11.5612 20.9774 13.2748 20.4701C13.2154 19.6711 13.1014 18.877 12.9337 18.0932C11.8621 18.3317 10.7595 18.4043 9.66528 18.3087C9.44298 18.2766 9.23066 18.1963 9.04364 18.0734C8.85661 17.9506 8.69955 17.7883 8.58378 17.5983C8.39538 17.1291 8.31835 16.6235 8.3586 16.1204C8.3586 15.0296 8.3586 13.9354 8.3586 12.8447C8.3586 12.242 8.61448 11.5485 9.24905 11.333C10.4466 10.9627 11.702 11.2758 12.9166 11.3869C13.0644 10.6283 13.1782 9.86406 13.2578 9.09422C11.9687 8.69827 10.6071 8.58679 9.26952 8.76766V8.7542ZM15.0694 9.60932C14.2369 10.2826 13.8992 11.3903 13.9026 12.4205C13.9026 13.3732 13.8139 14.3596 14.1619 15.272C14.3795 15.9264 14.8209 16.4857 15.4105 16.8543C15.038 17.1578 14.7197 17.5208 14.4689 17.9283C14.3294 18.2513 14.2574 18.5988 14.2574 18.95C14.2574 19.3012 14.3294 19.6487 14.4689 19.9718C14.7521 20.6182 15.4924 20.8942 16.1475 21.002C17.4166 21.1703 18.6926 21.3016 19.9685 21.4396C20.292 21.4458 20.6028 21.5651 20.8453 21.7763C20.9222 21.8949 20.9745 22.0274 20.9991 22.1661C21.0237 22.3048 21.0201 22.447 20.9886 22.5843C20.8726 23.0455 20.3472 23.2038 19.9242 23.2576C18.058 23.3149 16.1509 23.3485 14.3427 22.8065C14.1716 23.5193 14.0677 24.2463 14.0322 24.978C15.5735 25.4082 17.1739 25.5957 18.7744 25.5335C20.0368 25.5335 21.3946 25.5099 22.5273 24.8601C23.428 24.3484 23.6668 23.2408 23.6497 22.288C23.6907 21.4464 23.561 20.4768 22.8548 19.9112C22.1486 19.3456 21.149 19.2951 20.2551 19.221C19.3647 19.0931 18.464 19.0359 17.577 18.9046C17.5047 18.8898 17.4367 18.8595 17.3778 18.8158C17.3188 18.7721 17.2703 18.7161 17.2358 18.6518C17.2013 18.5875 17.1815 18.5164 17.178 18.4438C17.1744 18.3711 17.1872 18.2985 17.2153 18.2313C17.3322 17.9234 17.5591 17.6683 17.8533 17.5142C18.5356 17.467 19.2521 17.5478 19.9378 17.4064C21.0569 17.2415 22.2032 16.6994 22.7559 15.6827C23.0822 14.9778 23.2409 14.2085 23.2199 13.4338C23.2199 12.5282 23.2915 11.5451 22.7832 10.7405C23.1891 10.5716 23.6124 10.4463 24.0455 10.3668C24.0455 9.86855 24.0455 9.35682 24.0455 8.87203C22.9879 8.87203 21.9303 8.87203 20.8692 8.87203C20.1323 8.88886 19.4227 8.61617 18.6857 8.64647C17.3995 8.66667 16.069 8.8451 15.0557 9.61269L15.0694 9.60932Z" fill="#E83A21"/>
<path d="M108.489 5.41106C109.54 5.34036 110.571 5.0744 111.628 5.0542C111.628 6.22242 111.628 7.39064 111.628 8.55886C112.699 8.55886 113.774 8.55886 114.849 8.55886C114.879 9.39378 114.695 10.2152 114.716 11.0502C113.692 11.067 112.669 11.0502 111.645 11.0502C111.645 13.289 111.645 15.5278 111.645 17.7666C111.645 18.1941 111.812 18.7193 112.28 18.8506C112.983 19.0762 113.706 18.7867 114.409 18.7092C114.446 19.497 114.668 20.2612 114.75 21.0457C114.449 21.2331 114.108 21.3484 113.754 21.3823C112.799 21.6282 111.8 21.6559 110.833 21.4631C110.428 21.3869 110.044 21.223 109.71 20.9832C109.376 20.7434 109.1 20.4336 108.902 20.0761C108.654 19.5745 108.523 19.0248 108.517 18.4668C108.517 16.0058 108.517 13.5448 108.517 11.0838C107.902 11.1129 107.286 11.0971 106.674 11.0367C106.642 10.222 106.653 9.4062 106.705 8.59253C107.278 8.45113 107.913 8.56559 108.51 8.53866C108.503 7.51857 108.469 6.46481 108.489 5.41106Z" fill="#E83A21"/>
<path d="M85.2678 8.62305C85.9775 8.34881 86.7304 8.19954 87.4923 8.18202C88.2027 8.14122 88.9156 8.17848 89.6177 8.29311C89.9132 8.35889 90.2155 8.39052 90.5184 8.38738C91.7125 8.38738 92.9066 8.38738 94.0973 8.38738C94.0973 8.9496 94.0973 9.50846 94.0973 10.0707C93.6367 10.1448 93.1932 10.2929 92.7326 10.367C93.0444 11.1203 93.1897 11.9306 93.159 12.7438C93.2034 13.8514 93.1147 15.0129 92.5552 16.0027C91.8387 17.1271 90.4775 17.6557 89.1879 17.7668C88.5635 17.8745 87.9255 17.7668 87.3012 17.851C87.0352 18.0243 86.8199 18.2634 86.6769 18.5445C86.6118 18.6505 86.59 18.777 86.616 18.8983C86.642 19.0196 86.7137 19.1266 86.8167 19.1976C87.2125 19.3996 87.6731 19.3559 88.1029 19.4198C88.7853 19.5242 89.5085 19.5612 90.2045 19.6622C91.0677 19.7093 91.9854 19.8171 92.7019 20.3355C92.9669 20.5497 93.1832 20.8166 93.3367 21.1188C93.4901 21.4211 93.5772 21.7518 93.5923 22.0895C93.5923 23.0995 93.7015 24.2038 93.142 25.1195C92.4972 26.0554 91.2792 26.3551 90.2045 26.4662C89.1319 26.5826 88.0517 26.6175 86.9737 26.5705C85.6518 26.501 84.3417 26.2877 83.0673 25.9342C83.2481 25.1532 83.3095 24.3486 83.5006 23.5776C85.5807 24.0959 87.7387 24.2385 89.8702 23.9984C90.2591 23.9513 90.706 23.6786 90.6958 23.2477C90.6958 22.948 90.7606 22.5306 90.4468 22.3521C89.9384 22.0525 89.3175 22.1064 88.7409 22.0155C88.3008 21.9414 87.8539 21.9515 87.4206 21.8673C86.3971 21.7058 85.3463 21.7495 84.4013 21.322C83.3778 20.817 83.1594 19.4468 83.5108 18.4637C83.7857 17.9233 84.1812 17.4514 84.6674 17.0834C84.1348 16.7481 83.7054 16.2754 83.4255 15.7165C83.1428 15.0725 83.0088 14.3744 83.0332 13.673C83.0775 12.6832 82.9001 11.653 83.2584 10.707C83.4197 10.2364 83.683 9.8061 84.0301 9.44619C84.3771 9.08628 84.7995 8.80537 85.2678 8.62305ZM87.2193 10.8046C86.9963 10.8421 86.7849 10.9292 86.6011 11.0593C86.4173 11.1894 86.2658 11.359 86.1583 11.5554C85.9263 12.02 85.9945 12.5485 85.9843 13.0468C85.9741 13.5451 85.9434 14.1275 86.2879 14.5483C86.6632 15.0331 87.3114 15.1543 87.9119 15.1476C88.5703 15.1476 89.3346 15.124 89.8224 14.6257C90.3581 14.0568 90.1158 13.2286 90.1636 12.5317C90.2121 12.2569 90.1831 11.9743 90.0796 11.7148C89.976 11.4553 89.8021 11.2289 89.5768 11.0605C88.8808 10.6531 88.004 10.6868 87.2227 10.8046H87.2193Z" fill="#E83A21"/>
<path d="M117.149 9.41754C118.173 8.40755 119.729 8.11801 121.141 8.15841C122.434 8.12474 123.836 8.42101 124.764 9.36703C125.35 9.96567 125.733 10.7292 125.859 11.552C126.067 12.4138 125.972 13.3026 125.992 14.1746C125.992 14.8075 125.992 15.4404 125.992 16.07C123.668 16.07 121.343 16.07 119.019 16.07C119.019 16.814 118.968 17.6759 119.493 18.2785C120.094 18.8643 120.998 18.7768 121.772 18.7768C122.986 18.7823 124.194 18.5947 125.348 18.2213C125.484 19.0393 125.73 19.8406 125.798 20.6688C124.713 21.0294 123.59 21.2688 122.451 21.3825C121.114 21.4869 119.722 21.4835 118.446 21.0223C117.942 20.8358 117.485 20.5458 117.104 20.1714C116.722 19.797 116.426 19.3468 116.235 18.8508C115.961 18.0775 115.845 17.2582 115.894 16.4403C115.894 15.2755 115.894 14.1106 115.894 12.9458C115.843 11.6765 116.221 10.3299 117.149 9.41754ZM119.398 11.4106C118.981 11.9863 119.002 12.7236 119.019 13.3969C120.339 13.3969 121.663 13.3969 122.983 13.3969C122.983 12.7 123.116 11.9156 122.663 11.3163C122.465 11.1199 122.228 10.967 121.966 10.8677C121.704 10.7685 121.424 10.7252 121.144 10.7406C120.51 10.7372 119.797 10.8921 119.398 11.4139V11.4106Z" fill="#E83A21"/>
<path d="M65.3901 9.64317C66.7196 9.01882 68.1364 8.59442 69.5932 8.38405C70.3745 8.34028 71.2206 8.28979 71.9098 8.72071C72.2816 8.92944 72.4863 9.3166 72.7661 9.6196C72.9478 9.60791 73.1248 9.55736 73.2847 9.47146C74.5499 8.88463 75.9062 8.51246 77.2968 8.37058C78.1156 8.30998 79.0368 8.37058 79.6577 8.97321C80.456 9.68357 80.5993 10.808 80.6812 11.8079C80.6812 14.619 80.6812 17.4302 80.6812 20.2413C80.6812 20.6318 80.6812 21.0224 80.6573 21.4129C79.5997 21.4129 78.5387 21.4129 77.481 21.4129C77.481 18.3829 77.481 15.353 77.481 12.323C77.4991 12.1361 77.4498 11.949 77.3419 11.7944C77.2339 11.6399 77.0742 11.5278 76.8908 11.478C76.1437 11.3669 75.4102 11.6093 74.7073 11.8382C74.2161 11.9979 73.7455 12.2137 73.3052 12.4812C73.2201 12.9385 73.1925 13.4044 73.2233 13.8683C73.2233 16.3832 73.2233 18.9014 73.2233 21.4163C72.1907 21.4163 71.1592 21.4163 70.1289 21.4163C70.0504 19.8979 70.1289 18.3863 70.0948 16.8511C70.0606 15.3159 70.0948 13.8211 70.0948 12.3264C70.1043 12.1263 70.0406 11.9295 69.9154 11.7719C69.7901 11.6143 69.6116 11.5064 69.4124 11.4679C68.6073 11.3736 67.8362 11.68 67.0891 11.9291C66.6449 12.073 66.2225 12.2757 65.8336 12.5317C65.7824 15.4876 65.8336 18.4469 65.8029 21.4028C64.7384 21.4028 63.674 21.4028 62.6095 21.4028C62.6095 17.4167 62.6095 13.434 62.6095 9.44791C62.6074 9.16542 62.6245 8.88311 62.6607 8.60288C63.4488 8.60288 64.2369 8.60288 65.025 8.60288C65.1169 8.95913 65.239 9.30712 65.3901 9.64317Z" fill="#E83A21"/>
<path d="M95.8813 8.82169C96.9423 8.69713 97.9794 8.38067 99.0541 8.36384C100.306 8.36384 101.603 8.246 102.807 8.7005C103.251 8.82536 103.661 9.04682 104.007 9.3486C104.353 9.65038 104.626 10.0248 104.806 10.4444C105.047 11.0461 105.173 11.6863 105.178 12.3331C105.178 15.3406 105.178 18.347 105.178 21.3523C104.308 21.3523 103.442 21.3523 102.575 21.3523C102.521 21.0901 102.439 20.8341 102.333 20.5881C101.196 21.2937 99.8785 21.6639 98.5356 21.6553C98.0268 21.6761 97.5213 21.5671 97.0677 21.3389C96.6141 21.1107 96.2278 20.7709 95.9461 20.3524C95.2638 19.3424 95.3047 18.053 95.3798 16.8814C95.5265 16.1441 95.7721 15.3395 96.4033 14.8614C97.0258 14.4259 97.7763 14.2047 98.539 14.2319C99.7023 14.2319 100.869 14.2319 102.033 14.2319C102.005 13.5013 102.135 12.7472 101.937 12.0335C101.852 11.7556 101.679 11.5121 101.443 11.3393C101.207 11.1664 100.921 11.0733 100.627 11.074C99.7575 11.0298 98.8864 11.0298 98.017 11.074C97.3824 11.1447 96.7581 11.2861 96.1201 11.3063C96.0416 10.6834 95.929 10.064 95.8335 9.44115C95.801 9.23378 95.8174 9.02182 95.8813 8.82169ZM98.5014 17.0834C98.3288 17.559 98.3288 18.079 98.5014 18.5546C98.5544 18.6745 98.6351 18.7804 98.737 18.864C98.8389 18.9476 98.9592 19.0065 99.0882 19.036C100.103 19.1572 101.131 18.9555 102.022 18.4603C102.022 17.8342 102.022 17.208 102.022 16.5818C101.135 16.5818 100.245 16.5818 99.3578 16.5818C99.1799 16.5696 99.0024 16.6115 98.8493 16.7017C98.6963 16.792 98.5748 16.9264 98.5014 17.0868V17.0834Z" fill="#E83A21"/>
<path d="M43.1108 8.40427C44.576 8.2485 46.058 8.38707 47.4675 8.81163C47.4095 9.67348 47.1946 10.5185 47.1024 11.377C46.5497 11.3467 46.0175 11.1885 45.4682 11.1514C44.9001 11.1182 44.3305 11.1182 43.7624 11.1514C43.5236 11.1514 43.2877 11.2025 43.0709 11.3013C42.8541 11.4002 42.6617 11.5443 42.5069 11.7238C42.254 12.16 42.1355 12.6596 42.1657 13.1613C42.1657 14.3957 42.1657 15.6302 42.1657 16.8646C42.1376 17.3916 42.2797 17.9139 42.5717 18.356C42.8853 18.6736 43.3132 18.8563 43.7624 18.8644C44.8889 18.96 46.0237 18.8551 47.1127 18.5546C47.2628 19.43 47.3447 20.3154 47.5562 21.1772C46.5667 21.5026 45.5286 21.6608 44.4857 21.6452C43.3387 21.7205 42.1897 21.5327 41.1286 21.0964C40.3317 20.733 39.7099 20.0772 39.3955 19.2684C38.9724 18.2819 38.9895 17.1912 38.9997 16.1374C38.9997 14.9389 38.9997 13.737 38.9997 12.5385C39.0679 11.5049 39.3409 10.4141 40.0778 9.64655C40.8523 8.80826 42.0225 8.52883 43.1108 8.40427Z" fill="#E83A21"/>
<path d="M53.2626 8.55906C54.9445 8.37053 56.7971 8.45469 58.2402 9.42428C59.4855 10.2693 60.0075 11.8112 60.045 13.2454C60.045 14.518 60.045 15.7872 60.045 17.0598C59.9836 18.228 59.6731 19.4535 58.827 20.3153C57.7557 21.4465 56.0977 21.8101 54.5829 21.7562C53.248 21.8561 51.917 21.5188 50.7959 20.7967C49.6462 19.9719 49.1106 18.5276 49.0901 17.1608C49.0901 15.8579 49.0901 14.5517 49.0901 13.2454C49.0399 12.6648 49.1091 12.0802 49.2936 11.5267C49.4782 10.9732 49.7742 10.4622 50.1639 10.0245C50.5537 9.58676 51.0291 9.23129 51.5616 8.97945C52.0941 8.72762 52.6727 8.58463 53.2626 8.55906ZM53.6037 11.2995C53.1597 11.4033 52.7748 11.6754 52.5325 12.057C52.3106 12.45 52.2065 12.8972 52.2323 13.3464C52.2323 14.6156 52.2323 15.8848 52.2323 17.1541C52.2195 17.4954 52.3066 17.8332 52.4833 18.1269C52.66 18.4207 52.9187 18.658 53.2285 18.8104C54.0753 19.1485 55.0222 19.1485 55.8691 18.8104C56.1787 18.6604 56.4365 18.4235 56.6101 18.1294C56.7837 17.8353 56.8653 17.4972 56.8448 17.1574C56.8448 15.8108 56.8448 14.4641 56.8448 13.1444C56.8637 12.8287 56.7984 12.5137 56.6553 12.2307C56.5122 11.9477 56.2964 11.7067 56.0294 11.5318C55.2925 11.1076 54.3918 11.1918 53.5867 11.2961L53.6037 11.2995Z" fill="#E83A21"/>
<path d="M17.7281 11.0705C18.3661 11.0334 19.0484 10.9459 19.6591 11.1849C19.8922 11.2792 20.0927 11.4381 20.2362 11.6425C20.3797 11.8468 20.4601 12.0878 20.4677 12.3363C20.4677 12.8716 20.495 13.4103 20.4677 13.9456C20.402 14.263 20.2266 14.5481 19.9714 14.752C19.7163 14.9559 19.3972 15.0659 19.0689 15.0633C18.332 15.0633 17.4279 15.1979 16.8854 14.5852C16.4419 13.9658 16.5204 13.1477 16.5442 12.4306C16.558 12.1056 16.6823 11.7947 16.8971 11.5479C17.1119 11.3012 17.4046 11.133 17.7281 11.0705Z" fill="#E83A21"/>
</svg>
