<svg width="126" height="30" viewBox="0 0 126 30" fill="none" xmlns="http://www.w3.org/2000/svg">
<path d="M0 0.00190189C0 10.0008 0 20.0008 0 30.0019C9.80743 30.0019 19.6149 30.0019 29.4223 30.0019C29.4223 20.0053 29.4223 10.0086 29.4223 0.0120014C19.6149 -0.00146515 9.80743 -0.00483136 0 0.00190189ZM108.491 5.41206C108.471 6.46581 108.491 7.51957 108.471 8.57333C107.874 8.60026 107.243 8.4858 106.666 8.62719C106.614 9.44087 106.603 10.2567 106.635 11.0714C107.247 11.1318 107.863 11.1475 108.478 11.1185C108.478 13.5795 108.478 16.0405 108.478 18.5015C108.484 19.0595 108.615 19.6092 108.863 20.1107C109.061 20.4683 109.337 20.778 109.671 21.0179C110.005 21.2577 110.389 21.4216 110.794 21.4978C111.761 21.6905 112.76 21.6629 113.715 21.417C114.069 21.3831 114.41 21.2678 114.711 21.0803C114.646 20.2959 114.421 19.5317 114.37 18.7439C113.667 18.8213 112.944 19.1075 112.241 18.8853C111.773 18.754 111.616 18.212 111.606 17.8012C111.606 15.5624 111.606 13.3236 111.606 11.0848C112.63 11.0848 113.653 11.0848 114.677 11.0848C114.66 10.2499 114.84 9.42845 114.81 8.59353C113.735 8.59353 112.664 8.59353 111.589 8.59353C111.589 7.42531 111.589 6.25709 111.589 5.08887C110.569 5.06867 109.539 5.338 108.488 5.41206H108.491ZM85.2714 8.62382C84.8058 8.80553 84.3856 9.08473 84.0398 9.44218C83.6941 9.79963 83.431 10.2268 83.2688 10.6943C82.9105 11.6437 83.0879 12.6739 83.0436 13.6603C83.0192 14.3618 83.1532 15.0598 83.4359 15.7038C83.7158 16.2627 84.1452 16.7354 84.6778 17.0707C84.1916 17.4387 83.7961 17.9106 83.5212 18.451C83.1801 19.4341 83.3779 20.8076 84.4117 21.3093C85.3567 21.7402 86.4246 21.6964 87.431 21.8547C87.8677 21.9422 88.3146 21.9287 88.7513 22.0028C89.3143 22.087 89.9352 22.0331 90.4572 22.3395C90.771 22.5179 90.6994 22.932 90.7062 23.235C90.7062 23.6693 90.2695 23.9386 89.8806 23.9857C87.7491 24.2258 85.5911 24.0832 83.511 23.5649C83.3199 24.3426 83.2585 25.1472 83.0777 25.9215C84.3521 26.275 85.6622 26.4883 86.9841 26.5578C88.0621 26.6048 89.1423 26.5699 90.2149 26.4535C91.2896 26.3424 92.5076 26.0427 93.1524 25.1068C93.7119 24.2012 93.6198 23.0868 93.6027 22.0769C93.5876 21.7391 93.5005 21.4084 93.3471 21.1061C93.1936 20.8039 92.9773 20.537 92.7123 20.3228C91.9958 19.8044 91.0747 19.6967 90.2149 19.6495C89.5326 19.5485 88.8093 19.5115 88.1133 19.4071C87.6835 19.3432 87.2229 19.3869 86.8271 19.1849C86.7241 19.1139 86.6524 19.0069 86.6264 18.8857C86.6004 18.7644 86.6222 18.6378 86.6873 18.5318C86.8303 18.2507 87.0456 18.0116 87.3116 17.8383C87.9359 17.7541 88.5739 17.8618 89.1983 17.7541C90.4913 17.643 91.8491 17.1145 92.5656 15.99C93.1251 15.0036 93.2138 13.8421 93.1694 12.7311C93.2001 11.9179 93.0548 11.1076 92.743 10.3543C93.2036 10.2802 93.6471 10.1321 94.1077 10.058C94.1077 9.49915 94.1077 8.93692 94.1077 8.3747C92.9136 8.3747 91.7195 8.3747 90.5288 8.3747C90.2259 8.37784 89.9236 8.34621 89.6281 8.28043C88.926 8.1658 88.2131 8.12853 87.5027 8.16933C86.7365 8.18996 85.98 8.34382 85.268 8.62382H85.2714ZM117.15 9.42171C116.219 10.3341 115.843 11.6807 115.874 12.9466C115.874 14.1114 115.874 15.2763 115.874 16.4411C115.825 17.259 115.941 18.0784 116.215 18.8516C116.407 19.3476 116.703 19.7978 117.084 20.1722C117.465 20.5466 117.923 20.8366 118.426 21.0231C119.702 21.4877 121.091 21.4877 122.431 21.3833C123.571 21.2696 124.693 21.0302 125.778 20.6696C125.71 19.8414 125.464 19.0402 125.328 18.2221C124.174 18.5955 122.967 18.7831 121.752 18.7776C120.978 18.7776 120.074 18.8651 119.473 18.2793C118.948 17.6767 118.996 16.8182 118.999 16.0708C121.324 16.0708 123.648 16.0708 125.973 16.0708C125.973 15.4412 125.973 14.8083 125.973 14.1754C125.952 13.3001 126.048 12.4113 125.84 11.5528C125.713 10.73 125.33 9.96649 124.744 9.36785C123.813 8.42182 122.411 8.12556 121.121 8.15923C119.729 8.11883 118.184 8.40163 117.15 9.41835V9.42171ZM65.3882 9.64391C65.2451 9.30605 65.131 8.95694 65.047 8.60026C64.2589 8.60026 63.4708 8.60026 62.6827 8.60026C62.635 8.88083 62.6065 9.16428 62.5974 9.44865C62.5974 13.4314 62.5974 17.4174 62.5974 21.4035C63.6619 21.4035 64.7229 21.4035 65.7907 21.4035C65.8283 18.4476 65.7703 15.4884 65.8215 12.5325C66.2104 12.2765 66.6327 12.0737 67.077 11.9299C67.8241 11.6807 68.5952 11.3744 69.4003 11.4686C69.5995 11.5072 69.778 11.6151 69.9032 11.7727C70.0285 11.9303 70.0922 12.127 70.0826 12.3271C70.0826 13.8354 70.0826 15.3571 70.0826 16.8519C70.0826 18.3466 70.0383 19.8818 70.1167 21.417C71.1471 21.417 72.1785 21.417 73.2111 21.417C73.2384 18.9021 73.2111 16.3839 73.2111 13.869C73.1804 13.4051 73.2079 12.9392 73.293 12.482C73.7334 12.2144 74.204 11.9986 74.6952 11.8389C75.3946 11.61 76.1315 11.3676 76.8787 11.4787C77.0621 11.5286 77.2218 11.6406 77.3298 11.7952C77.4377 11.9497 77.487 12.1369 77.4689 12.3237C77.4689 15.3537 77.4689 18.3837 77.4689 21.4136C78.5265 21.4136 79.5876 21.4136 80.6452 21.4136C80.6759 21.0231 80.6725 20.6326 80.6691 20.2421C80.6691 17.4309 80.6691 14.6198 80.6691 11.8086C80.5974 10.7987 80.4507 9.68768 79.6456 8.97396C79.0246 8.38143 78.1035 8.30063 77.2847 8.37133C75.8941 8.5132 74.5377 8.88538 73.2725 9.47221C73.1126 9.55811 72.9357 9.60866 72.754 9.62034C72.4742 9.31735 72.2695 8.94702 71.8976 8.72146C71.2153 8.29053 70.359 8.3444 69.5811 8.3848C68.1277 8.59614 66.7145 9.02053 65.3882 9.64391ZM95.8988 8.82245C95.8363 9.01704 95.8189 9.22296 95.8476 9.42508C95.9431 10.0479 96.0557 10.6674 96.1342 11.2902C96.7722 11.2666 97.3965 11.1252 98.0311 11.0579C98.9005 11.0138 99.7716 11.0138 100.641 11.0579C100.935 11.0573 101.221 11.1503 101.457 11.3232C101.693 11.4961 101.867 11.7396 101.951 12.0174C102.149 12.7311 102.019 13.4852 102.047 14.2158C100.883 14.2158 99.7164 14.2158 98.5531 14.2158C97.7904 14.1887 97.0399 14.4099 96.4174 14.8454C95.7862 15.3234 95.5406 16.128 95.3939 16.8653C95.3188 18.0369 95.2642 19.3196 95.9602 20.3363C96.2419 20.7548 96.6282 21.0946 97.0818 21.3228C97.5354 21.5511 98.0409 21.66 98.5497 21.6392C99.8926 21.6479 101.21 21.2776 102.347 20.572C102.454 20.818 102.535 21.074 102.589 21.3362C103.456 21.3631 104.326 21.3362 105.192 21.3362C105.192 18.3309 105.192 15.3245 105.192 12.317C105.187 11.6703 105.061 11.0301 104.82 10.4283C104.64 10.0088 104.367 9.63432 104.021 9.33253C103.675 9.03075 103.265 8.80928 102.821 8.68442C101.62 8.24676 100.327 8.34776 99.0682 8.34776C97.9799 8.38142 96.9428 8.69789 95.8817 8.82245H95.8988ZM43.1099 8.405C42.0216 8.52956 40.848 8.80899 40.0804 9.63718C39.3332 10.4048 39.0569 11.4956 39.0023 12.5291C38.975 13.7276 39.0023 14.9295 39.0023 16.128C39.0023 17.1818 38.975 18.2692 39.398 19.259C39.7125 20.0678 40.3342 20.7237 41.1312 21.0871C42.1922 21.5233 43.3413 21.7111 44.4882 21.6358C45.5311 21.6514 46.5692 21.4932 47.5588 21.1679C47.3472 20.306 47.2654 19.4172 47.1152 18.5453C46.0263 18.8457 44.8915 18.9507 43.765 18.855C43.3157 18.8469 42.8879 18.6642 42.5743 18.3466C42.2823 17.9045 42.1401 17.3823 42.1683 16.8552C42.1683 15.6208 42.1683 14.3864 42.1683 13.1519C42.138 12.6502 42.2566 12.1507 42.5095 11.7144C42.6642 11.5349 42.8566 11.3908 43.0734 11.292C43.2902 11.1931 43.5262 11.142 43.765 11.1421C44.3331 11.1088 44.9027 11.1088 45.4708 11.1421C46.0201 11.1757 46.5557 11.334 47.105 11.3676C47.1937 10.5091 47.4086 9.66411 47.4701 8.80226C46.0588 8.38064 44.5756 8.2455 43.1099 8.405ZM53.2631 8.55986C52.6732 8.58543 52.0946 8.72842 51.5621 8.98025C51.0296 9.23209 50.5542 9.58756 50.1644 10.0253C49.7747 10.463 49.4787 10.974 49.2941 11.5275C49.1096 12.081 49.0404 12.6656 49.0906 13.2462C49.0906 14.5491 49.0906 15.8553 49.0906 17.1616C49.0906 18.5284 49.6365 19.9694 50.7964 20.7975C51.9175 21.5196 53.2485 21.8569 54.5834 21.757C56.1016 21.8109 57.7563 21.4473 58.8275 20.3161C59.6736 19.4543 59.9841 18.2254 60.0455 17.0606C60.0455 15.788 60.0455 14.5188 60.0455 13.2462C60.008 11.812 59.4826 10.2701 58.2407 9.42508C56.7976 8.45549 54.945 8.37133 53.2631 8.55986Z" fill="white"/>
<path d="M9.26871 8.76869C10.626 8.58251 12.0084 8.69753 13.315 9.10535C13.2285 9.87519 13.1148 10.6394 12.9738 11.398C11.7592 11.2869 10.5003 10.9738 9.30624 11.3442C8.67166 11.5563 8.43285 12.2498 8.41579 12.8558C8.39191 13.9466 8.41579 15.0407 8.41579 16.1315C8.37554 16.6347 8.45256 17.1402 8.64096 17.6095C8.75674 17.7994 8.9138 17.9617 9.10082 18.0846C9.28784 18.2074 9.50016 18.2877 9.72246 18.3198C10.8167 18.4155 11.9193 18.3428 12.9908 18.1043C13.1586 18.8882 13.2726 19.6822 13.332 20.4812C11.6184 20.9886 9.79536 21.0142 8.0678 20.5553C7.66193 20.4484 7.28147 20.2634 6.94831 20.0109C6.61516 19.7584 6.33589 19.4434 6.12656 19.084C5.76815 18.3937 5.58548 17.6276 5.59434 16.852C5.4948 15.2663 5.50619 13.6757 5.62845 12.0915C5.69065 11.2608 6.03158 10.4743 6.59736 9.85611C7.32697 9.18944 8.27497 8.80354 9.26871 8.76869Z" fill="white"/>
<path d="M15.0567 9.61391C16.0802 8.83622 17.4039 8.66116 18.6457 8.66789C19.3827 8.64096 20.0923 8.91365 20.8292 8.89345C21.8868 8.89345 22.9445 8.89345 24.0055 8.89345C24.0055 9.39171 24.0055 9.90344 24.0055 10.3882C23.5723 10.4678 23.1491 10.593 22.7432 10.7619C23.2515 11.5632 23.1799 12.5462 23.1799 13.4552C23.2009 14.23 23.0422 14.9992 22.7159 15.7041C22.1632 16.7141 21.01 17.2629 19.8978 17.4278C19.2155 17.5692 18.5059 17.4884 17.8133 17.5356C17.5191 17.6898 17.2921 17.9448 17.1753 18.2527C17.1472 18.3199 17.1344 18.3925 17.138 18.4652C17.1415 18.5379 17.1612 18.6089 17.1958 18.6732C17.2303 18.7375 17.2788 18.7935 17.3378 18.8372C17.3967 18.8809 17.4647 18.9112 17.5369 18.926C18.4274 19.0573 19.3247 19.1145 20.2151 19.2425C21.1056 19.3199 22.0915 19.3468 22.8148 19.9326C23.5381 20.5184 23.6507 21.4678 23.6097 22.3095C23.6268 23.2588 23.388 24.3698 22.4873 24.8816C21.3683 25.5313 20.0104 25.5549 18.7344 25.5549C17.1339 25.6171 15.5335 25.4297 13.9922 24.9994C14.0277 24.2677 14.1316 23.5408 14.3027 22.8279C16.1074 23.3699 18.0146 23.3396 19.8842 23.279C20.3072 23.2285 20.8326 23.0737 20.9486 22.6057C20.9801 22.4684 20.9837 22.3262 20.9591 22.1875C20.9345 22.0489 20.8822 21.9163 20.8053 21.7977C20.5627 21.5865 20.252 21.4672 19.9285 21.4611C18.6526 21.323 17.38 21.1917 16.1074 21.0234C15.4524 20.9157 14.7121 20.6396 14.4289 19.9932C14.2894 19.6702 14.2174 19.3226 14.2174 18.9714C14.2174 18.6203 14.2894 18.2727 14.4289 17.9497C14.6797 17.5422 14.998 17.1792 15.3705 16.8757C14.7809 16.5071 14.3395 15.9478 14.1219 15.2934C13.7807 14.3811 13.866 13.3946 13.8626 12.4419C13.8728 11.4016 14.214 10.2872 15.0567 9.61391ZM17.7314 11.0649C17.4101 11.1269 17.119 11.2931 16.9045 11.5371C16.69 11.7811 16.5643 12.0889 16.5476 12.4116C16.5134 13.132 16.4316 13.9468 16.8887 14.5662C17.4312 15.1789 18.3353 15.0577 19.0722 15.0443C19.4005 15.0469 19.7196 14.9369 19.9747 14.733C20.2299 14.5291 20.4053 14.244 20.471 13.9266C20.5119 13.3913 20.4949 12.8526 20.471 12.3173C20.4634 12.0688 20.383 11.8278 20.2395 11.6234C20.096 11.4191 19.8955 11.2602 19.6624 11.1659C19.0483 10.9606 18.3694 11.0346 17.728 11.0717L17.7314 11.0649Z" fill="white"/>
<path d="M87.2234 10.8054C88.0047 10.6875 88.8815 10.6539 89.5911 11.0612C89.8164 11.2296 89.9904 11.456 90.0939 11.7155C90.1974 11.975 90.2265 12.2577 90.1779 12.5324C90.1233 13.2293 90.3656 14.0575 89.8368 14.6265C89.3489 15.1281 88.5847 15.1618 87.9262 15.1483C87.3428 15.1483 86.681 15.0338 86.3023 14.549C85.9611 14.1282 85.9986 13.5559 85.9986 13.0475C85.9986 12.5392 85.9406 12.0207 86.1726 11.5561C86.2791 11.3609 86.429 11.192 86.6109 11.062C86.7929 10.932 87.0023 10.8443 87.2234 10.8054Z" fill="white"/>
<path d="M119.399 11.4147C119.802 10.8928 120.512 10.7413 121.143 10.7413C121.423 10.7259 121.703 10.7692 121.964 10.8684C122.226 10.9677 122.463 11.1206 122.661 11.317C123.115 11.9163 122.978 12.7007 122.982 13.3976C121.661 13.3976 120.338 13.3976 119.017 13.3976C119.004 12.7243 118.983 11.9904 119.399 11.4147Z" fill="white"/>
<path d="M53.5873 11.2971C54.389 11.1927 55.2931 11.1085 56.0198 11.5327C56.2868 11.7077 56.5026 11.9486 56.6456 12.2316C56.7887 12.5146 56.8541 12.8296 56.8352 13.1453C56.8352 14.492 56.8352 15.8218 56.8352 17.1583C56.8557 17.4981 56.774 17.8362 56.6004 18.1303C56.4268 18.4244 56.1691 18.6614 55.8595 18.8114C55.0126 19.1494 54.0657 19.1494 53.2188 18.8114C52.909 18.6589 52.6503 18.4216 52.4737 18.1279C52.297 17.8341 52.2098 17.4963 52.2226 17.155C52.2226 15.8858 52.2226 14.6165 52.2226 13.3473C52.1968 12.8981 52.3009 12.4509 52.5228 12.0579C52.7629 11.6765 53.1451 11.4033 53.5873 11.2971Z" fill="white"/>
<path d="M98.5006 17.0874C98.5762 16.9272 98.6999 16.7937 98.8549 16.7052C99.0099 16.6167 99.1888 16.5773 99.3672 16.5925C100.254 16.5723 101.145 16.5925 102.032 16.5925C102.032 17.2187 102.032 17.8449 102.032 18.471C101.141 18.9662 100.113 19.1679 99.0977 19.0467C98.9686 19.0172 98.8483 18.9583 98.7464 18.8747C98.6445 18.7911 98.5639 18.6852 98.5109 18.5653C98.3333 18.0888 98.3297 17.5662 98.5006 17.0874Z" fill="white"/>
<path d="M0 0.00195312C9.80743 0.00195312 19.6149 0.00195312 29.4223 0.00195312C29.4223 9.99859 29.4223 19.9952 29.4223 29.9918C19.6149 30.0031 9.80743 30.0031 0 29.9918C0.00682335 19.9975 0.00682335 10.0008 0 0.00195312ZM9.26952 8.75518C8.25518 8.7772 7.28419 9.16526 6.54018 9.84596C5.97439 10.4641 5.63347 11.2507 5.57127 12.0814C5.44901 13.6655 5.43761 15.2561 5.53715 16.8418C5.52829 17.6174 5.71096 18.3835 6.06937 19.0739C6.2787 19.4333 6.55798 19.7483 6.89113 20.0008C7.22428 20.2532 7.60474 20.4382 8.01062 20.5451C9.73818 21.0041 11.5612 20.9784 13.2748 20.471C13.2154 19.6721 13.1014 18.878 12.9337 18.0942C11.8621 18.3326 10.7595 18.4053 9.66528 18.3097C9.44298 18.2776 9.23066 18.1972 9.04364 18.0744C8.85661 17.9516 8.69955 17.7893 8.58378 17.5993C8.39538 17.1301 8.31835 16.6245 8.3586 16.1213C8.3586 15.0306 8.3586 13.9364 8.3586 12.8456C8.3586 12.243 8.61448 11.5495 9.24905 11.334C10.4466 10.9637 11.702 11.2768 12.9166 11.3879C13.0644 10.6293 13.1782 9.86504 13.2578 9.0952C11.9687 8.69925 10.6071 8.58776 9.26952 8.76864V8.75518ZM15.0694 9.61029C14.2369 10.2836 13.8992 11.3912 13.9026 12.4214C13.9026 13.3742 13.8139 14.3606 14.1619 15.273C14.3795 15.9273 14.8209 16.4867 15.4105 16.8553C15.038 17.1588 14.7197 17.5218 14.4689 17.9292C14.3294 18.2523 14.2574 18.5998 14.2574 18.951C14.2574 19.3022 14.3294 19.6497 14.4689 19.9728C14.7521 20.6192 15.4924 20.8952 16.1475 21.003C17.4166 21.1713 18.6926 21.3026 19.9685 21.4406C20.292 21.4467 20.6028 21.566 20.8453 21.7773C20.9222 21.8959 20.9745 22.0284 20.9991 22.1671C21.0237 22.3058 21.0201 22.4479 20.9886 22.5853C20.8726 23.0465 20.3472 23.2047 19.9242 23.2586C18.058 23.3158 16.1509 23.3495 14.3427 22.8075C14.1716 23.5203 14.0677 24.2472 14.0322 24.9789C15.5735 25.4092 17.1739 25.5967 18.7744 25.5344C20.0368 25.5344 21.3946 25.5109 22.5273 24.8611C23.428 24.3494 23.6668 23.2418 23.6497 22.289C23.6907 21.4474 23.561 20.4778 22.8548 19.9122C22.1486 19.3466 21.149 19.2961 20.2551 19.222C19.3647 19.0941 18.464 19.0369 17.577 18.9056C17.5047 18.8908 17.4367 18.8604 17.3778 18.8167C17.3188 18.773 17.2703 18.717 17.2358 18.6527C17.2013 18.5884 17.1815 18.5174 17.178 18.4447C17.1744 18.3721 17.1872 18.2995 17.2153 18.2322C17.3322 17.9244 17.5591 17.6693 17.8533 17.5151C18.5356 17.468 19.2521 17.5488 19.9378 17.4074C21.0569 17.2424 22.2032 16.7004 22.7559 15.6837C23.0822 14.9788 23.2409 14.2095 23.2199 13.4348C23.2199 12.5292 23.2915 11.5461 22.7832 10.7415C23.1891 10.5726 23.6124 10.4473 24.0455 10.3678C24.0455 9.86952 24.0455 9.3578 24.0455 8.873C22.9879 8.873 21.9303 8.873 20.8692 8.873C20.1323 8.88984 19.4227 8.61714 18.6857 8.64744C17.3995 8.66764 16.069 8.84607 15.0557 9.61366L15.0694 9.61029Z" fill="#E83A21"/>
<path d="M108.489 5.41204C109.54 5.34134 110.571 5.07538 111.628 5.05518C111.628 6.22339 111.628 7.39162 111.628 8.55983C112.699 8.55983 113.774 8.55983 114.849 8.55983C114.879 9.39476 114.695 10.2162 114.716 11.0511C113.692 11.068 112.669 11.0511 111.645 11.0511C111.645 13.2899 111.645 15.5288 111.645 17.7676C111.645 18.1951 111.812 18.7203 112.28 18.8516C112.983 19.0772 113.706 18.7876 114.409 18.7102C114.446 19.498 114.668 20.2622 114.75 21.0466C114.449 21.2341 114.108 21.3494 113.754 21.3833C112.799 21.6292 111.8 21.6568 110.833 21.4641C110.428 21.3879 110.044 21.224 109.71 20.9842C109.376 20.7443 109.1 20.4346 108.902 20.0771C108.654 19.5755 108.523 19.0258 108.517 18.4678C108.517 16.0068 108.517 13.5458 108.517 11.0848C107.902 11.1138 107.286 11.0981 106.674 11.0377C106.642 10.223 106.653 9.40718 106.705 8.5935C107.278 8.4521 107.913 8.56657 108.51 8.53964C108.503 7.51955 108.469 6.46579 108.489 5.41204Z" fill="#E83A21"/>
<path d="M85.2678 8.62402C85.9775 8.34978 86.7304 8.20051 87.4923 8.183C88.2027 8.1422 88.9156 8.17946 89.6177 8.29409C89.9132 8.35987 90.2155 8.3915 90.5184 8.38835C91.7125 8.38835 92.9066 8.38835 94.0973 8.38835C94.0973 8.95058 94.0973 9.50944 94.0973 10.0717C93.6367 10.1457 93.1932 10.2939 92.7326 10.3679C93.0444 11.1213 93.1897 11.9316 93.159 12.7448C93.2034 13.8524 93.1147 15.0139 92.5552 16.0037C91.8387 17.1281 90.4775 17.6567 89.1879 17.7678C88.5635 17.8755 87.9255 17.7678 87.3012 17.8519C87.0352 18.0252 86.8199 18.2644 86.6769 18.5455C86.6118 18.6515 86.59 18.778 86.616 18.8993C86.642 19.0206 86.7137 19.1276 86.8167 19.1986C87.2125 19.4006 87.6731 19.3568 88.1029 19.4208C88.7853 19.5252 89.5085 19.5622 90.2045 19.6632C91.0677 19.7103 91.9854 19.8181 92.7019 20.3365C92.9669 20.5507 93.1832 20.8176 93.3367 21.1198C93.4901 21.422 93.5772 21.7528 93.5923 22.0905C93.5923 23.1005 93.7015 24.2048 93.142 25.1205C92.4972 26.0564 91.2792 26.356 90.2045 26.4671C89.1319 26.5836 88.0517 26.6184 86.9737 26.5715C85.6518 26.502 84.3417 26.2886 83.0673 25.9352C83.2481 25.1542 83.3095 24.3495 83.5006 23.5786C85.5807 24.0969 87.7387 24.2395 89.8702 23.9994C90.2591 23.9523 90.706 23.6796 90.6958 23.2486C90.6958 22.949 90.7606 22.5316 90.4468 22.3531C89.9384 22.0535 89.3175 22.1074 88.7409 22.0165C88.3008 21.9424 87.8539 21.9525 87.4206 21.8683C86.3971 21.7067 85.3463 21.7505 84.4013 21.3229C83.3778 20.8179 83.1594 19.4477 83.5108 18.4647C83.7857 17.9243 84.1812 17.4524 84.6674 17.0844C84.1348 16.749 83.7054 16.2764 83.4255 15.7175C83.1428 15.0735 83.0088 14.3754 83.0332 13.674C83.0775 12.6842 82.9001 11.654 83.2584 10.708C83.4197 10.2373 83.683 9.80708 84.0301 9.44716C84.3771 9.08725 84.7995 8.80635 85.2678 8.62402ZM87.2193 10.8056C86.9963 10.8431 86.7849 10.9302 86.6011 11.0603C86.4173 11.1903 86.2658 11.36 86.1583 11.5564C85.9263 12.0209 85.9945 12.5495 85.9843 13.0478C85.9741 13.546 85.9434 14.1285 86.2879 14.5493C86.6632 15.0341 87.3114 15.1553 87.9119 15.1485C88.5703 15.1485 89.3346 15.125 89.8224 14.6267C90.3581 14.0578 90.1158 13.2296 90.1636 12.5327C90.2121 12.2579 90.1831 11.9753 90.0796 11.7158C89.976 11.4562 89.8021 11.2298 89.5768 11.0615C88.8808 10.6541 88.004 10.6878 87.2227 10.8056H87.2193Z" fill="#E83A21"/>
<path d="M117.149 9.41851C118.173 8.40852 119.729 8.11899 121.141 8.15939C122.434 8.12572 123.836 8.42198 124.764 9.368C125.35 9.96665 125.733 10.7302 125.859 11.553C126.067 12.4148 125.972 13.3036 125.992 14.1755C125.992 14.8085 125.992 15.4414 125.992 16.071C123.668 16.071 121.343 16.071 119.019 16.071C119.019 16.815 118.968 17.6768 119.493 18.2795C120.094 18.8653 120.998 18.7777 121.772 18.7777C122.986 18.7832 124.194 18.5957 125.348 18.2222C125.484 19.0403 125.73 19.8416 125.798 20.6698C124.713 21.0304 123.59 21.2698 122.451 21.3835C121.114 21.4879 119.722 21.4845 118.446 21.0233C117.942 20.8368 117.485 20.5467 117.104 20.1723C116.722 19.798 116.426 19.3478 116.235 18.8518C115.961 18.0785 115.845 17.2592 115.894 16.4413C115.894 15.2764 115.894 14.1116 115.894 12.9467C115.843 11.6775 116.221 10.3309 117.149 9.41851ZM119.398 11.4115C118.981 11.9872 119.002 12.7245 119.019 13.3979C120.339 13.3979 121.663 13.3979 122.983 13.3979C122.983 12.701 123.116 11.9165 122.663 11.3173C122.465 11.1208 122.228 10.9679 121.966 10.8687C121.704 10.7695 121.424 10.7261 121.144 10.7416C120.51 10.7382 119.797 10.8931 119.398 11.4149V11.4115Z" fill="#E83A21"/>
<path d="M65.3901 9.64414C66.7196 9.0198 68.1364 8.59539 69.5932 8.38503C70.3745 8.34126 71.2206 8.29076 71.9098 8.72169C72.2816 8.93042 72.4863 9.31758 72.7661 9.62057C72.9478 9.60889 73.1248 9.55834 73.2847 9.47244C74.5499 8.88561 75.9062 8.51343 77.2968 8.37156C78.1156 8.31096 79.0368 8.37156 79.6577 8.97419C80.456 9.68454 80.5993 10.809 80.6812 11.8089C80.6812 14.62 80.6812 17.4311 80.6812 20.2423C80.6812 20.6328 80.6812 21.0233 80.6573 21.4139C79.5997 21.4139 78.5387 21.4139 77.481 21.4139C77.481 18.3839 77.481 15.3539 77.481 12.324C77.4991 12.1371 77.4498 11.95 77.3419 11.7954C77.2339 11.6408 77.0742 11.5288 76.8908 11.479C76.1437 11.3679 75.4102 11.6102 74.7073 11.8392C74.2161 11.9988 73.7455 12.2146 73.3052 12.4822C73.2201 12.9395 73.1925 13.4053 73.2233 13.8693C73.2233 16.3841 73.2233 18.9024 73.2233 21.4172C72.1907 21.4172 71.1592 21.4172 70.1289 21.4172C70.0504 19.8989 70.1289 18.3873 70.0948 16.8521C70.0606 15.3169 70.0948 13.8221 70.0948 12.3273C70.1043 12.1273 70.0406 11.9305 69.9154 11.7729C69.7901 11.6153 69.6116 11.5074 69.4124 11.4689C68.6073 11.3746 67.8362 11.681 67.0891 11.9301C66.6449 12.074 66.2225 12.2767 65.8336 12.5327C65.7824 15.4886 65.8336 18.4479 65.8029 21.4038C64.7384 21.4038 63.674 21.4038 62.6095 21.4038C62.6095 17.4177 62.6095 13.435 62.6095 9.44888C62.6074 9.1664 62.6245 8.88408 62.6607 8.60386C63.4488 8.60386 64.2369 8.60386 65.025 8.60386C65.1169 8.96011 65.239 9.3081 65.3901 9.64414Z" fill="#E83A21"/>
<path d="M95.8813 8.82267C96.9423 8.6981 97.9794 8.38165 99.0541 8.36481C100.306 8.36481 101.603 8.24698 102.807 8.70148C103.251 8.82634 103.661 9.04779 104.007 9.34958C104.353 9.65136 104.626 10.0258 104.806 10.4454C105.047 11.0471 105.173 11.6873 105.178 12.3341C105.178 15.3416 105.178 18.348 105.178 21.3532C104.308 21.3532 103.442 21.3532 102.575 21.3532C102.521 21.0911 102.439 20.835 102.333 20.589C101.196 21.2946 99.8785 21.6649 98.5356 21.6562C98.0268 21.6771 97.5213 21.5681 97.0677 21.3399C96.6141 21.1117 96.2278 20.7719 95.9461 20.3534C95.2638 19.3434 95.3047 18.054 95.3798 16.8824C95.5265 16.1451 95.7721 15.3405 96.4033 14.8624C97.0258 14.4269 97.7763 14.2057 98.539 14.2328C99.7023 14.2328 100.869 14.2328 102.033 14.2328C102.005 13.5023 102.135 12.7482 101.937 12.0344C101.852 11.7566 101.679 11.5131 101.443 11.3402C101.207 11.1673 100.921 11.0743 100.627 11.0749C99.7575 11.0308 98.8864 11.0308 98.017 11.0749C97.3824 11.1456 96.7581 11.287 96.1201 11.3072C96.0416 10.6844 95.929 10.065 95.8335 9.44213C95.801 9.23476 95.8174 9.0228 95.8813 8.82267ZM98.5014 17.0844C98.3288 17.56 98.3288 18.08 98.5014 18.5556C98.5544 18.6754 98.6351 18.7814 98.737 18.865C98.8389 18.9486 98.9592 19.0075 99.0882 19.037C100.103 19.1582 101.131 18.9565 102.022 18.4613C102.022 17.8351 102.022 17.2089 102.022 16.5827C101.135 16.5827 100.245 16.5827 99.3578 16.5827C99.1799 16.5706 99.0024 16.6124 98.8493 16.7027C98.6963 16.793 98.5748 16.9274 98.5014 17.0877V17.0844Z" fill="#E83A21"/>
<path d="M43.1108 8.40524C44.576 8.24948 46.058 8.38804 47.4675 8.8126C47.4095 9.67446 47.1946 10.5195 47.1024 11.378C46.5497 11.3477 46.0175 11.1894 45.4682 11.1524C44.9001 11.1192 44.3305 11.1192 43.7624 11.1524C43.5236 11.1523 43.2877 11.2035 43.0709 11.3023C42.8541 11.4011 42.6617 11.5453 42.5069 11.7247C42.254 12.161 42.1355 12.6606 42.1657 13.1623C42.1657 14.3967 42.1657 15.6311 42.1657 16.8656C42.1376 17.3926 42.2797 17.9148 42.5717 18.357C42.8853 18.6746 43.3132 18.8573 43.7624 18.8654C44.8889 18.961 46.0237 18.8561 47.1127 18.5556C47.2628 19.4309 47.3447 20.3164 47.5562 21.1782C46.5667 21.5036 45.5286 21.6618 44.4857 21.6462C43.3387 21.7215 42.1897 21.5336 41.1286 21.0974C40.3317 20.734 39.7099 20.0782 39.3955 19.2693C38.9724 18.2829 38.9895 17.1921 38.9997 16.1384C38.9997 14.9399 38.9997 13.738 38.9997 12.5395C39.0679 11.5059 39.3409 10.4151 40.0778 9.64753C40.8523 8.80924 42.0225 8.52981 43.1108 8.40524Z" fill="#E83A21"/>
<path d="M53.2626 8.56003C54.9445 8.3715 56.7971 8.45567 58.2402 9.42526C59.4855 10.2703 60.0075 11.8122 60.045 13.2464C60.045 14.519 60.045 15.7882 60.045 17.0608C59.9836 18.229 59.6731 19.4544 58.827 20.3163C57.7557 21.4475 56.0977 21.8111 54.5829 21.7572C53.248 21.8571 51.917 21.5198 50.7959 20.7977C49.6462 19.9729 49.1106 18.5286 49.0901 17.1618C49.0901 15.8589 49.0901 14.5526 49.0901 13.2464C49.0399 12.6658 49.1091 12.0812 49.2936 11.5277C49.4782 10.9742 49.7742 10.4632 50.1639 10.0255C50.5537 9.58773 51.0291 9.23226 51.5616 8.98043C52.0941 8.7286 52.6727 8.5856 53.2626 8.56003ZM53.6037 11.3005C53.1597 11.4043 52.7748 11.6764 52.5325 12.058C52.3106 12.451 52.2065 12.8982 52.2323 13.3474C52.2323 14.6166 52.2323 15.8858 52.2323 17.155C52.2195 17.4964 52.3066 17.8342 52.4833 18.1279C52.66 18.4217 52.9187 18.659 53.2285 18.8114C54.0753 19.1495 55.0222 19.1495 55.8691 18.8114C56.1787 18.6614 56.4365 18.4245 56.6101 18.1304C56.7837 17.8363 56.8653 17.4981 56.8448 17.1584C56.8448 15.8117 56.8448 14.4651 56.8448 13.1454C56.8637 12.8297 56.7984 12.5146 56.6553 12.2317C56.5122 11.9487 56.2964 11.7077 56.0294 11.5328C55.2925 11.1086 54.3918 11.1927 53.5867 11.2971L53.6037 11.3005Z" fill="#E83A21"/>
<path d="M17.7281 11.0714C18.3661 11.0344 19.0484 10.9469 19.6591 11.1859C19.8922 11.2802 20.0927 11.4391 20.2362 11.6434C20.3797 11.8478 20.4601 12.0888 20.4677 12.3373C20.4677 12.8726 20.495 13.4112 20.4677 13.9465C20.402 14.264 20.2266 14.5491 19.9714 14.753C19.7163 14.9569 19.3972 15.0669 19.0689 15.0643C18.332 15.0643 17.4279 15.1989 16.8854 14.5862C16.4419 13.9667 16.5204 13.1487 16.5442 12.4316C16.558 12.1066 16.6823 11.7956 16.8971 11.5489C17.1119 11.3021 17.4046 11.1339 17.7281 11.0714Z" fill="#E83A21"/>
</svg>
