<?xml version="1.0" encoding="UTF-8" standalone="no"?> <svg id="Layer_1" data-name="Layer 1" xmlns="http://www.w3.org/2000/svg" viewBox="0 0 120 120"><defs><style>.cls-1{fill:#efb467;}.cls-2{fill:#d69a54;}.cls-3{fill:#1e0505;}.cls-4{fill:#ad5a1c;}.cls-5{fill:#874315;}</style></defs><title>Cookie icon</title><path class="cls-1" d="M72,40c0-.6,0-1.19,0-1.79A22.85,22.85,0,0,1,42.71,24.57,39.42,39.42,0,1,0,98.32,69.23,29.38,29.38,0,0,1,72,40Z"/><path class="cls-2" d="M86.08,65.12A41,41,0,0,1,28.75,84,39.41,39.41,0,0,0,98.32,69.23,29.21,29.21,0,0,1,86.08,65.12Z"/><path class="cls-3" d="M60,101.42A41.43,41.43,0,0,1,41.83,22.77l2-1,.76,2.08A20.92,20.92,0,0,0,64.18,37.59a20.61,20.61,0,0,0,7.14-1.26l2.86-1-.18,3c0,.56,0,1.11,0,1.67A27.28,27.28,0,0,0,98.52,67.24l2.28.23-.53,2.23A41.28,41.28,0,0,1,60,101.42ZM41.71,27.35A37.42,37.42,0,1,0,95.8,70.9,31.27,31.27,0,0,1,70,40.91,24.86,24.86,0,0,1,41.71,27.35Z"/><circle class="cls-4" cx="37.52" cy="54.18" r="5.82"/><path class="cls-3" d="M37.52,61.5a7.32,7.32,0,1,1,7.32-7.32A7.33,7.33,0,0,1,37.52,61.5Zm0-11.64a4.32,4.32,0,1,0,4.32,4.32A4.33,4.33,0,0,0,37.52,49.86Z"/><circle class="cls-4" cx="62.23" cy="87.17" r="4.36"/><path class="cls-5" d="M63.77,91.25a4.36,4.36,0,0,0,2.55-5.62c0-.11-.11-.2-.15-.3A40.68,40.68,0,0,1,58,88.16a5.62,5.62,0,0,0,.15.55A4.37,4.37,0,0,0,63.77,91.25Z"/><path class="cls-3" d="M62.23,93a5.86,5.86,0,1,1,5.49-7.93h0a5.86,5.86,0,0,1-3.42,7.55A5.7,5.7,0,0,1,62.23,93Zm0-8.73a2.74,2.74,0,0,0-1,.19,2.84,2.84,0,1,0,1-.19Z"/><path class="cls-4" d="M27.72,82.61a39.4,39.4,0,0,0,5.79,6.58,5.44,5.44,0,1,0-5.79-6.58Z"/><path class="cls-3" d="M33,90.74l-.49-.44a40.91,40.91,0,0,1-6-6.83l-.38-.54.14-.64A6.94,6.94,0,0,1,40,83.78a6.88,6.88,0,0,1-6.32,6.9Zm-3.62-8.41A38.16,38.16,0,0,0,34,87.59a3.94,3.94,0,0,0-1-7.75A4,4,0,0,0,29.37,82.33Z"/><circle class="cls-4" cx="62.23" cy="62.72" r="8.22"/><path class="cls-3" d="M62.23,72.44A9.72,9.72,0,1,1,72,62.72,9.73,9.73,0,0,1,62.23,72.44Zm0-16.44A6.72,6.72,0,1,0,69,62.72,6.73,6.73,0,0,0,62.23,56Z"/></svg>