<svg enable-background="new 0 0 512 512" viewBox="0 0 512 512" xmlns="http://www.w3.org/2000/svg"><path d="m386.69 304.4c-35.587.0-64.538 28.951-64.538 64.538s28.951 64.538 64.538 64.538c35.593.0 64.538-28.951 64.538-64.538S422.277 304.4 386.69 304.4zm0 96.807c-17.796.0-32.269-14.473-32.269-32.269s14.473-32.269 32.269-32.269 32.269 14.473 32.269 32.269c0 17.797-14.473 32.269-32.269 32.269z" fill="#373b2f"/><path d="m166.18 304.4c-35.587.0-64.538 28.951-64.538 64.538s28.951 64.538 64.538 64.538 64.538-28.951 64.538-64.538-28.951-64.538-64.538-64.538zm0 96.807c-17.796.0-32.269-14.473-32.269-32.269s14.473-32.269 32.269-32.269c17.791.0 32.269 14.473 32.269 32.269.0 17.797-14.473 32.269-32.269 32.269z" fill="#373b2f"/><path d="m430.15 119.68c-2.743-5.448-8.32-8.885-14.419-8.885h-84.975v32.269h75.025l43.934 87.384 28.838-14.5-48.403-96.268z" fill="#373b2f"/><path d="M216.2 353.34h122.08v32.269H216.2z" fill="#373b2f"/><path d="m117.78 353.34H61.848c-8.912.0-16.134 7.223-16.134 16.134.0 8.912 7.223 16.134 16.134 16.134h55.933c8.912.0 16.134-7.223 16.134-16.134.0-8.912-7.223-16.134-16.135-16.134z" fill="#373b2f"/><path d="m508.61 254.71-31.736-40.874c-3.049-3.937-7.755-6.239-12.741-6.239h-117.24v-112.94c0-8.912-7.223-16.134-16.134-16.134h-268.91c-8.912.0-16.134 7.223-16.134 16.134s7.223 16.134 16.134 16.134h252.77v112.94c0 8.912 7.223 16.134 16.134 16.134h125.48l23.497 30.268v83.211h-44.639c-8.912.0-16.134 7.223-16.134 16.134.0 8.912 7.223 16.134 16.134 16.134h60.773c8.912.0 16.134-7.223 16.135-16.134v-104.87c0-3.582-1.194-7.067-3.388-9.896z" fill="#373b2f"/><path d="m116.71 271.6H42.491c-8.912.0-16.134 7.223-16.134 16.134.0 8.912 7.223 16.134 16.134 16.134h74.218c8.912.0 16.134-7.223 16.134-16.134.001-8.911-7.222-16.134-16.133-16.134z" fill="#373b2f"/><path d="m153.82 208.13h-137.68c-8.911.0-16.134 7.223-16.134 16.135s7.223 16.134 16.134 16.134h137.68c8.912.0 16.134-7.223 16.134-16.134s-7.222-16.135-16.134-16.135z" fill="#373b2f"/><path d="m180.17 144.67h-137.68c-8.912.0-16.134 7.223-16.134 16.134.0 8.912 7.223 16.134 16.134 16.134h137.68c8.912.0 16.134-7.223 16.134-16.134.001-8.911-7.222-16.134-16.134-16.134z" fill="#373b2f"/></svg>