<svg clip-rule="evenodd" fill-rule="evenodd" stroke-linejoin="round" stroke-miterlimit="1.41421" viewBox="0 0 314 314" xmlns="http://www.w3.org/2000/svg"><g fill="#8c8c8c" fill-rule="nonzero"><path d="m157 314c86.57.0 157-70.43 157-157S243.57.0 157 0 0 70.43.0 157s70.43 157 157 157zm0-3e2c78.852.0 143 64.148 143 143s-64.148 143-143 143S14 235.852 14 157 78.148 14 157 14z"/><path d="m118.301 142.891c16.012.0 28.988-12.981 28.988-28.989.004-16.011-12.976-28.992-28.988-28.992s-28.988 12.981-28.988 28.988c.015 16.004 12.984 28.973 28.988 28.993zm0-43.981c8.277.0 14.988 6.711 14.988 14.988.004 8.282-6.707 14.993-14.988 14.993-8.278.0-14.988-6.711-14.988-14.993.007-8.273 6.714-14.976 14.988-14.988z"/><path d="m164.953 201.859c0 16.012 12.981 28.989 28.988 28.989 16.012.0 28.993-12.977 28.993-28.989.0-16.011-12.981-28.992-28.993-28.992-16.003.02-28.968 12.988-28.988 28.992zm43.981.0c0 8.278-6.711 14.989-14.993 14.989-8.277.0-14.988-6.711-14.988-14.989.0-8.277 6.711-14.988 14.988-14.992 8.278.012 14.981 6.715 14.993 14.992z"/><path d="m103.699 238.727c3.239 2.113 7.578 1.199 9.688-2.039l98.953-151.727c1.371-2.098 1.519-4.766.39-7-1.132-2.234-3.371-3.695-5.871-3.828s-4.882 1.078-6.246 3.18l-98.953 151.726c-2.113 3.242-1.199 7.578 2.039 9.688z"/></g></svg>