<svg width="14" height="14" viewBox="0 0 14 14" fill="none" xmlns="http://www.w3.org/2000/svg"><path fill-rule="evenodd" clip-rule="evenodd" d="M13.75 2.5C13.75 2.91421 13.4142 3.25 13 3.25H6.12132C6.0105 3.56343 5.83054 3.85144 5.59099 4.09099 5.16903 4.51295 4.59674 4.75 4 4.75 3.40326 4.75 2.83097 4.51295 2.40901 4.09099 2.16946 3.85144 1.9895 3.56343 1.87868 3.25H1C.585788 3.25.250001 2.91421.250001 2.5.250001 2.08579.585788 1.75 1 1.75H1.87868C1.9895 1.43657 2.16946 1.14856 2.40901.909009 2.83097.487052 3.40326.25 4 .25 4.59674.25 5.16903.487053 5.59099.909009 5.83054 1.14856 6.0105 1.43657 6.12132 1.75H13C13.4142 1.75 13.75 2.08579 13.75 2.5zm0 4.5C13.75 7.41421 13.4142 7.75 13 7.75H12.1213C12.0105 8.06343 11.8305 8.35144 11.591 8.59099 11.169 9.01295 10.5967 9.25 10 9.25 9.40326 9.25 8.83097 9.01295 8.40901 8.59099 8.16946 8.35144 7.9895 8.06343 7.87868 7.75H1C.585787 7.75.250001 7.41421.250001 7 .250001 6.58579.585788 6.25 1 6.25H7.87868C7.9895 5.93657 8.16946 5.64856 8.40901 5.40901 8.83097 4.98705 9.40326 4.75 10 4.75 10.5967 4.75 11.169 4.98705 11.591 5.40901 11.8305 5.64856 12.0105 5.93657 12.1213 6.25H13C13.4142 6.25 13.75 6.58579 13.75 7zm0 4.5C13.75 11.9142 13.4142 12.25 13 12.25H6.12132C6.0105 12.5634 5.83054 12.8514 5.59099 13.091 5.16903 13.5129 4.59674 13.75 4 13.75 3.40326 13.75 2.83097 13.5129 2.40901 13.091 2.16946 12.8514 1.9895 12.5634 1.87868 12.25H1C.585787 12.25.25 11.9142.25 11.5.25 11.0858.585787 10.75 1 10.75H1.87868C1.9895 10.4366 2.16946 10.1486 2.40901 9.90901 2.83097 9.48705 3.40326 9.25 4 9.25 4.59674 9.25 5.16903 9.48705 5.59099 9.90901 5.83054 10.1486 6.0105 10.4366 6.12132 10.75H13C13.4142 10.75 13.75 11.0858 13.75 11.5zm-3-4.5C10.75 6.80109 10.671 6.61032 10.5303 6.46967 10.3897 6.32902 10.1989 6.25 10 6.25 9.80109 6.25 9.61032 6.32902 9.46967 6.46967 9.32902 6.61032 9.25 6.80109 9.25 7 9.25 7.19891 9.32902 7.38968 9.46967 7.53033 9.61032 7.67098 9.80109 7.75 10 7.75 10.1989 7.75 10.3897 7.67098 10.5303 7.53033 10.671 7.38968 10.75 7.19891 10.75 7zm-6-4.5C4.75 2.30109 4.67098 2.11032 4.53033 1.96967 4.38968 1.82902 4.19891 1.75 4 1.75 3.80109 1.75 3.61032 1.82902 3.46967 1.96967 3.32902 2.11032 3.25 2.30109 3.25 2.5 3.25 2.69891 3.32902 2.88968 3.46967 3.03033 3.61032 3.17098 3.80109 3.25 4 3.25 4.19891 3.25 4.38968 3.17098 4.53033 3.03033 4.67098 2.88968 4.75 2.69891 4.75 2.5zm0 9C4.75 11.3011 4.67098 11.1103 4.53033 10.9697 4.38968 10.829 4.19891 10.75 4 10.75 3.80109 10.75 3.61032 10.829 3.46967 10.9697 3.32902 11.1103 3.25 11.3011 3.25 11.5 3.25 11.6989 3.32902 11.8897 3.46967 12.0303 3.61032 12.171 3.80109 12.25 4 12.25 4.19891 12.25 4.38968 12.171 4.53033 12.0303 4.67098 11.8897 4.75 11.6989 4.75 11.5z" fill="#fff"/></svg>