<svg width="23" height="18" viewBox="0 0 23 18" fill="none" xmlns="http://www.w3.org/2000/svg">
<path d="M12.4286 13.5714V2.14286C12.4286 1.83975 12.3082 1.54906 12.0938 1.33474C11.8795 1.12041 11.5888 1 11.2857 1H2.14286C1.83975 1 1.54906 1.12041 1.33474 1.33474C1.12041 1.54906 1 1.83975 1 2.14286V13.5714C1 13.8745 1.12041 14.1652 1.33474 14.3796C1.54906 14.5939 1.83975 14.7143 2.14286 14.7143H3.28571M12.4286 13.5714C12.4286 13.8745 12.3082 14.1652 12.0938 14.3796C11.8795 14.5939 11.5888 14.7143 11.2857 14.7143H7.85714M12.4286 13.5714V4.42857C12.4286 4.12547 12.549 3.83478 12.7633 3.62045C12.9776 3.40612 13.2683 3.28571 13.5714 3.28571H16.5269C16.8299 3.28578 17.1206 3.40623 17.3349 3.62057L21.2366 7.52229C21.4509 7.73656 21.5714 8.02721 21.5714 8.33029V13.5714C21.5714 13.8745 21.451 14.1652 21.2367 14.3796C21.0224 14.5939 20.7317 14.7143 20.4286 14.7143H19.2857M12.4286 13.5714C12.4286 13.8745 12.549 14.1652 12.7633 14.3796C12.9776 14.5939 13.2683 14.7143 13.5714 14.7143H14.7143M3.28571 14.7143C3.28571 15.3205 3.52653 15.9019 3.95518 16.3305C4.38384 16.7592 4.96522 17 5.57143 17C6.17764 17 6.75902 16.7592 7.18767 16.3305C7.61633 15.9019 7.85714 15.3205 7.85714 14.7143M3.28571 14.7143C3.28571 14.1081 3.52653 13.5267 3.95518 13.098C4.38384 12.6694 4.96522 12.4286 5.57143 12.4286C6.17764 12.4286 6.75902 12.6694 7.18767 13.098C7.61633 13.5267 7.85714 14.1081 7.85714 14.7143M19.2857 14.7143C19.2857 15.3205 19.0449 15.9019 18.6162 16.3305C18.1876 16.7592 17.6062 17 17 17C16.3938 17 15.8124 16.7592 15.3838 16.3305C14.9551 15.9019 14.7143 15.3205 14.7143 14.7143M19.2857 14.7143C19.2857 14.1081 19.0449 13.5267 18.6162 13.098C18.1876 12.6694 17.6062 12.4286 17 12.4286C16.3938 12.4286 15.8124 12.6694 15.3838 13.098C14.9551 13.5267 14.7143 14.1081 14.7143 14.7143" stroke="white" stroke-width="1.6" stroke-linecap="round" stroke-linejoin="round"/>
</svg>
