<svg width="57" height="30" viewBox="0 0 57 30" fill="none" xmlns="http://www.w3.org/2000/svg">
<path d="M41.3961 0H14.9961C6.74609 0 -0.00390625 6.75 -0.00390625 15C-0.00390625 23.25 6.74609 30 14.9961 30H41.3961C49.6461 30 56.3961 23.25 56.3961 15C56.3961 6.75 49.6461 0 41.3961 0Z" fill="white"/>
<path d="M41.3961 1.215C43.2337 1.21269 45.0528 1.58263 46.7436 2.3025C50.0515 3.71041 52.6857 6.3446 54.0936 9.6525C54.8112 11.344 55.1811 13.1626 55.1811 15C55.1811 16.8374 54.8112 18.656 54.0936 20.3475C52.6857 23.6554 50.0515 26.2896 46.7436 27.6975C45.0528 28.4174 43.2337 28.7873 41.3961 28.785H14.9961C13.1584 28.7873 11.3394 28.4174 9.64859 27.6975C6.34069 26.2896 3.70651 23.6554 2.29859 20.3475C1.58094 18.656 1.2111 16.8374 1.2111 15C1.2111 13.1626 1.58094 11.344 2.29859 9.6525C3.70651 6.3446 6.34069 3.71041 9.64859 2.3025C11.3394 1.58263 13.1584 1.21269 14.9961 1.215H41.3961ZM41.3961 0H14.9961C6.74609 0 -0.00390625 6.75 -0.00390625 15C-0.00390625 23.25 6.74609 30 14.9961 30H41.3961C49.6461 30 56.3961 23.25 56.3961 15C56.3961 6.75 49.6461 0 41.3961 0Z" fill="#3C4043"/>
<path d="M26.8931 16.065V20.6025H25.4531V9.39746H29.2706C30.2381 9.39746 31.0631 9.71996 31.7381 10.365C32.4281 11.01 32.7731 11.7975 32.7731 12.7275C32.7826 13.175 32.6951 13.6193 32.5164 14.0297C32.3377 14.4402 32.0722 14.807 31.7381 15.105C31.0706 15.7425 30.2456 16.0575 29.2706 16.0575H26.8931V16.065ZM26.8931 10.7775V14.685H29.3006C29.5651 14.6919 29.8282 14.6443 30.0734 14.5449C30.3186 14.4455 30.5406 14.2966 30.7256 14.1075C30.9099 13.9298 31.0561 13.7165 31.1554 13.4805C31.2546 13.2446 31.3049 12.9909 31.3031 12.735C31.3041 12.4813 31.2534 12.2302 31.1541 11.9968C31.0548 11.7634 30.909 11.5527 30.7256 11.3775C30.3506 10.98 29.8781 10.785 29.3006 10.785H26.8931V10.7775Z" fill="#3C4043"/>
<path d="M36.5407 12.6827C37.6057 12.6827 38.4457 12.9677 39.0607 13.5377C39.6757 14.1077 39.9832 14.8877 39.9832 15.8777V20.6027H38.6107V19.5377H38.5507C37.9582 20.4152 37.1632 20.8502 36.1732 20.8502C35.3257 20.8502 34.6207 20.6027 34.0507 20.1002C33.7776 19.871 33.5591 19.5837 33.4112 19.2593C33.2632 18.9349 33.1896 18.5816 33.1957 18.2252C33.1957 17.4302 33.4957 16.8002 34.0957 16.3352C34.6957 15.8627 35.4982 15.6302 36.4957 15.6302C37.3507 15.6302 38.0557 15.7877 38.6032 16.1027V15.7727C38.6032 15.2702 38.4082 14.8502 38.0107 14.4977C37.6289 14.1523 37.1304 13.9647 36.6157 13.9727C35.8132 13.9727 35.1757 14.3102 34.7107 14.9927L33.4432 14.1977C34.1407 13.1827 35.1732 12.6777 36.5407 12.6827ZM34.6807 18.2477C34.679 18.4311 34.7218 18.6122 34.8054 18.7754C34.889 18.9387 35.0109 19.0793 35.1607 19.1852C35.4791 19.4347 35.8737 19.5671 36.2782 19.5602C36.8857 19.5602 37.4257 19.3352 37.8982 18.8852C38.3707 18.4352 38.6107 17.9102 38.6107 17.3027C38.1607 16.9502 37.5382 16.7702 36.7357 16.7702C36.1507 16.7702 35.6632 16.9127 35.2732 17.1902C34.8757 17.4827 34.6807 17.8352 34.6807 18.2477Z" fill="#3C4043"/>
<path d="M47.8095 12.9297L43.0095 23.9697H41.5245L43.3095 20.1072L40.1445 12.9297H41.712L43.992 18.4347H44.022L46.242 12.9297H47.8095Z" fill="#3C4043"/>
<path d="M21.1599 15.1503C21.1603 14.6976 21.1201 14.2458 21.0399 13.8003H15.0039V16.2753H18.4802C18.4134 16.6783 18.2644 17.0632 18.0425 17.4062C17.8205 17.7492 17.5304 18.0428 17.1902 18.2688V19.8753H19.2594C20.4677 18.7563 21.1599 17.1003 21.1599 15.1503Z" fill="#4285F4"/>
<path d="M17.1931 18.2687C16.6171 18.6572 15.8754 18.8844 15.0076 18.8844C13.3314 18.8844 11.9094 17.7549 11.4001 16.2324H9.26562V17.8884C9.80073 18.9525 10.621 19.8468 11.635 20.4717C12.6489 21.0965 13.8166 21.4272 15.0076 21.4269C16.7431 21.4269 18.2011 20.8562 19.2624 19.8737L17.1931 18.2687Z" fill="#34A853"/>
<path d="M11.1988 15.0002C11.1991 14.5822 11.2669 14.1671 11.3998 13.7709V12.1187H9.26529C8.816 13.0141 8.58203 14.0021 8.58203 15.0039C8.58203 16.0057 8.816 16.9937 9.26529 17.8892L11.3998 16.2332C11.2665 15.8357 11.1987 15.4193 11.1988 15.0002Z" fill="#FABB05"/>
<path d="M15.0106 11.1226C15.926 11.1086 16.8102 11.4547 17.4729 12.0863L19.3066 10.2541C18.1929 9.21683 16.7409 8.58008 15.0076 8.58008C13.8166 8.57993 12.649 8.91072 11.6351 9.53555C10.6212 10.1604 9.80086 11.0546 9.26562 12.1186L11.4001 13.7746C11.9124 12.2521 13.3344 11.1226 15.0106 11.1226Z" fill="#E94235"/>
</svg>
