<svg width="29" height="19" viewBox="0 0 29 19" fill="none" xmlns="http://www.w3.org/2000/svg">
<path d="M11.9286 0C10.8635 0 10 0.863451 10 1.92857V7.07143C10 8.13655 10.8635 9 11.9286 9H17.0714C18.1366 9 19 8.13655 19 7.07143V1.92857C19 0.863451 18.1366 0 17.0714 0H11.9286Z" fill="#A397E0"/>
<path d="M21.9286 0C20.8634 0 20 0.863451 20 1.92857V7.07143C20 8.13655 20.8634 9 21.9286 9H27.0714C28.1365 9 29 8.13655 29 7.07143V1.92857C29 0.863451 28.1365 0 27.0714 0H21.9286Z" fill="#A397E0"/>
<path d="M11.9286 10C10.8635 10 10 10.8634 10 11.9286V17.0714C10 18.1365 10.8635 19 11.9286 19H17.0714C18.1366 19 19 18.1365 19 17.0714V11.9286C19 10.8634 18.1366 10 17.0714 10H11.9286Z" fill="#A397E0"/>
<path d="M1.92857 0C0.863451 0 0 0.863451 0 1.92857V7.07143C0 8.13655 0.863451 9 1.92857 9H7.07143C8.13655 9 9 8.13655 9 7.07143V1.92857C9 0.863451 8.13655 0 7.07143 0H1.92857Z" fill="#A397E0"/>
<path d="M1.92857 10C0.863451 10 0 10.8634 0 11.9286V17.0714C0 18.1365 0.863451 19 1.92857 19H7.07143C8.13655 19 9 18.1365 9 17.0714V11.9286C9 10.8634 8.13655 10 7.07143 10H1.92857Z" fill="#A397E0"/>
<path d="M21.9286 10C20.8634 10 20 10.8634 20 11.9286V17.0714C20 18.1365 20.8634 19 21.9286 19H27.0714C28.1365 19 29 18.1365 29 17.0714V11.9286C29 10.8634 28.1365 10 27.0714 10H21.9286Z" fill="#A397E0"/>
</svg>
