<svg width="18" height="18" viewBox="0 0 18 18" fill="none" xmlns="http://www.w3.org/2000/svg">
<path d="M17.946 5.28941C17.9022 4.33139 17.7501 3.67715 17.5276 3.10476C17.3017 2.50422 16.9474 1.96025 16.4895 1.51063C16.04 1.05277 15.4959 0.698324 14.8954 0.472278C14.3228 0.249941 13.6687 0.0979164 12.7107 0.0543827C11.7509 0.0104371 11.4443 0 9.00007 0C6.55587 0 6.24921 0.0104371 5.28941 0.0541081C4.33139 0.0979164 3.67729 0.250078 3.10476 0.472553C2.50422 0.698461 1.96025 1.05277 1.51063 1.51063C1.05277 1.96011 0.698324 2.50408 0.472278 3.10462C0.249941 3.67715 0.0979164 4.33139 0.0543827 5.28927C0.0104371 6.24921 0 6.55573 0 8.99993C0 11.4443 0.0104371 11.7509 0.0543827 12.7107C0.0980537 13.6686 0.250216 14.3228 0.47269 14.8954C0.698598 15.4958 1.05291 16.0399 1.51077 16.4894C1.96025 16.9472 2.50435 17.3015 3.1049 17.5274C3.67729 17.7501 4.33153 17.9021 5.28955 17.9459C6.24948 17.9897 6.556 18 9.00021 18C11.4444 18 11.7511 17.9897 12.7109 17.9459C13.6689 17.9021 14.323 17.7501 14.8955 17.5274C16.1044 17.06 17.0601 16.1043 17.5276 14.8954C17.7502 14.3228 17.9022 13.6686 17.946 12.7107C17.9897 11.7508 18.0001 11.4443 18.0001 9.00007C18.0001 6.55573 17.9897 6.24921 17.946 5.28941ZM16.3259 12.637C16.286 13.5145 16.1393 13.9911 16.0161 14.3082C15.7133 15.0931 15.093 15.7135 14.308 16.0163C13.9909 16.1395 13.5144 16.2861 12.6368 16.3261C11.688 16.3695 11.4033 16.3785 9.00007 16.3785C6.59665 16.3785 6.31211 16.3695 5.36315 16.3261C4.48575 16.2861 4.00922 16.1395 3.69198 16.0163C3.30114 15.8719 2.94752 15.6419 2.6572 15.3429C2.35823 15.0526 2.12821 14.6991 1.98387 14.3082C1.86069 13.9911 1.71402 13.5145 1.67405 12.637C1.6308 11.688 1.62159 11.4033 1.62159 9.00021C1.62159 6.59693 1.6308 6.31238 1.67405 5.36329C1.71415 4.48575 1.86069 4.00922 1.98387 3.69212C2.12821 3.30114 2.35837 2.94752 2.6572 2.6572C2.94752 2.35823 3.30114 2.12821 3.69212 1.98401C4.00922 1.86069 4.48575 1.71415 5.36329 1.67405C6.31224 1.6308 6.59693 1.62159 9.00007 1.62159H8.99993C11.4031 1.62159 11.6878 1.6308 12.6368 1.67419C13.5144 1.71415 13.9908 1.86082 14.308 1.98401C14.6989 2.12834 15.0525 2.35837 15.3428 2.6572C15.6418 2.94752 15.8718 3.30114 16.016 3.69212C16.1393 4.00922 16.286 4.48575 16.3259 5.36329C16.3692 6.31224 16.3784 6.59693 16.3784 9.00007C16.3784 11.4033 16.3693 11.6879 16.3259 12.637Z" fill="white"/>
<path d="M9.00048 4.37793C6.44806 4.37793 4.37891 6.44722 4.37891 8.99964C4.37891 11.5521 6.44806 13.6212 9.00048 13.6212C11.553 13.6212 13.6222 11.5521 13.6222 8.99964C13.6222 6.44722 11.553 4.37793 9.00048 4.37793ZM9.00048 11.9996C7.34373 11.9995 6.0005 10.6564 6.00064 8.9995C6.00064 7.34275 7.34373 5.99952 9.00061 5.99952C10.6575 5.99966 12.0006 7.34275 12.0006 8.9995C12.0006 10.6564 10.6574 11.9996 9.00048 11.9996Z" fill="white"/>
<path d="M14.8847 4.19631C14.8847 4.79274 14.4011 5.27628 13.8047 5.27628C13.2081 5.27628 12.7246 4.79274 12.7246 4.19631C12.7246 3.59975 13.2081 3.11621 13.8047 3.11621C14.4011 3.11621 14.8847 3.59975 14.8847 4.19631Z" fill="white"/>
</svg>
