<svg width="19" height="19" viewBox="0 0 19 19" fill="none" xmlns="http://www.w3.org/2000/svg">
<path fill-rule="evenodd" clip-rule="evenodd" d="M1.92857 0C0.863451 0 0 0.863451 0 1.92857V7.07143C0 8.13655 0.863451 9 1.92857 9H6.57143H7.07143H11.9286H13.4286H17.0714C18.1365 9 19 8.13655 19 7.07143V1.92857C19 0.863451 18.1365 0 17.0714 0H13.4286H11.9286H7.07143H6.57143H1.92857Z" fill="#A397E0"/>
<path fill-rule="evenodd" clip-rule="evenodd" d="M1.92857 10C0.863451 10 0 10.8634 0 11.9286V17.0714C0 18.1365 0.863451 19 1.92857 19H6.57143H7.07143H11.9286H13.4286H17.0714C18.1365 19 19 18.1365 19 17.0714V11.9286C19 10.8634 18.1365 10 17.0714 10H13.4286H11.9286H7.07143H6.57143H1.92857Z" fill="#A397E0"/>
</svg>
