<svg fill="none" height="24" viewBox="0 0 24 24" width="24" xmlns="http://www.w3.org/2000/svg"><path d="m11.9991 8.87653c-1.7203.0-3.12418 1.40387-3.12418 3.12417.0 1.7204 1.40388 3.1243 3.12418 3.1243s3.1243-1.4039 3.1243-3.1243c0-1.7203-1.404-3.12417-3.1243-3.12417zm9.3703 3.12417c0-1.2937.0118-2.57574-.0609-3.86714-.0726-1.5-.4148-2.83125-1.5117-3.92813-1.0992-1.09922-2.4281-1.43906-3.9281-1.51172-1.2938-.07265-2.5758-.06093-3.8672-.06093-1.2938.0-2.5758-.01172-3.86721.06093-1.5.07266-2.83125.41485-3.92812 1.51172-1.09922 1.09922-1.43907 2.42813-1.51172 3.92813-.07266 1.29375-.06094 2.57574-.06094 3.86714.0 1.2915-.01172 2.5758.06094 3.8672.07265 1.5.41484 2.8313 1.51172 3.9282 1.09921 1.0992 2.42812 1.439 3.92812 1.5117 1.29375.0726 2.57581.0609 3.86721.0609 1.2937.0 2.5758.0117 3.8672-.0609 1.5-.0727 2.8312-.4149 3.9281-1.5117 1.0992-1.0993 1.4391-2.4282 1.5117-3.9282.075-1.2914.0609-2.5734.0609-3.8672zm-9.3703 4.8071c-2.66012.0-4.807-2.1469-4.807-4.8071.0-2.66011 2.14688-4.80699 4.807-4.80699 2.6602.0 4.8071 2.14688 4.8071 4.80699.0 2.6602-2.1469 4.8071-4.8071 4.8071zm5.0039-8.6883c-.6211.0-1.1226-.50157-1.1226-1.12266s.5015-1.12266 1.1226-1.12266 1.1227.50157 1.1227 1.12266c2e-4.14748-.0287.29355-.0851.42984-.0563.13629-.139.26013-.2433.36441-.1043.10429-.2281.18697-.3644.24333-.1363.05635-.2824.08526-.4299.08508z" fill="#000"/></svg>