<svg width="60" height="60" viewBox="0 0 60 60" fill="none" xmlns="http://www.w3.org/2000/svg">
<rect width="60" height="60" rx="30" fill="#F7F5FF"/>
<path d="M26.3398 23.9388C26.0944 23.5851 25.9753 23.1475 26.0043 22.7065C26.0333 22.2655 26.2084 21.8506 26.4976 21.538C26.7868 21.2253 27.1706 21.036 27.5785 21.0046C27.9865 20.9733 28.3912 21.1021 28.7184 21.3673L35.5143 28.7143C35.8256 29.0576 36 29.5192 36 30C36 30.4808 35.8256 30.9424 35.5143 31.2857L28.7184 38.6327C28.3912 38.8979 27.9865 39.0267 27.5785 38.9954C27.1706 38.964 26.7868 38.7747 26.4976 38.462C26.2084 38.1494 26.0333 37.7345 26.0043 37.2935C25.9753 36.8525 26.0944 36.4149 26.3398 36.0612L31.9295 30L26.3228 23.9388H26.3398Z" fill="#6551CC"/>
</svg>
