<svg width="117" height="16" viewBox="0 0 117 16" fill="none" xmlns="http://www.w3.org/2000/svg">
<path fill-rule="evenodd" clip-rule="evenodd" d="M0.542356 0C0.243585 0 0 0.242158 0 0.539978C0.273081 8.29425 6.41218 14.5594 14.1346 15.0704C14.4728 15.0932 14.813 15.0789 15.1565 15.0789C16.2545 15.0789 17.3939 14.8863 18.4249 14.6603C21.7599 13.931 24.23 10.9827 24.23 7.41887C24.23 7.17243 24.2176 6.93027 24.1943 6.69144C24.151 6.24661 24.0678 5.81321 23.9493 5.39645C23.0663 2.28266 20.1918 0 16.7817 0C13.3719 0 10.4979 2.28266 9.61351 5.39645C10.2244 7.54446 11.782 9.2957 13.8092 10.1754C13.1322 9.45175 12.7183 8.48312 12.7183 7.41887C12.7183 5.18379 14.5375 3.37212 16.7817 3.37212C19.0253 3.37212 20.8446 5.18379 20.8446 7.41887C20.8446 8.48312 20.4307 9.45175 19.7546 10.1754C19.0124 10.9665 17.9549 11.4637 16.7817 11.4637C13.4818 11.4637 10.6407 9.50456 9.36849 6.69144C9.18105 6.27611 9.02691 5.8427 8.91082 5.39454C8.74431 4.748 8.65582 4.06958 8.65582 3.37212C8.65582 2.39969 8.82852 1.46769 9.14346 0.603728C9.15821 0.564241 9.17391 0.525229 9.18866 0.485742C9.19437 0.4591 9.19722 0.431982 9.19722 0.403913C9.19722 0.181261 9.01501 0 8.79141 0H0.543784" fill="#FEDC63"/>
<path fill-rule="evenodd" clip-rule="evenodd" d="M27.9067 0.408195C28.1603 1.35351 28.2954 2.34688 28.2954 3.37165C28.2954 6.83797 26.7497 9.94558 24.3086 12.0484C23.6977 12.508 23.1773 12.9642 22.1582 13.5033C24.006 11.7658 24.909 9.73007 24.909 7.41839C24.909 6.71904 24.821 6.04062 24.654 5.39407C24.821 4.74847 24.909 4.07005 24.909 3.37165C24.909 2.37495 24.7287 1.42107 24.398 0.539026C24.3833 0.49716 24.3752 0.451964 24.3752 0.404389C24.3752 0.181261 24.5584 0 24.7824 0H27.3824C27.6312 0 27.8434 0.18031 27.9067 0.408195Z" fill="#FEDC63"/>
<path d="M32.7021 8.14724C32.7021 11.6569 34.7721 13.6336 38.0177 13.6336C39.6253 13.6336 40.7842 13.1864 41.6035 12.5831V10.6202H40.5525C40.0273 11.1307 39.3631 11.5627 38.2037 11.5627C36.58 11.5627 35.7313 10.5132 35.7313 8.03972C35.7313 5.75278 36.7046 4.65428 38.3422 4.65428C39.3156 4.65428 39.965 4.99491 40.3665 5.36647H41.5102V3.31028C40.7067 2.8469 39.7809 2.53813 38.2651 2.53813C34.9268 2.53813 32.7021 4.60908 32.7021 8.14724ZM40.1971 0.587553L38.7756 2.13422H36.9054L35.5452 0.587553V0H37.0439L37.9097 0.587553L38.7594 0H40.1971V0.587553Z" fill="#0826C4"/>
<path d="M44.8795 10.036C45.0189 11.4119 45.6669 11.7663 46.7954 11.7663C47.7079 11.7663 48.3877 11.5042 48.8663 11.1645H49.7312V12.8177C49.0209 13.2197 48.0623 13.6203 46.3634 13.6203C43.5346 13.6203 42.0664 12.0451 42.0664 9.47984C42.0664 6.86844 43.7663 5.229 46.224 5.229C48.7588 5.229 50.0567 6.57443 50.0567 9.32523C50.0567 9.64969 50.0262 9.94275 50.0262 10.036H44.8795ZM44.8947 8.58305H47.4291C47.3834 7.33135 46.9657 6.93077 46.224 6.93077C45.5908 6.93077 45.0494 7.25428 44.8947 8.58305Z" fill="#0826C4"/>
<path d="M50.7597 12.9688V11.1462H51.7026C52.0271 11.4378 52.7069 11.7475 53.5875 11.7475C54.3297 11.7475 54.7926 11.5777 54.7926 11.1619C54.7926 10.7285 54.5148 10.5876 53.3858 10.4349C51.6565 10.218 50.6816 9.61521 50.6816 7.91535C50.6816 6.13842 52.0737 5.25732 54.1132 5.25732C55.4111 5.25732 56.168 5.47379 56.8645 5.7973V7.59136H55.9839C55.6128 7.34349 55.0091 7.09658 54.1903 7.09658C53.4172 7.09658 53.1237 7.29687 53.1237 7.68318C53.1237 8.02382 53.4795 8.19366 54.5148 8.31641C56.4163 8.54857 57.3274 9.12043 57.3274 10.8526C57.3274 12.5829 56.1837 13.6177 53.6965 13.6177C52.2735 13.6177 51.4233 13.3094 50.7597 12.9688Z" fill="#0826C4"/>
<path d="M60.8559 8.38887L63.3907 5.35928H65.7091V6.02533L63.4678 8.57298L66.0188 12.8395V13.5046H63.4064L61.521 10.3352L60.8559 11.0626V13.5046H58.0742V2.68604H59.8369C60.687 2.68604 60.8559 2.9025 60.8559 4.1385V8.38887Z" fill="#0826C4"/>
<path d="M71.1309 12.7205C70.559 13.3557 69.8021 13.6021 68.7983 13.6021C67.3605 13.6021 66.2178 12.7838 66.2178 11.1758C66.2178 9.46022 67.5304 8.64193 69.4163 8.64193C70.0347 8.64193 70.5138 8.7033 70.9767 8.79655V8.23944C70.9767 7.5301 70.6066 7.20468 69.6013 7.20468C68.7982 7.20468 68.1341 7.43495 67.6698 7.74466H66.8348V5.87448C67.5927 5.55097 68.6893 5.22651 70.1437 5.22651C72.5676 5.22651 73.758 6.03005 73.758 8.0382V13.4941H72.2432C71.5952 13.4941 71.2855 13.2619 71.1309 12.7205ZM70.9767 10.0949C70.6984 10.0468 70.3739 10.0164 70.0652 10.0164C69.3235 10.0164 68.8601 10.3099 68.8601 10.9898C68.8601 11.6853 69.2926 11.9793 69.8953 11.9793C70.3126 11.9793 70.6827 11.7786 70.9767 11.5312V10.0949ZM69.3235 4.82402V4.31402L69.833 2.62891H72.5072V3.29401L70.9458 4.82402H69.3235Z" fill="#0826C4"/>
<path d="M81.3437 12.8477V16H78.5615V5.35175H80.495C80.9127 5.35175 81.1591 5.50684 81.269 6.23236C81.8694 5.66146 82.6582 5.229 83.77 5.229C85.3162 5.229 86.8477 6.23236 86.8477 9.20105C86.8477 12.3068 85.1464 13.4195 83.339 13.4195C82.4579 13.4195 81.8242 13.2178 81.3437 12.8477ZM81.3437 7.56209V11.302C81.6558 11.5175 82.0088 11.6279 82.4727 11.6279C83.3228 11.6279 84.0341 11.2406 84.0341 9.44797C84.0341 7.70053 83.3538 7.3009 82.5193 7.3009C82.1801 7.3009 81.7162 7.40747 81.3437 7.56209Z" fill="#0826C4"/>
<path d="M87.4619 9.46367C87.4619 6.85274 89.3478 5.229 91.806 5.229C94.2466 5.229 96.1315 6.85274 96.1315 9.46367C96.1315 12.0603 94.2466 13.6203 91.806 13.6203C89.3478 13.6203 87.4619 12.0603 87.4619 9.46367ZM93.3198 9.49459C93.3198 7.8718 92.7014 7.13058 91.806 7.13058C90.8935 7.13058 90.275 7.8718 90.275 9.49459C90.275 11.1022 90.8935 11.7982 91.806 11.7982C92.7014 11.7982 93.3198 11.1022 93.3198 9.49459Z" fill="#0826C4"/>
<path d="M96.7172 12.9532V11.1306H97.6597C97.9846 11.4222 98.6649 11.7319 99.5456 11.7319C100.285 11.7319 100.75 11.5621 100.75 11.1463C100.75 10.7129 100.474 10.5721 99.3438 10.4193C97.6121 10.2024 96.6406 9.59961 96.6406 7.89976C96.6406 6.12282 98.0312 5.24173 100.07 5.24173C101.37 5.24173 102.126 5.4582 102.822 5.78171V7.57577H101.94C101.569 7.3279 100.967 7.08099 100.147 7.08099C99.3733 7.08099 99.0827 7.28128 99.0827 7.66759C99.0827 8.00823 99.4347 8.17807 100.474 8.30081C102.373 8.53298 103.285 9.10483 103.285 10.837C103.285 12.5674 102.142 13.6021 99.6526 13.6021C98.2315 13.6021 97.3809 13.2938 96.7172 12.9532ZM102.343 3.21693L100.921 4.82497H99.0489L97.6906 3.21693V2.62891H99.1907L100.055 3.27926L100.904 2.62891H102.343V3.21693Z" fill="#0826C4"/>
<path d="M103.648 5.35613H104.53V3.28613H107.312V5.35613H108.827V7.15019H107.312V10.8582C107.312 11.5856 107.59 11.8173 108.317 11.8173H108.857V13.4239C108.487 13.5319 107.963 13.6399 107.265 13.6399C105.597 13.6399 104.53 13.0538 104.53 11.2759V7.15019H103.648V5.35613Z" fill="#0826C4"/>
<path d="M114.329 12.723C113.755 13.3582 112.999 13.6046 111.993 13.6046C110.558 13.6046 109.413 12.7863 109.413 11.1783C109.413 9.46271 110.727 8.64442 112.612 8.64442C113.229 8.64442 113.709 8.70579 114.173 8.79904V8.24194C114.173 7.53259 113.801 7.20718 112.797 7.20718C111.993 7.20718 111.329 7.43744 110.865 7.74716H110.032V5.87698C110.788 5.55347 111.886 5.229 113.339 5.229C115.765 5.229 116.955 6.03255 116.955 8.04069V13.4966H115.441C114.791 13.4966 114.482 13.2644 114.329 12.723ZM114.173 11.5337V10.0974C113.896 10.0493 113.571 10.0189 113.261 10.0189C112.52 10.0189 112.057 10.3124 112.057 10.9923C112.057 11.6878 112.489 11.9818 113.091 11.9818C113.509 11.9818 113.879 11.7811 114.173 11.5337Z" fill="#0826C4"/>
</svg>
