<svg width="98" height="22" viewBox="0 0 98 22" fill="none" xmlns="http://www.w3.org/2000/svg">
<path d="M11.281 8.82406L10.7623 9.06714L10.24 8.82406L2.98145 5.26602L6.42421 3.96257L13.8711 7.5488L11.281 8.82406ZM18.5503 5.26602L15.9531 6.51662L8.4174 3.1946L10.7623 2.2998L18.5503 5.26602Z" fill="#BA1B02"/>
<path d="M11.0434 0L20.5723 3.65316L19.2328 4.71705L10.7627 1.46197L2.28898 4.71705L0.949536 3.65316L10.4891 0H11.0434ZM19.4531 5.03058L21.0306 4.42818L19.8475 14.1159L19.6094 14.5457L11.2459 22L10.9758 20.2844L18.4227 13.6509L19.4531 5.03058ZM1.91237 14.5457L1.67433 14.1159L0.491211 4.42818L2.0687 5.03058L3.10615 13.658L10.5459 20.2914L10.283 22L1.91237 14.5457Z" fill="#BA1B02"/>
<path d="M16.1561 6.82054L18.5578 5.36914L17.6128 13.1687L10.8125 19.235L11.1891 9.8396L14.17 8.02182L13.9746 12.6261L15.8328 11.3333L16.1561 6.82054Z" fill="#BA1B02"/>
<path d="M10.3362 9.8396L10.7092 19.2279L3.91605 13.1687L2.96387 5.36914L10.3362 9.8396Z" fill="#BA1B02"/>
<path d="M87.8643 7.99307C88.4044 8.23262 88.839 8.5849 89.1682 9.04991C89.4927 9.51258 89.6609 10.1079 89.6728 10.836V16.9551H87.7187V10.8536C87.6879 10.4661 87.5469 10.1596 87.2959 9.93414C87.0495 9.70633 86.7428 9.55133 86.3757 9.46913C86.0227 9.38458 85.6627 9.36697 85.2956 9.41629C84.9284 9.46326 84.6158 9.56072 84.3576 9.70868V16.9551H82.3857V8.22557C82.5894 8.19739 82.7612 8.16216 82.9009 8.11989C83.1094 8.05413 83.4303 7.94962 83.8638 7.80636C84.2712 7.67014 84.8053 7.59029 85.4661 7.56681C85.5087 7.55976 85.5514 7.55976 85.594 7.56681C85.7551 7.55976 85.9197 7.56211 86.0879 7.57385C86.7298 7.61613 87.3219 7.75587 87.8643 7.99307Z" fill="#BA1B02"/>
<path d="M82.0692 8.24369L78.9711 16.9556H76.882L73.7803 8.24369C74.4648 8.24369 75.096 8.06285 75.674 7.70117L77.5464 13.0876L77.8519 14.9265H77.9976L78.3031 13.0876L80.1755 7.70117C80.7534 8.06285 81.3847 8.24369 82.0692 8.24369Z" fill="#BA1B02"/>
<path d="M49.9083 11.8541C50.3702 12.0373 50.7515 12.3168 51.0523 12.6926C51.3531 13.073 51.5095 13.5885 51.5213 14.2391C51.5095 14.9601 51.3164 15.5496 50.9422 16.0075C50.5656 16.4608 50.0859 16.779 49.5033 16.9622C48.9135 17.1478 48.2941 17.1982 47.6451 17.1137C46.9961 17.0245 46.3957 16.799 45.8438 16.4373C45.2966 16.078 44.8679 15.5777 44.5576 14.9366L46.0321 13.989C46.2784 14.4 46.5911 14.7158 46.97 14.9366C47.3538 15.1621 47.7387 15.2865 48.1247 15.31C48.5156 15.3405 48.8483 15.2689 49.1231 15.0951C49.3931 14.9284 49.54 14.6548 49.5637 14.2743C49.5589 14.0488 49.4808 13.8727 49.3292 13.7459C49.1799 13.6097 48.994 13.5028 48.7714 13.4253C48.544 13.3595 48.319 13.3032 48.0963 13.2562C47.7647 13.1975 47.407 13.1106 47.0233 12.9955C46.6515 12.8828 46.2938 12.7219 45.9504 12.5129C45.6093 12.3109 45.331 12.0373 45.1154 11.6921C44.9283 11.3962 44.8229 11.0274 44.7992 10.5859C44.7992 10.5742 44.7992 10.5624 44.7992 10.5507C44.7921 10.5014 44.7886 10.4509 44.7886 10.3992C44.8004 9.71343 44.984 9.16505 45.3393 8.75405C45.6874 8.33836 46.1256 8.03422 46.6538 7.84164C47.182 7.65845 47.7197 7.56921 48.2669 7.57391C48.7714 7.57391 49.2877 7.68194 49.8159 7.89801C50.3465 8.11642 50.8451 8.44874 51.3117 8.89496L50.125 10.1843C49.8597 9.92832 49.5435 9.73457 49.1764 9.60305C48.8116 9.46683 48.448 9.3952 48.0857 9.38816C47.7327 9.38816 47.4296 9.45627 47.1761 9.59248C46.9298 9.73105 46.7865 9.94594 46.7462 10.2372C46.7344 10.5049 46.8125 10.7221 46.9807 10.8889C47.1607 11.0556 47.3822 11.1813 47.6451 11.2658C47.9104 11.3551 48.1745 11.4173 48.4374 11.4525C48.949 11.523 49.4393 11.6569 49.9083 11.8541Z" fill="#BA1B02"/>
<path d="M54.0971 4.64291C54.3245 4.87542 54.4418 5.17721 54.4489 5.54828C54.4418 5.89821 54.3245 6.18943 54.0971 6.42194C53.8674 6.65914 53.5642 6.78126 53.1876 6.78831C52.8323 6.78126 52.541 6.65914 52.3136 6.42194C52.0791 6.18943 51.9583 5.89821 51.9512 5.54828C51.9583 5.17721 52.0791 4.87542 52.3136 4.64291C52.541 4.41745 52.8323 4.29885 53.1876 4.28711C53.5666 4.29885 53.8697 4.41745 54.0971 4.64291Z" fill="#BA1B02"/>
<path d="M59.15 15.1862C59.15 15.158 59.15 4.3042 59.15 4.3042H61.1325V11.4344L62.0634 10.4128L62.0705 10.3952L64.4865 7.70724H66.9629L63.0724 11.9699L66.9451 16.9546H64.6215L61.6832 13.1641L61.1325 13.7207V16.9546L59.2317 17.0251C59.1784 17.0251 59.1749 17.0251 59.1287 17.0251C59.0683 17.0251 59.0008 17.0181 59.0008 17.0181L58.8978 17.0075C57.6306 16.9182 56.7364 16.6376 56.2153 16.1655C55.5971 15.6066 55.2844 14.8327 55.2773 13.844V4.3042H57.2599V13.844C57.2528 14.2315 57.3818 14.5509 57.6471 14.8022C57.8639 15.003 58.4146 15.1369 59.15 15.1862Z" fill="#BA1B02"/>
<path d="M54.2221 16.9547H52.2432V7.68262H54.2221V16.9547Z" fill="#BA1B02"/>
<path d="M41.1687 7.12663H39.2217L40.5043 5.0376H42.9451L41.1687 7.12663Z" fill="#BA1B02"/>
<path fill-rule="evenodd" clip-rule="evenodd" d="M97.6203 10.6284V16.5608C97.0554 16.7687 96.4408 16.9343 95.7799 17.0505C95.1262 17.1656 94.4748 17.2079 93.8258 17.1773C93.1839 17.1538 92.5953 17.0282 92.06 16.8004C91.5247 16.5749 91.1019 16.2238 90.7916 15.7471C90.4671 15.2703 90.299 14.6421 90.2871 13.8624C90.3037 13.1367 90.4896 12.5507 90.8449 12.1045C91.2002 11.6512 91.6538 11.3259 92.2057 11.1287C92.7576 10.9267 93.3343 10.841 93.936 10.8715C94.5471 10.902 95.1179 11.0265 95.6485 11.2449V10.6848C95.5561 10.262 95.3571 9.93442 95.0516 9.70191C94.7508 9.46941 94.3966 9.33437 93.9892 9.29679C93.5795 9.25686 93.1685 9.30266 92.7564 9.43418C92.3537 9.57039 92.0043 9.78764 91.7083 10.0859L90.5571 9.03962C91.0688 8.49241 91.6123 8.10843 92.1879 7.88766C92.7587 7.6669 93.3438 7.56239 93.9431 7.57413C94.5684 7.57413 95.1546 7.68099 95.7017 7.89471C96.2607 8.11547 96.7203 8.45601 97.0803 8.91633C97.4285 9.36255 97.6085 9.93325 97.6203 10.6284ZM95.6485 12.9359C95.3903 12.809 95.0741 12.7198 94.6998 12.6681C94.3351 12.6071 93.9691 12.5977 93.602 12.6399C93.2301 12.6822 92.9175 12.8008 92.664 12.9957C92.4129 13.186 92.2696 13.4749 92.2341 13.8624C92.2152 14.3274 92.3111 14.6855 92.5219 14.9368C92.7374 15.1858 93.0228 15.3525 93.3781 15.4371C93.7311 15.5193 94.1089 15.5451 94.5115 15.5146C94.9071 15.4793 95.2861 15.4112 95.6485 15.3102V12.9359Z" fill="#BA1B02"/>
<path fill-rule="evenodd" clip-rule="evenodd" d="M73.8194 10.745V13.9789C73.8075 14.7 73.624 15.2965 73.2687 15.7685C72.9205 16.2371 72.4657 16.5929 71.9079 16.8289C71.356 17.0614 70.7769 17.1812 70.1705 17.1882C70.026 17.1882 69.8839 17.1824 69.7442 17.1706C69.2705 17.1213 68.8169 17.0074 68.3834 16.8289C68.1087 16.7115 67.8564 16.5659 67.6266 16.3921C67.3993 16.2136 67.1956 16.0057 67.0155 15.7685C66.6603 15.2965 66.4767 14.7 66.4648 13.9789V10.7485C66.4767 10.0393 66.6603 9.4486 67.0155 8.97655C67.16 8.78631 67.3223 8.61722 67.5023 8.46926C67.7605 8.23675 68.0542 8.04887 68.3834 7.90561C68.8169 7.72712 69.2705 7.61674 69.7442 7.57446C69.8839 7.55802 70.026 7.5498 70.1705 7.5498C70.7769 7.5545 71.356 7.6731 71.9079 7.90561C72.4657 8.14868 72.9205 8.50801 73.2687 8.97655C73.4487 9.2161 73.5837 9.48148 73.6737 9.7727C73.7637 10.071 73.8123 10.3951 73.8194 10.745ZM71.8368 10.7485C71.8297 10.455 71.7421 10.2131 71.5739 10.0228C71.4058 9.83259 71.1961 9.69285 70.9451 9.60361C70.6916 9.50732 70.4334 9.45917 70.1705 9.45917C70.026 9.45917 69.8839 9.47091 69.7442 9.4944C69.6068 9.52023 69.4753 9.55664 69.3498 9.60361C69.0916 9.69285 68.8749 9.83259 68.6996 10.0228C68.5386 10.2131 68.4545 10.4538 68.4474 10.745V13.9789C68.4545 14.2772 68.5386 14.5273 68.6996 14.7293C68.8749 14.9336 69.0916 15.0922 69.3498 15.2049C69.4753 15.2519 69.6068 15.2906 69.7442 15.3211C69.8839 15.3446 70.026 15.3564 70.1705 15.3564C70.4334 15.3564 70.6916 15.3059 70.9451 15.2049C71.1961 15.0922 71.4058 14.9336 71.5739 14.7293C71.7421 14.5273 71.8297 14.2772 71.8368 13.9789V10.7485Z" fill="#BA1B02"/>
<path fill-rule="evenodd" clip-rule="evenodd" d="M44.0325 10.6278V16.5603C43.4688 16.7693 42.8565 16.9337 42.1956 17.0535C41.5419 17.1662 40.8905 17.2073 40.2415 17.1767C39.6944 17.1603 39.1863 17.0687 38.7173 16.902C38.6344 16.8714 38.5539 16.8386 38.4757 16.8033C38.1631 16.6718 37.8895 16.4992 37.655 16.2855C37.5342 16.1704 37.4229 16.0483 37.321 15.9191C37.1766 15.7148 37.0569 15.4964 36.9622 15.2639V16.9548H27.8703L27.3125 15.595L34.3863 6.34056H27.6927V4.31494H36.582L37.2216 5.65361L30.1229 14.9609H36.8521C36.7573 14.6344 36.7064 14.2681 36.6993 13.8618C36.7182 13.1361 36.9054 12.5501 37.2606 12.1039C37.6136 11.6506 38.0672 11.3253 38.6214 11.1281C38.6498 11.1163 38.6818 11.1046 38.7173 11.0928C39.2408 10.9144 39.7844 10.8404 40.3481 10.8709C40.9616 10.9014 41.5324 11.0259 42.0606 11.2443V10.6842C41.9706 10.2615 41.7728 9.93384 41.4673 9.70133C41.1665 9.46882 40.8124 9.33496 40.405 9.29973C39.9952 9.25745 39.5831 9.30208 39.1686 9.4336C39.0122 9.48526 38.8618 9.55337 38.7173 9.63792C38.5018 9.7577 38.304 9.90683 38.124 10.0853L36.9729 9.03904C37.4821 8.49183 38.0245 8.10784 38.6001 7.88708C38.638 7.86829 38.6771 7.85302 38.7173 7.84128C39.2526 7.65105 39.7998 7.56181 40.3588 7.57355C40.9841 7.57355 41.5691 7.68158 42.1139 7.89765C42.6729 8.11606 43.1324 8.45543 43.4924 8.91574C43.8406 9.36197 44.0206 9.93266 44.0325 10.6278ZM42.0606 12.9353C41.8024 12.8085 41.4874 12.7192 41.1156 12.6675C40.7484 12.6065 40.3825 12.5971 40.0177 12.6394C39.6435 12.6816 39.3308 12.8002 39.0797 12.9952C38.9116 13.122 38.7908 13.2958 38.7173 13.5165C38.6818 13.6175 38.6581 13.7326 38.6463 13.8618C38.6344 14.1131 38.6581 14.3374 38.7173 14.5346C38.7671 14.6873 38.8393 14.8212 38.9341 14.9362C39.152 15.1852 39.4374 15.3519 39.7903 15.4365C40.1456 15.5187 40.5246 15.5445 40.9272 15.514C41.3228 15.4788 41.7006 15.4106 42.0606 15.3097V12.9353Z" fill="#BA1B02"/>
</svg>
