<svg width="57" height="24" viewBox="0 0 57 24" fill="none" xmlns="http://www.w3.org/2000/svg">
<path fill-rule="evenodd" clip-rule="evenodd" d="M37.5115 19.2536C36.4679 19.5486 35.1087 19.6716 33.9438 19.6716C30.9101 19.6716 28.9199 18.0732 28.9199 15.147C28.9199 12.3684 30.7887 10.5733 33.5069 10.5733C34.1137 10.5733 34.769 10.6471 35.1573 10.8438V6.81104H37.5115V19.2536ZM35.1573 12.9093C34.7932 12.7372 34.2836 12.6389 33.7011 12.6389C32.2692 12.6389 31.3227 13.5241 31.3227 15.0733C31.3227 16.7208 32.342 17.6552 34.0166 17.6552C34.3078 17.6552 34.769 17.6552 35.1573 17.5568V12.9093ZM56.855 19.2536C55.8114 19.5486 54.4523 19.6716 53.263 19.6716C50.2535 19.6716 48.239 18.0732 48.239 15.147C48.239 12.3684 50.1079 10.5733 52.8261 10.5733C53.4572 10.5733 54.0882 10.6471 54.4765 10.8438V6.81104H56.855V19.2536ZM54.4765 12.9093C54.1125 12.7372 53.6271 12.6389 53.0446 12.6389C51.5884 12.6389 50.6418 13.5241 50.6418 15.0733C50.6418 16.7208 51.6854 17.6552 53.3601 17.6552C53.6513 17.6552 54.0882 17.6552 54.4765 17.5568V12.9093ZM41.2249 12.9093C41.6132 12.7372 42.1714 12.688 42.6326 12.688C44.0888 12.688 45.0839 13.5241 45.0839 15.0241C45.0839 16.7945 43.9674 17.606 42.487 17.6306V19.6716H42.6083C45.6664 19.6716 47.4867 17.9749 47.4867 14.9503C47.4867 12.1962 45.545 10.5733 42.6811 10.5733C41.2249 10.5733 39.7929 10.9176 38.8464 11.311V22.9912H41.2249V12.9093Z" fill="#3F3F42"/>
<path fill-rule="evenodd" clip-rule="evenodd" d="M20.2314 4.89307L20.6197 5.33569L20.8382 5.21274L20.2314 4.89307Z" fill="#DC0032"/>
<path fill-rule="evenodd" clip-rule="evenodd" d="M19.6494 4.57422L20.4018 5.45946L20.6687 5.31192L20.3775 4.96766L19.6494 4.57422Z" fill="#DC0032"/>
<path fill-rule="evenodd" clip-rule="evenodd" d="M19.042 4.25391L20.1827 5.58177L20.4496 5.43423L19.7944 4.64735L19.042 4.25391Z" fill="#DC0032"/>
<path fill-rule="evenodd" clip-rule="evenodd" d="M18.46 3.93408L19.9647 5.70457L20.2317 5.55703L19.1881 4.32752L18.46 3.93408ZM21.3481 7.05699L21.1782 7.15535L21.3481 7.35207V7.05699Z" fill="#DC0032"/>
<path fill-rule="evenodd" clip-rule="evenodd" d="M17.877 3.61475L19.7458 5.82785L20.0127 5.68031L18.6051 4.00819L17.877 3.61475ZM21.2505 7.10651L20.9835 7.27864L21.3476 7.72126V7.25405L21.2505 7.10651Z" fill="#DC0032"/>
<path fill-rule="evenodd" clip-rule="evenodd" d="M17.2705 3.29492L19.5277 5.95065L19.8189 5.80311L18.0229 3.68836L17.2705 3.29492ZM21.0324 7.2293L20.7654 7.40143L21.3479 8.08996V7.62274L21.0324 7.2293Z" fill="#DC0032"/>
<path fill-rule="evenodd" clip-rule="evenodd" d="M16.6875 2.97559L19.333 6.07393L19.5999 5.92639L17.4156 3.36902L16.6875 2.97559ZM20.8134 7.37717L20.5465 7.52471L21.3474 8.48372V8.01651L20.8134 7.37717Z" fill="#DC0032"/>
<path fill-rule="evenodd" clip-rule="evenodd" d="M16.1055 2.65576L19.115 6.19672L19.382 6.04918L16.8336 3.0492L16.1055 2.65576ZM20.5955 7.49996L20.3285 7.6475L21.3478 8.85242V8.3852L20.5955 7.49996Z" fill="#DC0032"/>
<path fill-rule="evenodd" clip-rule="evenodd" d="M15.499 2.33594L18.8968 6.31951L19.1638 6.17197L16.2514 2.72938L15.499 2.33594ZM20.3773 7.62276L20.1104 7.7703L21.3481 9.22111V8.7539L20.3773 7.62276Z" fill="#DC0032"/>
<path fill-rule="evenodd" clip-rule="evenodd" d="M14.916 2.0166L18.6779 6.46739L18.9449 6.29526L15.6441 2.41004L14.916 2.0166ZM20.1584 7.74604L19.8914 7.89358L21.3476 9.61489V9.14768L20.1584 7.74604Z" fill="#DC0032"/>
<path fill-rule="evenodd" clip-rule="evenodd" d="M14.3096 1.69727L18.4598 6.59067L18.7268 6.41854L15.062 2.0907L14.3096 1.69727ZM19.9645 7.86932L19.6733 8.01686L21.3479 9.98407V9.51686L19.9645 7.86932Z" fill="#DC0032"/>
<path fill-rule="evenodd" clip-rule="evenodd" d="M13.7266 1.37695L18.2408 6.71295L18.5321 6.54085L14.4789 1.77039L13.7266 1.37695ZM19.7456 7.99163L19.4786 8.13917L21.3474 10.3769V9.88507L19.7456 7.99163Z" fill="#DC0032"/>
<path fill-rule="evenodd" clip-rule="evenodd" d="M13.1445 1.05713L18.0471 6.83574L18.3141 6.66361L13.8726 1.45057L13.1445 1.05713ZM19.5276 8.11442L19.2606 8.26196L21.3479 10.7456V10.2784L19.5276 8.11442Z" fill="#DC0032"/>
<path fill-rule="evenodd" clip-rule="evenodd" d="M12.5381 0.713379L17.829 6.9592L18.096 6.78707L13.2905 1.13141L12.5381 0.713379ZM19.3095 8.23789L19.0425 8.38543L21.3482 11.1149V10.6477L19.3095 8.23789Z" fill="#DC0032"/>
<path fill-rule="evenodd" clip-rule="evenodd" d="M11.9551 0.393555L17.6101 7.08199L17.877 6.93445L12.7075 0.811583L11.9551 0.393555ZM19.0905 8.36068L18.8236 8.50822L21.3477 11.5082V11.0164L19.0905 8.36068Z" fill="#DC0032"/>
<path fill-rule="evenodd" clip-rule="evenodd" d="M11.373 0.0986328L17.392 7.2051L17.659 7.05756L12.1011 0.492071L11.373 0.0986328ZM18.8725 8.48378L18.6056 8.63133L21.3481 11.8772V11.41L18.8725 8.48378Z" fill="#DC0032"/>
<path fill-rule="evenodd" clip-rule="evenodd" d="M10.9844 0L17.1733 7.32778L17.4402 7.18024L11.5183 0.172129L11.3727 0.0983597C11.2513 0.0245899 11.13 0 10.9844 0ZM18.6538 8.60646L18.3868 8.754L21.3477 12.2458V11.7786L18.6538 8.60646Z" fill="#DC0032"/>
<path fill-rule="evenodd" clip-rule="evenodd" d="M10.9846 0C10.8875 0 10.7904 0.0245899 10.6934 0.0491798L16.9551 7.45073L17.2463 7.30319L11.0574 0C11.0331 0 11.0089 0 10.9846 0ZM18.4598 8.72941L18.1928 8.87695L21.348 12.6392V12.1474L18.4598 8.72941Z" fill="#DC0032"/>
<path fill-rule="evenodd" clip-rule="evenodd" d="M10.7659 0.0244141C10.7173 0.049004 10.6445 0.0735938 10.6202 0.0981838L10.4746 0.171953L16.7606 7.5735L17.0276 7.42596L10.7659 0.0244141ZM18.2411 8.85219L17.9741 9.02432L21.3477 13.0079V12.5407L18.2411 8.85219Z" fill="#DC0032"/>
<path fill-rule="evenodd" clip-rule="evenodd" d="M10.5238 0.123047L10.2568 0.270586L16.5428 7.69673L16.8098 7.54919L10.5238 0.123047ZM18.0233 8.97541L17.7563 9.14754L21.3483 13.377V12.9098L18.0233 8.97541Z" fill="#DC0032"/>
<path fill-rule="evenodd" clip-rule="evenodd" d="M10.3051 0.245605L10.0381 0.393145L16.3241 7.81929L16.591 7.67175L10.3051 0.245605ZM17.8046 9.09797L17.5376 9.2701L21.348 13.7701V13.3028L17.8046 9.09797Z" fill="#DC0032"/>
<path fill-rule="evenodd" clip-rule="evenodd" d="M10.0863 0.368652L9.81934 0.516193L16.1053 7.94233L16.3723 7.79479L10.0863 0.368652ZM17.5858 9.22102L17.3188 9.39315L21.3477 14.139V13.6718L17.5858 9.22102Z" fill="#DC0032"/>
<path fill-rule="evenodd" clip-rule="evenodd" d="M9.86854 0.491699L9.60156 0.63924L15.8876 8.06538L16.1545 7.91784L9.86854 0.491699ZM17.368 9.34407L17.1011 9.5162L21.3483 14.508V14.0407L17.368 9.34407Z" fill="#DC0032"/>
<path fill-rule="evenodd" clip-rule="evenodd" d="M9.64979 0.614746L9.38281 0.762283L15.6688 8.18843L15.9358 8.04089L9.64979 0.614746ZM17.1735 9.46711L16.9066 9.63924L21.348 14.9015V14.4343L17.1735 9.46711Z" fill="#DC0032"/>
<path fill-rule="evenodd" clip-rule="evenodd" d="M9.43104 0.713379L9.16406 0.885509L15.4743 8.31165L15.7413 8.16411L9.43104 0.713379ZM16.9548 9.61493L16.6878 9.76247L21.3477 15.2706V14.8034L16.9548 9.61493Z" fill="#DC0032"/>
<path fill-rule="evenodd" clip-rule="evenodd" d="M9.21229 0.836426L8.94531 0.983966L15.2556 8.4347L15.5226 8.28716L9.21229 0.836426ZM16.736 9.73798L16.4691 9.88552L21.3474 15.6641V15.1724L16.736 9.73798Z" fill="#DC0032"/>
<path fill-rule="evenodd" clip-rule="evenodd" d="M8.99451 0.958984L8.72754 1.10652L15.0378 8.58185L15.3048 8.40972L8.99451 0.958984ZM16.5183 9.86053L16.2513 10.0081L21.3481 16.0326V15.5654L16.5183 9.86053Z" fill="#DC0032"/>
<path fill-rule="evenodd" clip-rule="evenodd" d="M8.77576 1.08203L8.50879 1.22957L14.8191 8.7049L15.086 8.53277L8.77576 1.08203ZM16.2995 9.98358L16.0326 10.1311L21.3477 16.4015V15.9343L16.2995 9.98358Z" fill="#DC0032"/>
<path fill-rule="evenodd" clip-rule="evenodd" d="M8.55701 1.20508L8.29004 1.35262L14.6003 8.82795L14.8673 8.65582L8.55701 1.20508ZM16.0808 10.1066L15.8138 10.2542L21.3474 16.7951V16.3033L16.0808 10.1066Z" fill="#DC0032"/>
<path fill-rule="evenodd" clip-rule="evenodd" d="M8.33924 1.32812L8.07227 1.47567L14.3825 8.95099L14.6495 8.77886L8.33924 1.32812ZM15.8873 10.2297L15.6203 10.3772L21.3481 17.164V16.6968L15.8873 10.2297Z" fill="#DC0032"/>
<path fill-rule="evenodd" clip-rule="evenodd" d="M8.12035 1.42627L7.8291 1.57381L14.1879 9.07373L14.4549 8.9016L8.12035 1.42627ZM15.6684 10.3524L15.4014 10.5L21.3476 17.5327V17.0654L15.6684 10.3524Z" fill="#DC0032"/>
<path fill-rule="evenodd" clip-rule="evenodd" d="M7.90257 1.54883L7.61133 1.69637L13.9944 9.22088C14.0187 9.1717 14.043 9.14711 14.0915 9.12252L14.2371 9.02416L7.90257 1.54883ZM15.4506 10.475L15.1837 10.6225L21.2997 17.8519C21.324 17.7782 21.3483 17.7044 21.3483 17.6306V17.4339L15.4506 10.475Z" fill="#DC0032"/>
<path fill-rule="evenodd" clip-rule="evenodd" d="M7.68382 1.67188L7.39258 1.81942L13.9213 9.51606V9.4177C13.9213 9.34393 13.9698 9.24557 14.0184 9.1718L7.68382 1.67188ZM15.2319 10.598L15.0377 10.721C15.0134 10.721 14.9892 10.7456 14.9649 10.7456L21.1781 18.0979C21.2509 17.9996 21.2994 17.9012 21.3237 17.8029L15.2319 10.598Z" fill="#DC0032"/>
<path fill-rule="evenodd" clip-rule="evenodd" d="M7.46504 1.79492L7.17383 1.94246L13.9209 9.9096V9.41779L7.46504 1.79492ZM14.552 10.6227L21.0078 18.2702C21.0806 18.221 21.1535 18.1226 21.2263 18.0488L15.0131 10.7211C14.916 10.7702 14.7704 10.7702 14.6733 10.7211L14.552 10.6227Z" fill="#DC0032"/>
<path fill-rule="evenodd" clip-rule="evenodd" d="M7.24727 1.91797L6.95605 2.06551L20.7901 18.3932L20.9842 18.2948C21.0085 18.2702 21.0328 18.2457 21.057 18.2211L14.6982 10.7212H14.674L14.1158 10.3769C14.0672 10.3523 14.0429 10.3031 13.9944 10.254C13.9459 10.1802 13.9459 10.131 13.9216 10.0818V9.81133L7.24727 1.91797Z" fill="#DC0032"/>
<path fill-rule="evenodd" clip-rule="evenodd" d="M7.02855 2.04053L6.7373 2.18807L20.5713 18.5158L20.8383 18.3682L7.02855 2.04053Z" fill="#DC0032"/>
<path fill-rule="evenodd" clip-rule="evenodd" d="M6.8098 2.13916L6.51855 2.2867L20.3768 18.639L20.6438 18.4914L6.8098 2.13916Z" fill="#DC0032"/>
<path fill-rule="evenodd" clip-rule="evenodd" d="M6.59203 2.26221L6.30078 2.40975L20.1591 18.762L20.426 18.6145L6.59203 2.26221Z" fill="#DC0032"/>
<path fill-rule="evenodd" clip-rule="evenodd" d="M6.37328 2.38525L6.08203 2.53279L19.9403 18.8851L20.2073 18.7375L6.37328 2.38525Z" fill="#DC0032"/>
<path fill-rule="evenodd" clip-rule="evenodd" d="M6.13026 2.5083L5.86328 2.65584L19.7216 19.0327L19.9886 18.8606L6.13026 2.5083Z" fill="#DC0032"/>
<path fill-rule="evenodd" clip-rule="evenodd" d="M5.91151 2.63086L5.64453 2.7784L19.5028 19.1553L19.7698 18.9831L5.91151 2.63086Z" fill="#DC0032"/>
<path fill-rule="evenodd" clip-rule="evenodd" d="M5.69373 2.75391L5.42676 2.90144L19.3093 19.2783L19.5763 19.1062L5.69373 2.75391Z" fill="#DC0032"/>
<path fill-rule="evenodd" clip-rule="evenodd" d="M5.47498 2.85254L5.20801 3.00008L19.0906 19.4016L19.3576 19.2294L5.47498 2.85254Z" fill="#DC0032"/>
<path fill-rule="evenodd" clip-rule="evenodd" d="M5.25623 2.97559L4.98926 3.12313L18.8718 19.5246L19.1388 19.3771L5.25623 2.97559Z" fill="#DC0032"/>
<path fill-rule="evenodd" clip-rule="evenodd" d="M5.03846 3.09863L4.77148 3.24617L11.5186 11.2133L11.737 11.3608C11.8341 11.41 11.9312 11.533 11.9312 11.6559V11.6805L18.6541 19.6477L18.921 19.5001L5.03846 3.09863Z" fill="#DC0032"/>
<path fill-rule="evenodd" clip-rule="evenodd" d="M4.81971 3.22119L4.55273 3.36872L10.8873 10.8687L11.6882 11.3113L4.81971 3.22119ZM11.9066 11.5817C11.9066 11.6063 11.9309 11.6309 11.9309 11.6555V12.0735L18.4353 19.7702L18.7023 19.6227L11.9066 11.5817Z" fill="#DC0032"/>
<path fill-rule="evenodd" clip-rule="evenodd" d="M4.60096 3.34424L4.33398 3.49178L10.2559 10.4999L11.0569 10.9425L4.60096 3.34424ZM11.9306 11.9753V12.4425L18.2408 19.8933L18.5078 19.7457L11.9306 11.9753Z" fill="#DC0032"/>
<path fill-rule="evenodd" clip-rule="evenodd" d="M4.38319 3.46729L4.11621 3.61483L9.64983 10.1312L10.4265 10.5738L4.38319 3.46729ZM11.9312 12.3442V12.836L18.0231 20.0163L18.29 19.8688L11.9312 12.3442Z" fill="#DC0032"/>
<path fill-rule="evenodd" clip-rule="evenodd" d="M4.16444 3.56592L3.89746 3.71346L9.01849 9.76259L9.79514 10.2298L4.16444 3.56592ZM11.9309 12.738V13.2052L17.8043 20.1395L18.0713 19.992L11.9309 12.738Z" fill="#DC0032"/>
<path fill-rule="evenodd" clip-rule="evenodd" d="M3.94568 3.68896L3.67871 3.83651L8.38713 9.39383L9.16378 9.86104L3.94568 3.68896ZM11.9306 13.1069V13.5741L17.5855 20.2625L17.8525 20.115L11.9306 13.1069Z" fill="#DC0032"/>
<path fill-rule="evenodd" clip-rule="evenodd" d="M3.72791 3.81104L3.46094 3.95858L7.75675 9.04869L8.53341 9.49131L3.72791 3.81104ZM11.9312 13.4749V13.9667L17.3678 20.4092L17.6347 20.2371L11.9312 13.4749Z" fill="#DC0032"/>
<path fill-rule="evenodd" clip-rule="evenodd" d="M3.50916 3.93408L3.24219 4.08162L7.12544 8.67993L7.90206 9.12256L3.50916 3.93408ZM11.9309 13.8684V14.3356L17.1733 20.5323L17.4403 20.3601L11.9309 13.8684Z" fill="#DC0032"/>
<path fill-rule="evenodd" clip-rule="evenodd" d="M3.29041 4.05713L3.02344 4.20467L6.49409 8.31118L7.29498 8.7538L3.29041 4.05713ZM11.9306 14.2374V14.7046L16.9545 20.6553L17.2215 20.4832L11.9306 14.2374Z" fill="#DC0032"/>
<path fill-rule="evenodd" clip-rule="evenodd" d="M3.07264 4.18018L2.80566 4.32772L5.86372 7.94243L6.66464 8.40964L3.07264 4.18018ZM9.43144 12.1473L10.0625 12.885V12.6145C10.0625 12.5653 10.0139 12.4916 9.96539 12.467L9.43144 12.1473ZM11.9313 14.6063V15.0981L16.7368 20.7783L17.0037 20.6062L11.9313 14.6063Z" fill="#DB0032"/>
<path fill-rule="evenodd" clip-rule="evenodd" d="M2.85389 4.27881L2.58691 4.42635L5.23237 7.57385L6.03329 8.04106L2.85389 4.27881ZM8.80009 11.7787L10.0621 13.2541V12.7869L9.60101 12.2459L8.80009 11.7787ZM11.9309 15V15.4672L16.518 20.9016L16.785 20.754L11.9309 15Z" fill="#DC0032"/>
<path fill-rule="evenodd" clip-rule="evenodd" d="M2.63514 4.40137L2.36816 4.54891L4.62529 7.22919L5.40195 7.67182L2.63514 4.40137ZM8.16874 11.4341L10.0618 13.6472V13.18L8.96966 11.8767L8.16874 11.4341ZM11.9306 15.3685V15.8357L16.2993 21.0241L16.5662 20.8766L11.9306 15.3685Z" fill="#DC0032"/>
<path fill-rule="evenodd" clip-rule="evenodd" d="M2.41736 4.52441L2.15039 4.67195L3.99492 6.86044L4.77157 7.30306L2.41736 4.52441ZM7.56264 11.0653L10.0625 14.0161V13.5489L8.33929 11.5079L7.56264 11.0653ZM11.9313 15.762V16.2292L16.1058 21.1472L16.3727 20.9996L11.9313 15.762Z" fill="#DC0032"/>
<path fill-rule="evenodd" clip-rule="evenodd" d="M2.19861 4.64746L1.93164 4.795L3.36359 6.49172L4.14023 6.93431L2.19861 4.64746ZM6.93132 10.6966L10.0622 14.3851V13.9179L7.70794 11.1638L6.93132 10.6966ZM11.931 16.1309V16.5981L15.887 21.2702L16.154 21.1227L11.931 16.1309Z" fill="#DC0032"/>
<path fill-rule="evenodd" clip-rule="evenodd" d="M1.97986 4.77051L1.71289 4.91805L2.73224 6.12296L3.50888 6.59017L1.97986 4.77051ZM6.29997 10.3278L10.0619 14.7786V14.3114L7.07662 10.795L6.29997 10.3278ZM11.9306 16.4999V16.9671L15.6683 21.3933L15.9352 21.2457L11.9306 16.4999Z" fill="#DC0032"/>
<path fill-rule="evenodd" clip-rule="evenodd" d="M1.76209 4.89307L1.49512 5.04061L2.10187 5.75372L2.90279 6.22093L1.76209 4.89307ZM5.6696 9.98318L10.0625 15.1471V14.6799L6.44625 10.4258L5.6696 9.98318ZM11.9313 16.8929V17.3601L15.4505 21.5158L15.7175 21.3683L11.9313 16.8929Z" fill="#DC0032"/>
<path fill-rule="evenodd" clip-rule="evenodd" d="M1.54319 4.9917L1.25195 5.13924L1.47038 5.40973L2.2713 5.85235L1.54319 4.9917ZM5.03811 9.6146L10.062 15.5407V15.049L5.83903 10.0572L5.03811 9.6146ZM11.9308 17.2621V17.7293L15.2316 21.6636L15.4986 21.4915L11.9308 17.2621Z" fill="#DC0032"/>
<path fill-rule="evenodd" clip-rule="evenodd" d="M1.32516 5.11475L1.15527 5.21311L1.64068 5.4836L1.32516 5.11475ZM4.40748 9.24585L10.0625 15.9097V15.4425L5.2084 9.71306L4.40748 9.24585ZM11.9312 17.631V18.1228L15.0379 21.7867L15.3048 21.6146L11.9312 17.631Z" fill="#DC0032"/>
<path fill-rule="evenodd" clip-rule="evenodd" d="M3.80078 8.87695L10.0625 16.2785V15.8113L4.57742 9.34416L3.80078 8.87695ZM11.9313 18.0244V18.4916L14.8195 21.9096L15.0864 21.7375L11.9313 18.0244Z" fill="#DC0032"/>
<path fill-rule="evenodd" clip-rule="evenodd" d="M3.16992 8.53223L10.0627 16.6715V16.1797L3.94656 8.97485L3.16992 8.53223ZM11.9315 18.3928V18.86L14.6012 22.0321L14.8682 21.86L11.9315 18.3928Z" fill="#DC0032"/>
<path fill-rule="evenodd" clip-rule="evenodd" d="M2.53809 8.16357L10.0619 17.0405V16.5733L3.31473 8.6062L2.53809 8.16357ZM11.9307 18.7618V19.2536L14.382 22.1552L14.6489 22.0077L11.9307 18.7618Z" fill="#DC0032"/>
<path fill-rule="evenodd" clip-rule="evenodd" d="M1.90723 7.79492L10.062 17.4096V16.9424L2.68387 8.26213L1.90723 7.79492ZM11.9308 19.1555V19.6227L14.1637 22.2784L14.4307 22.1308L11.9308 19.1555Z" fill="#DB0032"/>
<path fill-rule="evenodd" clip-rule="evenodd" d="M1.27637 7.42627L10.0622 17.8032V17.336L2.05301 7.89348L1.27637 7.42627ZM11.931 19.5245V19.9917L13.9697 22.4015L14.2367 22.254L11.931 19.5245Z" fill="#DA0032"/>
<path fill-rule="evenodd" clip-rule="evenodd" d="M0.645508 7.08203L10.0624 18.1721V17.7049L1.44643 7.52465L0.645508 7.08203ZM11.9312 19.8934V20.3852L13.7514 22.5245L14.0184 22.377L11.9312 19.8934Z" fill="#D90032"/>
<path fill-rule="evenodd" clip-rule="evenodd" d="M0.621094 7.05713V7.40139L10.0622 18.5406V18.0734L0.815256 7.15549L0.621094 7.05713ZM11.931 20.2865V20.5816C11.931 20.6307 11.9067 20.6799 11.8825 20.7045L13.5329 22.6471L13.7998 22.4996L11.931 20.2865Z" fill="#D80032"/>
<path fill-rule="evenodd" clip-rule="evenodd" d="M0.621094 7.30322V7.79502L10.0622 18.9343V18.4671L0.621094 7.30322ZM11.9067 20.6555C11.8825 20.7539 11.8097 20.8523 11.7368 20.8769L11.7126 20.9014L13.3144 22.7703L13.5814 22.6227L11.9067 20.6555Z" fill="#D70032"/>
<path fill-rule="evenodd" clip-rule="evenodd" d="M0.621094 7.69678V8.16399L10.0622 19.3032V18.836L0.621094 7.69678ZM11.7611 20.8524C11.7611 20.877 11.7611 20.877 11.7368 20.877L11.4942 21.0245L13.096 22.8934L13.363 22.7458L11.7611 20.8524Z" fill="#D60032"/>
<path fill-rule="evenodd" clip-rule="evenodd" d="M0.621094 8.06592V8.53313L10.0622 19.6724V19.2052L0.621094 8.06592ZM11.567 20.9756L11.2757 21.1477L12.9018 23.0412L13.1688 22.869L11.567 20.9756Z" fill="#D50032"/>
<path fill-rule="evenodd" clip-rule="evenodd" d="M0.621094 8.45898V8.9262L10.0622 20.0654V19.5982L0.621094 8.45898ZM11.3486 21.0982L11.1787 21.1965C11.1301 21.2211 11.0816 21.2211 11.033 21.2211L12.6834 23.1638L12.9504 22.9916L11.3486 21.0982Z" fill="#D40032"/>
<path fill-rule="evenodd" clip-rule="evenodd" d="M0.621094 8.82764V9.29485L10.0622 20.4341V19.9668L0.621094 8.82764ZM10.5962 21.098L12.465 23.2865L12.7319 23.1144L11.1058 21.2209C11.0816 21.2209 11.033 21.2455 11.0088 21.2455H10.9845C10.9117 21.2455 10.8631 21.2209 10.8146 21.1964L10.5962 21.098Z" fill="#D30032"/>
<path fill-rule="evenodd" clip-rule="evenodd" d="M0.621094 9.19727V9.68907L12.2465 23.4102L12.5135 23.2381L10.7661 21.1725L10.2321 20.8775C10.135 20.8283 10.0622 20.7053 10.0622 20.5824V20.3365L0.621094 9.19727Z" fill="#D20032"/>
<path fill-rule="evenodd" clip-rule="evenodd" d="M0.621094 9.59033V10.0575L12.0281 23.5328L12.2951 23.3853L0.621094 9.59033Z" fill="#D10032"/>
<path fill-rule="evenodd" clip-rule="evenodd" d="M0.621094 9.95898V10.4262L11.8097 23.6556L12.0766 23.508L0.621094 9.95898Z" fill="#D00032"/>
<path fill-rule="evenodd" clip-rule="evenodd" d="M0.621094 10.3281V10.8199L11.6155 23.7788L11.8825 23.6313L0.621094 10.3281Z" fill="#CF0032"/>
<path fill-rule="evenodd" clip-rule="evenodd" d="M0.621094 10.7212V11.1884L11.3971 23.9014L11.664 23.7538L0.621094 10.7212Z" fill="#CE0032"/>
<path fill-rule="evenodd" clip-rule="evenodd" d="M0.621094 11.0898V11.5571L11.1544 23.9996C11.2272 23.975 11.3 23.9504 11.3728 23.9258L11.4456 23.8766L0.621094 11.0898Z" fill="#CD0032"/>
<path fill-rule="evenodd" clip-rule="evenodd" d="M0.621094 11.4595V11.9513L10.8389 24.0004C10.8874 24.0004 10.936 24.0004 10.9845 24.0004C11.0573 24.0004 11.1301 24.0004 11.2029 23.9758L0.621094 11.4595Z" fill="#CC0032"/>
<path fill-rule="evenodd" clip-rule="evenodd" d="M0.621094 11.8525V12.3198L10.2807 23.7295L10.6204 23.9262C10.6932 23.9754 10.8146 24 10.9117 24L0.621094 11.8525Z" fill="#CB0032"/>
<path fill-rule="evenodd" clip-rule="evenodd" d="M0.621094 12.2212V12.6884L9.64962 23.3604L10.4505 23.8276L0.621094 12.2212Z" fill="#CA0032"/>
<path fill-rule="evenodd" clip-rule="evenodd" d="M0.621094 12.6147V13.082L9.01859 22.9917L9.81952 23.4589L0.621094 12.6147Z" fill="#C90032"/>
<path fill-rule="evenodd" clip-rule="evenodd" d="M0.621094 12.9834V13.4506L8.38756 22.6226L9.16421 23.0899L0.621094 12.9834Z" fill="#C80033"/>
<path fill-rule="evenodd" clip-rule="evenodd" d="M0.621094 13.3521V13.8193L7.75653 22.2536L8.53318 22.7208L0.621094 13.3521Z" fill="#C70033"/>
<path fill-rule="evenodd" clip-rule="evenodd" d="M0.621094 13.7456V14.2128L7.10126 21.8603L7.90215 22.3275L0.621094 13.7456Z" fill="#C60033"/>
<path fill-rule="evenodd" clip-rule="evenodd" d="M0.621094 14.1147V14.582L6.47023 21.4917L7.27112 21.9589L0.621094 14.1147Z" fill="#C50033"/>
<path fill-rule="evenodd" clip-rule="evenodd" d="M0.621094 14.4834V14.9506L5.8392 21.1227L6.64012 21.5899L0.621094 14.4834Z" fill="#C40033"/>
<path fill-rule="evenodd" clip-rule="evenodd" d="M0.621094 14.877V15.3442L5.20817 20.7539L6.00909 21.2211L0.621094 14.877Z" fill="#C30033"/>
<path fill-rule="evenodd" clip-rule="evenodd" d="M0.621094 15.2456V15.7128L4.57714 20.3849L5.37806 20.8521L0.621094 15.2456Z" fill="#C20033"/>
<path fill-rule="evenodd" clip-rule="evenodd" d="M0.621094 15.6143V16.1061L3.94611 20.0159L4.72276 20.4831L0.621094 15.6143Z" fill="#C10033"/>
<path fill-rule="evenodd" clip-rule="evenodd" d="M0.621094 16.0078V16.475L3.29082 19.6471L4.09173 20.1143L0.621094 16.0078Z" fill="#C00033"/>
<path fill-rule="evenodd" clip-rule="evenodd" d="M0.621094 16.377V16.8442L2.65979 19.2786L3.46071 19.7212L0.621094 16.377Z" fill="#BF0033"/>
<path fill-rule="evenodd" clip-rule="evenodd" d="M0.621094 16.7456V17.2374L2.02877 18.8849L2.82968 19.3522L0.621094 16.7456Z" fill="#BE0033"/>
<path fill-rule="evenodd" clip-rule="evenodd" d="M0.621094 17.1392V17.6064L1.39774 18.5162L2.19866 18.9834L0.621094 17.1392Z" fill="#BD0033"/>
<path fill-rule="evenodd" clip-rule="evenodd" d="M0.621094 17.5078V17.6308C0.621094 17.8767 0.790985 18.1717 0.985147 18.2947L1.56763 18.6144L0.621094 17.5078Z" fill="#BC0033"/>
<path fill-rule="evenodd" clip-rule="evenodd" d="M0.766602 18.0737C0.815142 18.1229 0.839412 18.1721 0.887953 18.1967L0.766602 18.0737Z" fill="#BB0033"/>
</svg>
