<svg width="43" height="26" viewBox="0 0 43 26" fill="none" xmlns="http://www.w3.org/2000/svg">
<g clip-path="url(#clip0_1866_4309)">
<path d="M21.4957 22.7942C24.1555 22.7942 26.3117 18.3242 26.3117 12.8102C26.3117 7.29616 24.1555 2.82617 21.4957 2.82617C18.8359 2.82617 16.6797 7.29616 16.6797 12.8102C16.6797 18.3242 18.8359 22.7942 21.4957 22.7942Z" fill="#F26A21"/>
<path d="M29.4081 0.0717773C26.5271 0.0717773 23.7751 1.06157 21.4961 2.82599C27.0431 7.17247 27.9461 15.2199 23.6031 20.7283C23.0011 21.503 22.2701 22.1915 21.4961 22.837C27.0001 27.1835 35.0411 26.2798 39.3841 20.7283C43.7271 15.1769 42.8241 7.17247 37.2771 2.82599C35.0841 1.06157 32.2891 0.0717773 29.4081 0.0717773Z" fill="#F99F1D"/>
<path d="M16.6794 12.8101C16.6794 8.8939 18.4424 5.23596 21.4954 2.82603C15.9914 -1.56348 7.95044 -0.616722 3.60744 4.89169C-0.735556 10.4001 0.167444 18.4476 5.67144 22.7941C10.3154 26.452 16.8514 26.452 21.4954 22.7941C18.4424 20.3841 16.6794 16.7262 16.6794 12.8101Z" fill="#ED2026"/>
</g>
<defs>
<clipPath id="clip0_1866_4309">
<rect width="43" height="26" fill="white" transform="translate(-0.00390625)"/>
</clipPath>
</defs>
</svg>
