<svg clip-rule="evenodd" fill-rule="evenodd" stroke-linejoin="round" stroke-miterlimit="1.41421" viewBox="0 0 512 512" xmlns="http://www.w3.org/2000/svg"><path d="m256 0c-141.484.0-256 114.496-256 256 0 44.902 11.711 88.758 33.949 127.438l-32.984 102.429c-2.301 7.141-.41 14.969 4.894 20.274 5.254 5.254 13.063 7.214 20.274 4.894l102.43-32.984c38.679 22.238 82.535 33.949 127.437 33.949 141.484.0 256-114.496 256-256 0-141.484-114.496-256-256-256zm0 472c-40.559.0-80.094-11.316-114.332-32.727-4.926-3.078-11.043-3.91-16.734-2.078l-73.942 23.813 23.813-73.942c1.804-5.609 1.043-11.734-2.082-16.734-21.407-34.238-32.723-73.773-32.723-114.332.0-119.102 96.898-216 216-216s216 96.898 216 216-96.898 216-216 216zm25-216c0 13.805-11.191 25-25 25s-25-11.195-25-25c0-13.809 11.191-25 25-25s25 11.191 25 25zm1e2.0c0 13.805-11.191 25-25 25s-25-11.195-25-25c0-13.809 11.191-25 25-25s25 11.191 25 25zm-2e2.0c0 13.805-11.191 25-25 25-13.805.0-25-11.195-25-25 0-13.809 11.195-25 25-25 13.809.0 25 11.191 25 25z" fill="#8c8c8c" fill-rule="nonzero"/></svg>