<svg fill="none" height="24" viewBox="0 0 24 24" width="24" xmlns="http://www.w3.org/2000/svg" xmlns:xlink="http://www.w3.org/1999/xlink"><clipPath id="a"><path d="m1.5 1.5h21v21h-21z"/></clipPath><g clip-path="url(#a)"><path d="m12 1.5C6.20121 1.5 1.5 6.20099 1.5 12c0 5.799 4.70121 10.5 10.5 10.5 5.7988.0 10.5-4.701 10.5-10.5.0-5.79901-4.7012-10.5-10.5-10.5zm1.2082 13.9876c-.9712.0-1.8847-.525-2.1975-1.1212.0.0-.5225 2.0721-.6323 2.4719-.38946 1.4136-1.53517 2.8276-1.62432 2.9434-.06209.0806-.19937.0554-.21355-.0516-.02427-.18-.31688-1.9633.02729-3.4177.17208-.7305 1.15645-4.9013 1.15645-4.9013s-.28659-.5742-.28659-1.42323c0-1.33305.77252-2.32816 1.73452-2.32816.8179.0 1.2128.61421 1.2128 1.35045.0.82238-.5234 2.05214-.7934 3.19154-.2258.9541.478 1.7324 1.419 1.7324 1.7043.0 2.8513-2.1887 2.8513-4.78237.0-1.97088-1.3269-3.44679-3.742-3.44679-2.72777.0-4.42882 2.03469-4.42882 4.30786.0.7833.23159 1.3365.5938 1.7638.16607.1965.1897.2756.12933.5012-.04361.1656-.14179.5639-.18347.7214-.05994.2281-.24426.3094-.45072.2254-1.25592-.5129-1.84155-1.8891-1.84155-3.4361.0-2.55502 2.15456-5.61876 6.42823-5.61876 3.4341.0 5.6944 2.48477 5.6944 5.15257 2e-4 3.52929-1.9619 6.16529-4.8529 6.16529z" fill="#000"/></g></svg>