<svg width="17" height="17" viewBox="0 0 17 17" fill="none" xmlns="http://www.w3.org/2000/svg">
<path fill-rule="evenodd" clip-rule="evenodd" d="M7.5 1.75C4.32436 1.75 1.75 4.32436 1.75 7.5C1.75 10.6756 4.32436 13.25 7.5 13.25C10.6756 13.25 13.25 10.6756 13.25 7.5C13.25 4.32436 10.6756 1.75 7.5 1.75ZM0.25 7.5C0.25 3.49594 3.49594 0.25 7.5 0.25C11.5041 0.25 14.75 3.49594 14.75 7.5C14.75 11.5041 11.5041 14.75 7.5 14.75C3.49594 14.75 0.25 11.5041 0.25 7.5Z" fill="#303030"/>
<path fill-rule="evenodd" clip-rule="evenodd" d="M13.4697 13.4697C13.7626 13.1768 14.2374 13.1768 14.5303 13.4697L16.5303 15.4697C16.8232 15.7626 16.8232 16.2374 16.5303 16.5303C16.2374 16.8232 15.7626 16.8232 15.4697 16.5303L13.4697 14.5303C13.1768 14.2374 13.1768 13.7626 13.4697 13.4697Z" fill="#303030"/>
</svg>
