<svg width="19" height="20" viewBox="0 0 19 20" fill="none" xmlns="http://www.w3.org/2000/svg">
<path d="M4.77719 7V6C4.77719 4.67392 5.27477 3.40215 6.16047 2.46447C7.04617 1.52678 8.24743 1 9.5 1C10.7526 1 11.9538 1.52678 12.8395 2.46447C13.7252 3.40215 14.2228 4.67392 14.2228 6V7M16.2121 7H2.78794C2.52865 7.00016 2.27248 7.06 2.03719 7.17536C1.8019 7.29072 1.59311 7.45886 1.42528 7.66812C1.25745 7.87738 1.13459 8.12276 1.06522 8.38727C0.995844 8.65178 0.98161 8.92909 1.0235 9.2L2.32133 17.418C2.39102 17.8597 2.60631 18.2611 2.92899 18.5507C3.25167 18.8403 3.66085 18.9995 4.08388 19H14.9199C15.3423 18.9986 15.7506 18.8389 16.0725 18.5494C16.3943 18.2599 16.6091 17.8591 16.6787 17.418L17.9765 9.2C18.0184 8.92909 18.0042 8.65178 17.9348 8.38727C17.8654 8.12276 17.7426 7.87738 17.5747 7.66812C17.4069 7.45886 17.1981 7.29072 16.9628 7.17536C16.7275 7.06 16.4714 7.00016 16.2121 7V7Z" stroke="#313231" stroke-width="1.5" stroke-linecap="round" stroke-linejoin="round"/>
</svg>
