<svg fill="none" height="24" viewBox="0 0 24 24" width="24" xmlns="http://www.w3.org/2000/svg"><path d="m21.2841 8.27559-5.9508-.86484-2.6602-5.39297c-.0726-.14765-.1922-.26719-.3398-.33984-.3703-.18281-.8203-.03047-1.0055.33984l-2.66014 5.39297-5.95078.86484c-.16406.02344-.31407.10079-.42891.21797-.13884.14271-.21535.33469-.21271.53377.00264.19909.0842.38898.22677.52795l4.30547 4.19762-1.01719 5.9274c-.02385.1379-.00859.2797.04405.4093.05264.1297.14055.242.25377.3242s.24722.1311.38679.1411c.13958.0099.27915-.0194.40289-.0848l5.32269-2.7984 5.3226 2.7984c.1453.0774.3141.1031.4758.075.4078-.0703.682-.457.6117-.8648l-1.0172-5.9274 4.3055-4.19762c.1172-.11484.1945-.26484.218-.4289.0633-.41016-.2227-.78985-.6328-.85079z" fill="#e8e8e8"/><path d="m21.2841 8.27559-5.9508-.86484-2.6602-5.39297c-.0726-.14765-.1922-.26719-.3398-.33984-.3703-.18281-.8203-.03047-1.0055.33984l-2.66014 5.39297-5.95078.86484c-.16406.02344-.31407.10079-.42891.21797-.13884.14271-.21535.33469-.21271.53377.00264.19909.0842.38898.22677.52795l4.30547 4.19762-1.01719 5.9274c-.02385.1379-.00859.2797.04405.4093.05264.1297.14055.242.25377.3242s.24722.1311.38679.1411c.13958.0099.27915-.0194.40289-.0848l5.32269-2.7984 5.3226 2.7984c.1453.0774.3141.1031.4758.075.4078-.0703.682-.457.6117-.8648l-1.0172-5.9274 4.3055-4.19762c.1172-.11484.1945-.26484.218-.4289.0633-.41016-.2227-.78985-.6328-.85079z" fill="#fadb14"/></svg>