<svg clip-rule="evenodd" fill-rule="evenodd" stroke-linejoin="round" stroke-miterlimit="1.41421" viewBox="0 0 511 511" xmlns="http://www.w3.org/2000/svg"><path d="m114.373 500.667c-5.599.0-11.158-1.746-15.903-5.177-8.838-6.406-12.967-17.416-10.562-28.04l32.874-144.81-111.487-97.772c-8.196-7.154-11.326-18.484-7.962-28.851 3.365-10.347 12.519-17.673 23.358-18.675l147.512-13.392 58.321-136.482c4.3-10.028 14.093-16.504 24.975-16.504 10.881.0 20.675 6.476 24.975 16.48l58.321 136.506 147.489 13.392c10.861.979 20.016 8.328 23.38 18.675 3.365 10.347.254 21.697-7.942 28.851l-111.487 97.752 32.874 144.807c2.409 10.647-1.724 21.657-10.558 28.043-8.815 6.386-20.57 6.878-29.853 1.298l-127.199-76.013-127.2 76.056c-4.3 2.554-9.092 3.856-13.926 3.856zm141.126-112.657c4.834.0 9.622 1.298 13.926 3.852l120.046 71.798-31.027-136.677c-2.214-9.727 1.088-19.883 8.605-26.464l105.269-92.322-139.274-12.648c-10.027-.916-18.651-7.22-22.569-16.46l-54.976-128.798-55.042 128.817c-3.876 9.178-12.5 15.482-22.504 16.398l-139.293 12.648 105.265 92.322c7.54 6.6 10.839 16.737 8.605 26.488l-31.003 136.673 120.046-71.775c4.3-2.554 9.091-3.852 13.926-3.852zm-84.423-221.42s0 .023-.024.043zm168.803-.063.023.043c0-.023.0-.023-.023-.043z" fill="#8c8c8c" fill-rule="nonzero"/></svg>