<svg fill="none" height="24" viewBox="0 0 24 24" width="24" xmlns="http://www.w3.org/2000/svg"><path d="m21.7504 5.96017c-.7172.30937-1.4977.53203-2.3016.61875.8347-.49586 1.4597-1.27922 1.7578-2.20313-.7832.46591-1.6412.79262-2.5359.96563-.374-.39979-.8262-.71827-1.3287-.93561-.5024-.21734-1.0442-.32888-1.5916-.32768-2.2149.0-3.9961 1.79532-3.9961 3.99844.0.30938.0375.61875.0984.91641-3.31637-.17344-6.27418-1.75781-8.24059-4.1836-.3583.61199-.54606 1.30882-.54375 2.01797.0 1.3875.70547 2.61094 1.78125 3.33045-.63397-.0249-1.2531-.1992-1.80703-.50857v.04922c0 1.94295 1.37344 3.55315 3.2039 3.92345-.34369.0893-.69724.1349-1.05234.1359-.26016.0-.50625-.0258-.75469-.0609.50625 1.5844 1.98047 2.7351 3.73594 2.7726-1.37344 1.0758-3.09375 1.7086-4.96172 1.7086-.33515.0-.64453-.0117-.96562-.0492 1.77187 1.1367 3.87422 1.793 6.13828 1.793 7.34997.0 11.37187-6.0891 11.37187-11.37423.0-.17344.0-.34688-.0117-.52032.7781-.56953 1.4601-1.275 2.0039-2.06718z" fill="#000"/></svg>