<svg width="16" height="19" viewBox="0 0 16 19" fill="none" xmlns="http://www.w3.org/2000/svg">
<path fill-rule="evenodd" clip-rule="evenodd" d="M8 1.75C6.20507 1.75 4.75 3.20507 4.75 5C4.75 6.79493 6.20507 8.25 8 8.25C9.79493 8.25 11.25 6.79493 11.25 5C11.25 3.20507 9.79493 1.75 8 1.75ZM3.25 5C3.25 2.37665 5.37665 0.25 8 0.25C10.6234 0.25 12.75 2.37665 12.75 5C12.75 7.62335 10.6234 9.75 8 9.75C5.37665 9.75 3.25 7.62335 3.25 5Z" fill="#ffffff"/>
<path fill-rule="evenodd" clip-rule="evenodd" d="M0.25 18C0.25 14.1639 3.83633 11.25 8 11.25C12.1637 11.25 15.75 14.1639 15.75 18C15.75 18.4142 15.4142 18.75 15 18.75C14.5858 18.75 14.25 18.4142 14.25 18C14.25 15.2018 11.5616 12.75 8 12.75C4.4384 12.75 1.75 15.2018 1.75 18C1.75 18.4142 1.41421 18.75 1 18.75C0.585786 18.75 0.25 18.4142 0.25 18Z" fill="#ffffff"/>
</svg>
