<svg width="55" height="34" viewBox="0 0 55 34" fill="none" xmlns="http://www.w3.org/2000/svg">
<g clip-path="url(#clip0_1866_4305)">
<path fill-rule="evenodd" clip-rule="evenodd" d="M38.604 9.18C37.3312 8.74289 36.0583 8.5 34.7383 8.5C30.4955 8.5 27.4783 10.6857 27.4783 13.8429C27.4783 16.1743 29.5997 17.4857 31.2497 18.2629C32.8997 19.04 33.4655 19.5743 33.4655 20.3029C33.4655 21.3714 32.1455 21.9057 30.9197 21.9057C29.5055 21.9543 28.1383 21.6629 26.8655 21.0314L26.2997 20.7886L25.6868 24.4314C27.1955 25.0143 28.8455 25.3057 30.4483 25.3057C34.974 25.3057 37.8969 23.12 37.944 19.7686C37.944 17.9229 36.8126 16.5143 34.314 15.3486C32.8055 14.62 31.9097 14.0857 31.9097 13.3086C31.9568 12.6286 32.7112 11.9 34.4083 11.9C35.4926 11.8514 36.624 12.0943 37.614 12.5314L37.9912 12.7257L38.604 9.18ZM18.7097 25.0144L21.3969 8.79148H25.6869L22.9997 25.0144H18.7097ZM46.3355 8.79148H49.6355L53.1241 25.063H49.117C49.117 25.063 48.7398 23.2172 48.5984 22.6344H43.0827C42.9413 23.0715 42.187 25.063 42.187 25.063H37.6613L44.0727 10.1515C44.5442 9.08296 45.2984 8.79148 46.3355 8.79148ZM44.3084 19.2829C44.6855 18.3601 46.0055 14.7172 46.0055 14.7172C46.0055 14.7172 46.3355 13.7944 46.5712 13.1629L46.8541 14.5715C46.8541 14.5715 47.7026 18.4572 47.8441 19.2829H44.3084ZM10.8841 19.8658L15.0798 8.79148H19.6526L12.9112 25.0144H8.33837L4.47266 10.8315C7.20692 12.2401 9.61119 15.0572 10.4126 17.6315L10.8841 19.8658Z" fill="#0058A0"/>
<path d="M6.97324 8.7915H0.0432366L-0.00390625 9.1315C5.37038 10.4915 8.95327 13.7458 10.4146 17.6315L8.95327 10.1515C8.67037 9.1315 7.91609 8.8401 6.97324 8.7915Z" fill="#FAA61A"/>
</g>
<defs>
<clipPath id="clip0_1866_4305">
<rect width="55" height="34" fill="white" transform="translate(-0.00390625)"/>
</clipPath>
</defs>
</svg>
