<svg fill="none" height="24" viewBox="0 0 24 24" width="24" xmlns="http://www.w3.org/2000/svg"><path d="m22.0617 6.93984c-.1195-.44522-.3539-.85124-.6797-1.17741-.3257-.32618-.7315-.56107-1.1765-.68118-1.6383-.44062-8.2055-.44063-8.2055-.44063s-6.56719.0-8.20547.43829c-.44526.11971-.85119.35448-1.17702.68071-.32582.32624-.56007.73246-.67923 1.17788-.43828 1.64062-.43828 5.0625-.43828 5.0625s0 3.4219.43828 5.0602c.24141.9046.95391 1.6171 1.85625 1.8586 1.63828.4406 8.20547.4406 8.20547.4406s6.5672.0 8.2055-.4406c.9047-.2415 1.6148-.954 1.8562-1.8586.4383-1.6383.4383-5.0602.4383-5.0602s0-3.42187-.4383-5.06016zm-12.14764 8.20076v-6.28122l5.43754 3.11722z" fill="#000"/></svg>